999
dxfrw 0.6.3
  0
SECTION
  2
HEADER
  9
$ACADVER
  1
AC1009
  9
$DWGCODEPAGE
  3
ANSI_1252
  9
$INSBASE
 10
0
 20
0
 30
0
  9
$EXTMIN
 10
5.123429089396496
 20
37.72074903842228
 30
0
  9
$EXTMAX
 10
52.62341715445386
 20
54.19612197468327
 30
0
  9
$LIMMIN
 10
0
 20
0
  9
$LIMMAX
 10
420
 20
297
  9
$ORTHOMODE
 70
    0
  9
$REGENMODE
 70
    1
  9
$FILLMODE
 70
    1
  9
$QTEXTMODE
 70
    0
  9
$MIRRTEXT
 70
    0
  9
$DRAGMODE
 70
    2
  9
$LTSCALE
 40
1
  9
$OSMODE
 70
    0
  9
$ATTMODE
 70
    0
  9
$TEXTSIZE
 40
2.5
  9
$TRACEWID
 40
15.68
  9
$TEXTSTYLE
  7
STANDARD
  9
$CLAYER
  8
0
  9
$CELTYPE
  6
BYLAYER
  9
$CECOLOR
 62
  256
  9
$DIMSCALE
 40
2.5
  9
$DIMASZ
 40
2.5
  9
$DIMEXO
 40
0.625
  9
$DIMDLI
 40
3.75
  9
$DIMRND
 40
0
  9
$DIMDLE
 40
0
  9
$DIMEXE
 40
1.25
  9
$DIMTP
 40
0
  9
$DIMTM
 40
0
  9
$DIMTXT
 40
2.5
  9
$DIMCEN
 40
2.5
  9
$DIMTSZ
 40
0
  9
$DIMTOL
 70
    0
  9
$DIMLIM
 70
    0
  9
$DIMTIH
 70
    0
  9
$DIMTOH
 70
    0
  9
$DIMSE1
 70
    0
  9
$DIMSE2
 70
    0
  9
$DIMTAD
 70
    1
  9
$DIMZIN
 70
    8
  9
$DIMBLK
  1

  9
$DIMASO
 70
    1
  9
$DIMSHO
 70
    1
  9
$DIMPOST
  1

  9
$DIMAPOST
  1

  9
$DIMALT
 70
    0
  9
$DIMALTD
 70
    3
  9
$DIMALTF
 40
0.03937
  9
$DIMLFAC
 40
1
  9
$DIMTOFL
 70
    1
  9
$DIMTVP
 40
0
  9
$DIMTIX
 70
    0
  9
$DIMSOXD
 70
    0
  9
$DIMSAH
 70
    0
  9
$DIMBLK1
  1

  9
$DIMBLK2
  1

  9
$DIMSTYLE
  2
STANDARD
  9
$DIMCLRD
 70
    0
  9
$DIMCLRE
 70
    0
  9
$DIMCLRT
 70
    0
  9
$DIMTFAC
 40
1
  9
$DIMGAP
 40
0.625
  9
$LUNITS
 70
    2
  9
$LUPREC
 70
    4
  9
$SKETCHINC
 40
1
  9
$FILLETRAD
 40
0
  9
$AUNITS
 70
    0
  9
$AUPREC
 70
    2
  9
$MENU
  1
.
  9
$ELEVATION
 40
0
  9
$PELEVATION
 40
0
  9
$THICKNESS
 40
0
  9
$LIMCHECK
 70
    0
  9
$BLIPMODE
 70
    0
  9
$CHAMFERA
 40
0
  9
$CHAMFERB
 40
0
  9
$SKPOLY
 70
    0
  9
$USRTIMER
 70
    1
  9
$ANGBASE
 50
0
  9
$ANGDIR
 70
    0
  9
$PDMODE
 70
   34
  9
$PDSIZE
 40
0
  9
$PLINEWID
 40
0
  9
$COORDS
 70
    2
  9
$SPLFRAME
 70
    0
  9
$SPLINETYPE
 70
    2
  9
$SPLINESEGS
 70
    8
  9
$ATTDIA
 70
    1
  9
$ATTREQ
 70
    1
  9
$HANDLING
 70
    1
  9
$HANDSEED
  5
20000
  9
$SURFTAB1
 70
    6
  9
$SURFTAB2
 70
    6
  9
$SURFTYPE
 70
    6
  9
$SURFU
 70
    6
  9
$SURFV
 70
    6
  9
$UCSNAME
  2

  9
$UCSORG
 10
0
 20
0
 30
0
  9
$UCSXDIR
 10
1
 20
0
 30
0
  9
$UCSYDIR
 10
0
 20
1
 30
0
  9
$PUCSNAME
  2

  9
$PUCSORG
 10
0
 20
0
 30
0
  9
$PUCSXDIR
 10
1
 20
0
 30
0
  9
$PUCSYDIR
 10
0
 20
1
 30
0
  9
$USERI1
 70
    0
  9
$USERI2
 70
    0
  9
$USERI3
 70
    0
  9
$USERI4
 70
    0
  9
$USERI5
 70
    0
  9
$USERR1
 40
0
  9
$USERR2
 40
0
  9
$USERR3
 40
0
  9
$USERR4
 40
0
  9
$USERR5
 40
0
  9
$WORLDVIEW
 70
    1
  9
$SHADEDGE
 70
    3
  9
$SHADEDIF
 70
   70
  9
$TILEMODE
 70
    1
  9
$MAXACTVP
 70
   64
  9
$PLIMCHECK
 70
    0
  9
$PEXTMIN
 10
0
 20
0
 30
0
  9
$PEXTMAX
 10
0
 20
0
 30
0
  9
$GRIDMODE
 70
    0
  9
$SNAPSTYLE
 70
    0
  9
$PLIMMIN
 10
0
 20
0
  9
$PLIMMAX
 10
210
 20
297
  9
$UNITMODE
 70
    0
  9
$VISRETAIN
 70
    1
  9
$PLINEGEN
 70
    0
  9
$PSLTSCALE
 70
    1
  0
ENDSEC
  0
SECTION
  2
TABLES
  0
TABLE
  2
VPORT
 70
    1
  0
VPORT
  2
*ACTIVE
 70
    0
 10
0
 20
0
 11
1
 21
1
 12
27.41077100249617
 22
30.2869960255141
 13
0
 23
0
 14
10
 24
10
 15
10
 25
10
 16
0
 26
0
 36
1
 17
0
 27
0
 37
0
 40
27.65334419720852
 41
1.951127819548872
 42
50
 43
0
 44
0
 50
0
 51
0
 71
    0
 72
  100
 73
    1
 74
    3
 75
    0
 76
    0
 77
    0
 78
    0
  0
ENDTAB
  0
TABLE
  2
LTYPE
 70
    4
  0
LTYPE
  2
BYBLOCK
 70
    0
  3

 72
   65
 73
    0
 40
0
  0
LTYPE
  2
BYLAYER
 70
    0
  3

 72
   65
 73
    0
 40
0
  0
LTYPE
  2
CONTINUOUS
 70
    0
  3
Solid line
 72
   65
 73
    0
 40
0
  0
LTYPE
  2
DOT
 70
    0
  3
Dot . . . . . . . . . . . . . . . . . . . . . .
 72
   65
 73
    2
 40
6.35
 49
0
 49
-6.35
  0
LTYPE
  2
DOTTINY
 70
    0
  3
Dot (.15x) .....................................
 72
   65
 73
    2
 40
0.9525
 49
0
 49
-0.9525
  0
LTYPE
  2
DOT2
 70
    0
  3
Dot (.5x) .....................................
 72
   65
 73
    2
 40
3.175
 49
0
 49
-3.175
  0
LTYPE
  2
DOTX2
 70
    0
  3
Dot (2x) .  .  .  .  .  .  .  .  .  .  .  .  .
 72
   65
 73
    2
 40
12.7
 49
0
 49
-12.7
  0
LTYPE
  2
DASHED
 70
    0
  3
Dashed _ _ _ _ _ _ _ _ _ _ _ _ _ _ _ _ _
 72
   65
 73
    2
 40
19.05
 49
12.7
 49
-6.35
  0
LTYPE
  2
DASHEDTINY
 70
    0
  3
Dashed (.15x) _ _ _ _ _ _ _ _ _ _ _ _ _ _ _ _ _
 72
   65
 73
    2
 40
2.8575
 49
1.905
 49
-0.9525
  0
LTYPE
  2
DASHED2
 70
    0
  3
Dashed (.5x) _ _ _ _ _ _ _ _ _ _ _ _ _ _ _ _ _
 72
   65
 73
    2
 40
9.524999999999999
 49
6.35
 49
-3.175
  0
LTYPE
  2
DASHEDX2
 70
    0
  3
Dashed (2x) ____  ____  ____  ____  ____  ___
 72
   65
 73
    2
 40
38.09999999999999
 49
25.4
 49
-12.7
  0
LTYPE
  2
DASHDOT
 70
    0
  3
Dash dot __ . __ . __ . __ . __ . __ . __ . __
 72
   65
 73
    4
 40
25.4
 49
12.7
 49
-6.35
 49
0
 49
-6.35
  0
LTYPE
  2
DASHDOTTINY
 70
    0
  3
Dash dot (.15x) _._._._._._._._._._._._._._._.
 72
   65
 73
    4
 40
3.81
 49
1.905
 49
-0.9525
 49
0
 49
-0.9525
  0
LTYPE
  2
DASHDOT2
 70
    0
  3
Dash dot (.5x) _._._._._._._._._._._._._._._.
 72
   65
 73
    4
 40
12.7
 49
6.35
 49
-3.175
 49
0
 49
-3.175
  0
LTYPE
  2
DASHDOTX2
 70
    0
  3
Dash dot (2x) ____  .  ____  .  ____  .  ___
 72
   65
 73
    4
 40
50.8
 49
25.4
 49
-12.7
 49
0
 49
-12.7
  0
LTYPE
  2
DIVIDE
 70
    0
  3
Divide ____ . . ____ . . ____ . . ____ . . ____
 72
   65
 73
    6
 40
31.75
 49
12.7
 49
-6.35
 49
0
 49
-6.35
 49
0
 49
-6.35
  0
LTYPE
  2
DIVIDETINY
 70
    0
  3
Divide (.15x) __..__..__..__..__..__..__..__.._
 72
   65
 73
    6
 40
4.7625
 49
1.905
 49
-0.9525
 49
0
 49
-0.9525
 49
0
 49
-0.9525
  0
LTYPE
  2
DIVIDE2
 70
    0
  3
Divide (.5x) __..__..__..__..__..__..__..__.._
 72
   65
 73
    6
 40
15.875
 49
6.35
 49
-3.175
 49
0
 49
-3.175
 49
0
 49
-3.175
  0
LTYPE
  2
DIVIDEX2
 70
    0
  3
Divide (2x) ________  .  .  ________  .  .  _
 72
   65
 73
    6
 40
63.5
 49
25.4
 49
-12.7
 49
0
 49
-12.7
 49
0
 49
-12.7
  0
LTYPE
  2
BORDER
 70
    0
  3
Border __ __ . __ __ . __ __ . __ __ . __ __ .
 72
   65
 73
    6
 40
44.45
 49
12.7
 49
-6.35
 49
12.7
 49
-6.35
 49
0
 49
-6.35
  0
LTYPE
  2
BORDERTINY
 70
    0
  3
Border (.15x) __.__.__.__.__.__.__.__.__.__.__.
 72
   65
 73
    6
 40
6.6675
 49
1.905
 49
-0.9525
 49
1.905
 49
-0.9525
 49
0
 49
-0.9525
  0
LTYPE
  2
BORDER2
 70
    0
  3
Border (.5x) __.__.__.__.__.__.__.__.__.__.__.
 72
   65
 73
    6
 40
22.225
 49
6.35
 49
-3.175
 49
6.35
 49
-3.175
 49
0
 49
-3.175
  0
LTYPE
  2
BORDERX2
 70
    0
  3
Border (2x) ____  ____  .  ____  ____  .  ___
 72
   65
 73
    6
 40
88.89999999999999
 49
25.4
 49
-12.7
 49
25.4
 49
-12.7
 49
0
 49
-12.7
  0
LTYPE
  2
CENTER
 70
    0
  3
Center ____ _ ____ _ ____ _ ____ _ ____ _ ____
 72
   65
 73
    4
 40
50.8
 49
31.75
 49
-6.35
 49
6.35
 49
-6.35
  0
LTYPE
  2
CENTERTINY
 70
    0
  3
Center (.15x) ___ _ ___ _ ___ _ ___ _ ___ _ ___
 72
   65
 73
    4
 40
7.619999999999999
 49
4.7625
 49
-0.9525
 49
0.9525
 49
-0.9525
  0
LTYPE
  2
CENTER2
 70
    0
  3
Center (.5x) ___ _ ___ _ ___ _ ___ _ ___ _ ___
 72
   65
 73
    4
 40
28.575
 49
19.05
 49
-3.175
 49
3.175
 49
-3.175
  0
LTYPE
  2
CENTERX2
 70
    0
  3
Center (2x) ________  __  ________  __  _____
 72
   65
 73
    4
 40
101.6
 49
63.5
 49
-12.7
 49
12.7
 49
-12.7
  0
ENDTAB
  0
TABLE
  2
LAYER
 70
    1
  0
LAYER
  2
0
 70
    0
 62
    7
  6
CONTINUOUS
  0
ENDTAB
  0
TABLE
  2
STYLE
 70
    3
  0
STYLE
  2
STANDARD
 70
    0
 40
0
 41
1
 50
0
 71
    0
 42
1
  3
TXT
  4

  0
ENDTAB
  0
TABLE
  2
VIEW
 70
    0
  0
ENDTAB
  0
TABLE
  2
UCS
 70
    0
  0
ENDTAB
  0
TABLE
  2
APPID
 70
    1
  0
APPID
  2
ACAD
 70
    0
  0
APPID
  2
LIBRECAD
 70
    0
  0
ENDTAB
  0
TABLE
  2
DIMSTYLE
 70
    1
  0
DIMSTYLE
  2
STANDARD
 70
    0
  3

  4

  5

  6

  7

 40
2.5
 41
2.5
 42
0.625
 43
0.38
 44
1.25
 45
0
 46
0
 47
0
 48
0
 49
1
140
2.5
141
0.09
142
0
143
25.4
144
1
145
0
146
1
147
0.625
 71
    0
 72
    0
 73
    0
 74
    1
 75
    0
 76
    0
 77
    0
 78
    8
170
    0
171
    2
172
    0
173
    0
174
    0
175
    0
176
    0
177
    0
178
    0
  0
ENDTAB
  0
ENDSEC
  0
SECTION
  2
BLOCKS
  0
BLOCK
  8
0
  2
$MODEL_SPACE
 70
    0
 10
0
 20
0
 30
0
  3
$MODEL_SPACE
  1

  0
ENDBLK
  8
0
  0
BLOCK
  8
0
  2
$PAPER_SPACE
 70
    0
 10
0
 20
0
 30
0
  3
$PAPER_SPACE
  1

  0
ENDBLK
  8
0
  0
ENDSEC
  0
SECTION
  2
ENTITIES
  0
POLYLINE
  5
31
  8
0
  6
BYLAYER
 62
    7
 66
    1
 10
0
 20
0
 30
0
 70
    0
  0
VERTEX
  5
32
  8
0
  6
BYLAYER
 62
    7
 10
40.00157399165047
 20
37.843832247605
 30
0
  0
VERTEX
  5
33
  8
0
  6
BYLAYER
 62
    7
 10
39.94241317239864
 20
37.86621041398936
 30
0
  0
VERTEX
  5
34
  8
0
  6
BYLAYER
 62
    7
 10
39.88392329005758
 20
37.89111160775147
 30
0
  0
VERTEX
  5
35
  8
0
  6
BYLAYER
 62
    7
 10
39.82615964744605
 20
37.91846799309879
 30
0
  0
VERTEX
  5
36
  8
0
  6
BYLAYER
 62
    7
 10
39.76917754738285
 20
37.94821173423865
 30
0
  0
VERTEX
  5
37
  8
0
  6
BYLAYER
 62
    7
 10
39.71303229268679
 20
37.98027499537848
 30
0
  0
VERTEX
  5
38
  8
0
  6
BYLAYER
 62
    7
 10
39.65777918617667
 20
38.01458994072571
 30
0
  0
VERTEX
  5
39
  8
0
  6
BYLAYER
 62
    7
 10
39.60347353067129
 20
38.05108873448766
 30
0
  0
VERTEX
  5
3A
  8
0
  6
BYLAYER
 62
    7
 10
39.55017062898945
 20
38.08970354087177
 30
0
  0
VERTEX
  5
3B
  8
0
  6
BYLAYER
 62
    7
 10
39.49792578394992
 20
38.13036652408541
 30
0
  0
VERTEX
  5
3C
  8
0
  6
BYLAYER
 62
    7
 10
39.44679429837151
 20
38.17300984833596
 30
0
  0
VERTEX
  5
3D
  8
0
  6
BYLAYER
 62
    7
 10
39.39683147507304
 20
38.21756567783088
 30
0
  0
VERTEX
  5
3E
  8
0
  6
BYLAYER
 62
    7
 10
39.34809261687332
 20
38.26396617677754
 30
0
  0
VERTEX
  5
3F
  8
0
  6
BYLAYER
 62
    7
 10
39.30063302659111
 20
38.31214350938323
 30
0
  0
VERTEX
  5
40
  8
0
  6
BYLAYER
 62
    7
 10
39.25450800704522
 20
38.3620298398555
 30
0
  0
VERTEX
  5
41
  8
0
  6
BYLAYER
 62
    7
 10
39.20977286105445
 20
38.41355733240165
 30
0
  0
VERTEX
  5
42
  8
0
  6
BYLAYER
 62
    7
 10
39.1664828914376
 20
38.46665815122909
 30
0
  0
VERTEX
  5
43
  8
0
  6
BYLAYER
 62
    7
 10
39.12469340101349
 20
38.52126446054522
 30
0
  0
VERTEX
  5
44
  8
0
  6
BYLAYER
 62
    7
 10
39.08445969260086
 20
38.57730842455743
 30
0
  0
VERTEX
  5
45
  8
0
  6
BYLAYER
 62
    7
 10
39.04583706901856
 20
38.63472220747308
 30
0
  0
VERTEX
  5
46
  8
0
  6
BYLAYER
 62
    7
 10
39.00888083308536
 20
38.69343797349961
 30
0
  0
VERTEX
  5
47
  8
0
  6
BYLAYER
 62
    7
 10
38.97364628762008
 20
38.75338788684443
 30
0
  0
VERTEX
  5
48
  8
0
  6
BYLAYER
 62
    7
 10
38.94018873544151
 20
38.81450411171491
 30
0
  0
VERTEX
  5
49
  8
0
  6
BYLAYER
 62
    7
 10
38.90856347936847
 20
38.87671881231842
 30
0
  0
VERTEX
  5
4A
  8
0
  6
BYLAYER
 62
    7
 10
38.87882582221971
 20
38.93996415286235
 30
0
  0
VERTEX
  5
4B
  8
0
  6
BYLAYER
 62
    7
 10
38.85103106681404
 20
39.00417229755416
 30
0
  0
VERTEX
  5
4C
  8
0
  6
BYLAYER
 62
    7
 10
38.82523451597032
 20
39.06927541060114
 30
0
  0
VERTEX
  5
4D
  8
0
  6
BYLAYER
 62
    7
 10
38.80149147250727
 20
39.13520565621079
 30
0
  0
VERTEX
  5
4E
  8
0
  6
BYLAYER
 62
    7
 10
38.77985723924373
 20
39.20189519859043
 30
0
  0
VERTEX
  5
4F
  8
0
  6
BYLAYER
 62
    7
 10
38.76038711899847
 20
39.26927620194747
 30
0
  0
VERTEX
  5
50
  8
0
  6
BYLAYER
 62
    7
 10
38.74313641459032
 20
39.33728083048933
 30
0
  0
VERTEX
  5
51
  8
0
  6
BYLAYER
 62
    7
 10
38.72816042883807
 20
39.40584124842339
 30
0
  0
SEQEND
  5
52
  8
0
  6
BYLAYER
 62
    7
  0
POLYLINE
  5
53
  8
0
  6
BYLAYER
 62
    7
 66
    1
 10
0
 20
0
 30
0
 70
    0
  0
VERTEX
  5
54
  8
0
  6
BYLAYER
 62
    7
 10
19.6514694102734
 20
39.79489602147745
 30
0
  0
VERTEX
  5
55
  8
0
  6
BYLAYER
 62
    7
 10
19.60545709746619
 20
39.79487595161851
 30
0
  0
VERTEX
  5
56
  8
0
  6
BYLAYER
 62
    7
 10
19.5623264065524
 20
39.79479493227399
 30
0
  0
VERTEX
  5
57
  8
0
  6
BYLAYER
 62
    7
 10
19.52198424270815
 20
39.79462174879235
 30
0
  0
VERTEX
  5
58
  8
0
  6
BYLAYER
 62
    7
 10
19.48433751110954
 20
39.79432518652207
 30
0
  0
VERTEX
  5
59
  8
0
  6
BYLAYER
 62
    7
 10
19.44929311693272
 20
39.79387403081162
 30
0
  0
VERTEX
  5
5A
  8
0
  6
BYLAYER
 62
    7
 10
19.41675796535379
 20
39.79323706700951
 30
0
  0
VERTEX
  5
5B
  8
0
  6
BYLAYER
 62
    7
 10
19.38663896154886
 20
39.79238308046416
 30
0
  0
VERTEX
  5
5C
  8
0
  6
BYLAYER
 62
    7
 10
19.35884301069407
 20
39.79128085652406
 30
0
  0
VERTEX
  5
5D
  8
0
  6
BYLAYER
 62
    7
 10
19.33327701796553
 20
39.78989918053767
 30
0
  0
VERTEX
  5
5E
  8
0
  6
BYLAYER
 62
    7
 10
19.30984788853939
 20
39.78820683785347
 30
0
  0
VERTEX
  5
5F
  8
0
  6
BYLAYER
 62
    7
 10
19.28846252759173
 20
39.78617261381999
 30
0
  0
VERTEX
  5
60
  8
0
  6
BYLAYER
 62
    7
 10
19.26902784029868
 20
39.78376529378563
 30
0
  0
VERTEX
  5
61
  8
0
  6
BYLAYER
 62
    7
 10
19.25145073183636
 20
39.78095366309886
 30
0
  0
VERTEX
  5
62
  8
0
  6
BYLAYER
 62
    7
 10
19.2356381073809
 20
39.77770650710819
 30
0
  0
VERTEX
  5
63
  8
0
  6
BYLAYER
 62
    7
 10
19.22149687210843
 20
39.7739926111621
 30
0
  0
VERTEX
  5
64
  8
0
  6
BYLAYER
 62
    7
 10
19.20893393119505
 20
39.76978076060899
 30
0
  0
VERTEX
  5
65
  8
0
  6
BYLAYER
 62
    7
 10
19.19785618981688
 20
39.76503974079741
 30
0
  0
VERTEX
  5
66
  8
0
  6
BYLAYER
 62
    7
 10
19.18817055315004
 20
39.75973833707579
 30
0
  0
VERTEX
  5
67
  8
0
  6
BYLAYER
 62
    7
 10
19.17978392637068
 20
39.75384533479264
 30
0
  0
VERTEX
  5
68
  8
0
  6
BYLAYER
 62
    7
 10
19.17260321465487
 20
39.74732951929639
 30
0
  0
VERTEX
  5
69
  8
0
  6
BYLAYER
 62
    7
 10
19.16653532317879
 20
39.74015967593553
 30
0
  0
VERTEX
  5
6A
  8
0
  6
BYLAYER
 62
    7
 10
19.16148715711851
 20
39.73230459005852
 30
0
  0
VERTEX
  5
6B
  8
0
  6
BYLAYER
 62
    7
 10
19.15736562165017
 20
39.72373304701387
 30
0
  0
VERTEX
  5
6C
  8
0
  6
BYLAYER
 62
    7
 10
19.1540776219499
 20
39.71441383214999
 30
0
  0
VERTEX
  5
6D
  8
0
  6
BYLAYER
 62
    7
 10
19.15153006319382
 20
39.70431573081544
 30
0
  0
VERTEX
  5
6E
  8
0
  6
BYLAYER
 62
    7
 10
19.149629850558
 20
39.69340752835856
 30
0
  0
VERTEX
  5
6F
  8
0
  6
BYLAYER
 62
    7
 10
19.14828388921864
 20
39.68165801012798
 30
0
  0
VERTEX
  5
70
  8
0
  6
BYLAYER
 62
    7
 10
19.1473990843518
 20
39.66903596147205
 30
0
  0
VERTEX
  5
71
  8
0
  6
BYLAYER
 62
    7
 10
19.14688234113363
 20
39.65551016773929
 30
0
  0
VERTEX
  5
72
  8
0
  6
BYLAYER
 62
    7
 10
19.14664056474024
 20
39.64104941427819
 30
0
  0
VERTEX
  5
73
  8
0
  6
BYLAYER
 62
    7
 10
19.14658066034773
 20
39.62562248643718
 30
0
  0
SEQEND
  5
74
  8
0
  6
BYLAYER
 62
    7
  0
POLYLINE
  5
75
  8
0
  6
BYLAYER
 62
    7
 66
    1
 10
0
 20
0
 30
0
 70
    0
  0
VERTEX
  5
76
  8
0
  6
BYLAYER
 62
    7
 10
19.14658066034773
 20
39.62562248643718
 30
0
  0
VERTEX
  5
77
  8
0
  6
BYLAYER
 62
    7
 10
19.14572071554947
 20
39.59415575344423
 30
0
  0
VERTEX
  5
78
  8
0
  6
BYLAYER
 62
    7
 10
19.14317807170287
 20
39.56102843286649
 30
0
  0
VERTEX
  5
79
  8
0
  6
BYLAYER
 62
    7
 10
19.13900851463018
 20
39.52636101915824
 30
0
  0
VERTEX
  5
7A
  8
0
  6
BYLAYER
 62
    7
 10
19.1332678301537
 20
39.49027400677388
 30
0
  0
VERTEX
  5
7B
  8
0
  6
BYLAYER
 62
    7
 10
19.12601180409569
 20
39.45288789016769
 30
0
  0
VERTEX
  5
7C
  8
0
  6
BYLAYER
 62
    7
 10
19.11729622227843
 20
39.41432316379422
 30
0
  0
VERTEX
  5
7D
  8
0
  6
BYLAYER
 62
    7
 10
19.1071768705242
 20
39.3747003221075
 30
0
  0
VERTEX
  5
7E
  8
0
  6
BYLAYER
 62
    7
 10
19.09570953465525
 20
39.33413985956216
 30
0
  0
VERTEX
  5
7F
  8
0
  6
BYLAYER
 62
    7
 10
19.0829500004939
 20
39.2927622706124
 30
0
  0
VERTEX
  5
80
  8
0
  6
BYLAYER
 62
    7
 10
19.06895405386241
 20
39.25068804971262
 30
0
  0
VERTEX
  5
81
  8
0
  6
BYLAYER
 62
    7
 10
19.05377748058301
 20
39.20803769131718
 30
0
  0
VERTEX
  5
82
  8
0
  6
BYLAYER
 62
    7
 10
19.03747606647803
 20
39.1649316898804
 30
0
  0
VERTEX
  5
83
  8
0
  6
BYLAYER
 62
    7
 10
19.0201055973697
 20
39.12149053985662
 30
0
  0
VERTEX
  5
84
  8
0
  6
BYLAYER
 62
    7
 10
19.00172185908036
 20
39.07783473570022
 30
0
  0
VERTEX
  5
85
  8
0
  6
BYLAYER
 62
    7
 10
18.98238063743219
 20
39.03408477186554
 30
0
  0
VERTEX
  5
86
  8
0
  6
BYLAYER
 62
    7
 10
18.96213771824753
 20
38.99036114280693
 30
0
  0
VERTEX
  5
87
  8
0
  6
BYLAYER
 62
    7
 10
18.94104888734867
 20
38.94678434297873
 30
0
  0
VERTEX
  5
88
  8
0
  6
BYLAYER
 62
    7
 10
18.91916993055782
 20
38.9034748668353
 30
0
  0
VERTEX
  5
89
  8
0
  6
BYLAYER
 62
    7
 10
18.89655663369732
 20
38.86055320883096
 30
0
  0
VERTEX
  5
8A
  8
0
  6
BYLAYER
 62
    7
 10
18.87326478258939
 20
38.8181398634201
 30
0
  0
VERTEX
  5
8B
  8
0
  6
BYLAYER
 62
    7
 10
18.84935016305634
 20
38.77635532505706
 30
0
  0
VERTEX
  5
8C
  8
0
  6
BYLAYER
 62
    7
 10
18.82486856092044
 20
38.73532008819618
 30
0
  0
VERTEX
  5
8D
  8
0
  6
BYLAYER
 62
    7
 10
18.79987576200395
 20
38.69515464729181
 30
0
  0
VERTEX
  5
8E
  8
0
  6
BYLAYER
 62
    7
 10
18.77442755212914
 20
38.6559794967983
 30
0
  0
VERTEX
  5
8F
  8
0
  6
BYLAYER
 62
    7
 10
18.74857971711831
 20
38.61791513116997
 30
0
  0
VERTEX
  5
90
  8
0
  6
BYLAYER
 62
    7
 10
18.72238804279374
 20
38.58108204486119
 30
0
  0
VERTEX
  5
91
  8
0
  6
BYLAYER
 62
    7
 10
18.69590831497764
 20
38.54560073232635
 30
0
  0
VERTEX
  5
92
  8
0
  6
BYLAYER
 62
    7
 10
18.66919631949237
 20
38.51159168801975
 30
0
  0
VERTEX
  5
93
  8
0
  6
BYLAYER
 62
    7
 10
18.64230784216016
 20
38.47917540639577
 30
0
  0
VERTEX
  5
94
  8
0
  6
BYLAYER
 62
    7
 10
18.61529866880326
 20
38.44847238190873
 30
0
  0
VERTEX
  5
95
  8
0
  6
BYLAYER
 62
    7
 10
18.58822458524402
 20
38.419603109013
 30
0
  0
SEQEND
  5
96
  8
0
  6
BYLAYER
 62
    7
  0
POLYLINE
  5
97
  8
0
  6
BYLAYER
 62
    7
 66
    1
 10
0
 20
0
 30
0
 70
    0
  0
VERTEX
  5
98
  8
0
  6
BYLAYER
 62
    7
 10
18.58822458524402
 20
38.419603109013
 30
0
  0
VERTEX
  5
99
  8
0
  6
BYLAYER
 62
    7
 10
18.54780288873233
 20
38.37884498653386
 30
0
  0
VERTEX
  5
9A
  8
0
  6
BYLAYER
 62
    7
 10
18.50708647974676
 20
38.33958156305071
 30
0
  0
VERTEX
  5
9B
  8
0
  6
BYLAYER
 62
    7
 10
18.46604866991697
 20
38.30180192511821
 30
0
  0
VERTEX
  5
9C
  8
0
  6
BYLAYER
 62
    7
 10
18.42466277087263
 20
38.26549515929097
 30
0
  0
VERTEX
  5
9D
  8
0
  6
BYLAYER
 62
    7
 10
18.38290209424343
 20
38.23065035212353
 30
0
  0
VERTEX
  5
9E
  8
0
  6
BYLAYER
 62
    7
 10
18.34073995165903
 20
38.19725659017057
 30
0
  0
VERTEX
  5
9F
  8
0
  6
BYLAYER
 62
    7
 10
18.29814965474911
 20
38.16530295998668
 30
0
  0
VERTEX
  5
A0
  8
0
  6
BYLAYER
 62
    7
 10
18.25510451514335
 20
38.13477854812643
 30
0
  0
VERTEX
  5
A1
  8
0
  6
BYLAYER
 62
    7
 10
18.21157784447144
 20
38.10567244114444
 30
0
  0
VERTEX
  5
A2
  8
0
  6
BYLAYER
 62
    7
 10
18.16754295436304
 20
38.07797372559536
 30
0
  0
VERTEX
  5
A3
  8
0
  6
BYLAYER
 62
    7
 10
18.12297315644783
 20
38.05167148803375
 30
0
  0
VERTEX
  5
A4
  8
0
  6
BYLAYER
 62
    7
 10
18.07784176235548
 20
38.02675481501424
 30
0
  0
VERTEX
  5
A5
  8
0
  6
BYLAYER
 62
    7
 10
18.03212208371568
 20
38.00321279309141
 30
0
  0
VERTEX
  5
A6
  8
0
  6
BYLAYER
 62
    7
 10
17.98578743215811
 20
37.98103450881984
 30
0
  0
VERTEX
  5
A7
  8
0
  6
BYLAYER
 62
    7
 10
17.93881111931245
 20
37.96020904875419
 30
0
  0
VERTEX
  5
A8
  8
0
  6
BYLAYER
 62
    7
 10
17.89116645680836
 20
37.94072549944907
 30
0
  0
VERTEX
  5
A9
  8
0
  6
BYLAYER
 62
    7
 10
17.8428267562755
 20
37.92257294745905
 30
0
  0
VERTEX
  5
AA
  8
0
  6
BYLAYER
 62
    7
 10
17.79376532934358
 20
37.90574047933876
 30
0
  0
VERTEX
  5
AB
  8
0
  6
BYLAYER
 62
    7
 10
17.74395548764229
 20
37.89021718164278
 30
0
  0
VERTEX
  5
AC
  8
0
  6
BYLAYER
 62
    7
 10
17.69337054280127
 20
37.87599214092575
 30
0
  0
VERTEX
  5
AD
  8
0
  6
BYLAYER
 62
    7
 10
17.64198380645022
 20
37.86305444374224
 30
0
  0
VERTEX
  5
AE
  8
0
  6
BYLAYER
 62
    7
 10
17.58976859021879
 20
37.85139317664688
 30
0
  0
VERTEX
  5
AF
  8
0
  6
BYLAYER
 62
    7
 10
17.53669820573669
 20
37.84099742619428
 30
0
  0
VERTEX
  5
B0
  8
0
  6
BYLAYER
 62
    7
 10
17.48274596463358
 20
37.83185627893904
 30
0
  0
VERTEX
  5
B1
  8
0
  6
BYLAYER
 62
    7
 10
17.42788517853912
 20
37.8239588214357
 30
0
  0
VERTEX
  5
B2
  8
0
  6
BYLAYER
 62
    7
 10
17.37208915908302
 20
37.81729414023896
 30
0
  0
VERTEX
  5
B3
  8
0
  6
BYLAYER
 62
    7
 10
17.31533121789496
 20
37.81185132190342
 30
0
  0
VERTEX
  5
B4
  8
0
  6
BYLAYER
 62
    7
 10
17.25758466660458
 20
37.80761945298363
 30
0
  0
VERTEX
  5
B5
  8
0
  6
BYLAYER
 62
    7
 10
17.19882281684158
 20
37.8045876200342
 30
0
  0
VERTEX
  5
B6
  8
0
  6
BYLAYER
 62
    7
 10
17.13901898023564
 20
37.80274490960979
 30
0
  0
VERTEX
  5
B7
  8
0
  6
BYLAYER
 62
    7
 10
17.07814646841642
 20
37.80208040826497
 30
0
  0
SEQEND
  5
B8
  8
0
  6
BYLAYER
 62
    7
  0
POLYLINE
  5
B9
  8
0
  6
BYLAYER
 62
    7
 66
    1
 10
0
 20
0
 30
0
 70
    0
  0
VERTEX
  5
BA
  8
0
  6
BYLAYER
 62
    7
 10
17.07814646841642
 20
37.80208040826497
 30
0
  0
VERTEX
  5
BB
  8
0
  6
BYLAYER
 62
    7
 10
17.03600363097636
 20
37.8021260505891
 30
0
  0
VERTEX
  5
BC
  8
0
  6
BYLAYER
 62
    7
 10
16.99567059966366
 20
37.80239096937833
 30
0
  0
VERTEX
  5
BD
  8
0
  6
BYLAYER
 62
    7
 10
16.95704113073592
 20
37.80289878245284
 30
0
  0
VERTEX
  5
BE
  8
0
  6
BYLAYER
 62
    7
 10
16.92000898045077
 20
37.80367310763286
 30
0
  0
VERTEX
  5
BF
  8
0
  6
BYLAYER
 62
    7
 10
16.88446790506578
 20
37.80473756273859
 30
0
  0
VERTEX
  5
C0
  8
0
  6
BYLAYER
 62
    7
 10
16.85031166083856
 20
37.80611576559017
 30
0
  0
VERTEX
  5
C1
  8
0
  6
BYLAYER
 62
    7
 10
16.81743400402674
 20
37.80783133400783
 30
0
  0
VERTEX
  5
C2
  8
0
  6
BYLAYER
 62
    7
 10
16.78572869088786
 20
37.80990788581174
 30
0
  0
VERTEX
  5
C3
  8
0
  6
BYLAYER
 62
    7
 10
16.75508947767954
 20
37.8123690388221
 30
0
  0
VERTEX
  5
C4
  8
0
  6
BYLAYER
 62
    7
 10
16.72541012065938
 20
37.8152384108591
 30
0
  0
VERTEX
  5
C5
  8
0
  6
BYLAYER
 62
    7
 10
16.69658437608501
 20
37.81853961974301
 30
0
  0
VERTEX
  5
C6
  8
0
  6
BYLAYER
 62
    7
 10
16.66850600021399
 20
37.82229628329387
 30
0
  0
VERTEX
  5
C7
  8
0
  6
BYLAYER
 62
    7
 10
16.64106874930393
 20
37.82653201933201
 30
0
  0
VERTEX
  5
C8
  8
0
  6
BYLAYER
 62
    7
 10
16.61416637961245
 20
37.8312704456775
 30
0
  0
VERTEX
  5
C9
  8
0
  6
BYLAYER
 62
    7
 10
16.58769264739711
 20
37.83653518015068
 30
0
  0
VERTEX
  5
CA
  8
0
  6
BYLAYER
 62
    7
 10
16.56154130891553
 20
37.84234984057159
 30
0
  0
VERTEX
  5
CB
  8
0
  6
BYLAYER
 62
    7
 10
16.53560612042531
 20
37.84873804476056
 30
0
  0
VERTEX
  5
CC
  8
0
  6
BYLAYER
 62
    7
 10
16.50978083818404
 20
37.85572341053767
 30
0
  0
VERTEX
  5
CD
  8
0
  6
BYLAYER
 62
    7
 10
16.48395921844933
 20
37.86332955572314
 30
0
  0
VERTEX
  5
CE
  8
0
  6
BYLAYER
 62
    7
 10
16.45803501747877
 20
37.87158009813721
 30
0
  0
VERTEX
  5
CF
  8
0
  6
BYLAYER
 62
    7
 10
16.43190199152997
 20
37.88049865560006
 30
0
  0
VERTEX
  5
D0
  8
0
  6
BYLAYER
 62
    7
 10
16.40545389686051
 20
37.89010884593184
 30
0
  0
VERTEX
  5
D1
  8
0
  6
BYLAYER
 62
    7
 10
16.37858448972801
 20
37.90043428695277
 30
0
  0
VERTEX
  5
D2
  8
0
  6
BYLAYER
 62
    7
 10
16.35118752639004
 20
37.91149859648304
 30
0
  0
VERTEX
  5
D3
  8
0
  6
BYLAYER
 62
    7
 10
16.32315676310423
 20
37.92332539234284
 30
0
  0
VERTEX
  5
D4
  8
0
  6
BYLAYER
 62
    7
 10
16.29438595612817
 20
37.93593829235239
 30
0
  0
VERTEX
  5
D5
  8
0
  6
BYLAYER
 62
    7
 10
16.26476886171945
 20
37.94936091433186
 30
0
  0
VERTEX
  5
D6
  8
0
  6
BYLAYER
 62
    7
 10
16.23419923613567
 20
37.96361687610143
 30
0
  0
VERTEX
  5
D7
  8
0
  6
BYLAYER
 62
    7
 10
16.20257083563443
 20
37.97872979548129
 30
0
  0
VERTEX
  5
D8
  8
0
  6
BYLAYER
 62
    7
 10
16.16977741647334
 20
37.99472329029165
 30
0
  0
VERTEX
  5
D9
  8
0
  6
BYLAYER
 62
    7
 10
16.13571273490998
 20
38.0116209783527
 30
0
  0
SEQEND
  5
DA
  8
0
  6
BYLAYER
 62
    7
  0
POLYLINE
  5
DB
  8
0
  6
BYLAYER
 62
    7
 66
    1
 10
0
 20
0
 30
0
 70
    0
  0
VERTEX
  5
DC
  8
0
  6
BYLAYER
 62
    7
 10
16.13571273490998
 20
38.0116209783527
 30
0
  0
VERTEX
  5
DD
  8
0
  6
BYLAYER
 62
    7
 10
16.11320039633934
 20
38.02304721274012
 30
0
  0
VERTEX
  5
DE
  8
0
  6
BYLAYER
 62
    7
 10
16.09047287687482
 20
38.03492839185945
 30
0
  0
VERTEX
  5
DF
  8
0
  6
BYLAYER
 62
    7
 10
16.06757289014345
 20
38.04723423047049
 30
0
  0
VERTEX
  5
E0
  8
0
  6
BYLAYER
 62
    7
 10
16.04454314977225
 20
38.05993444333303
 30
0
  0
VERTEX
  5
E1
  8
0
  6
BYLAYER
 62
    7
 10
16.02142636938827
 20
38.07299874520685
 30
0
  0
VERTEX
  5
E2
  8
0
  6
BYLAYER
 62
    7
 10
15.99826526261854
 20
38.08639685085177
 30
0
  0
VERTEX
  5
E3
  8
0
  6
BYLAYER
 62
    7
 10
15.9751025430901
 20
38.10009847502759
 30
0
  0
VERTEX
  5
E4
  8
0
  6
BYLAYER
 62
    7
 10
15.95198092442998
 20
38.11407333249405
 30
0
  0
VERTEX
  5
E5
  8
0
  6
BYLAYER
 62
    7
 10
15.92894312026522
 20
38.12829113801101
 30
0
  0
VERTEX
  5
E6
  8
0
  6
BYLAYER
 62
    7
 10
15.90603184422286
 20
38.14272160633821
 30
0
  0
VERTEX
  5
E7
  8
0
  6
BYLAYER
 62
    7
 10
15.88328980992992
 20
38.15733445223544
 30
0
  0
VERTEX
  5
E8
  8
0
  6
BYLAYER
 62
    7
 10
15.86075973101344
 20
38.17209939046251
 30
0
  0
VERTEX
  5
E9
  8
0
  6
BYLAYER
 62
    7
 10
15.83848432110046
 20
38.18698613577926
 30
0
  0
VERTEX
  5
EA
  8
0
  6
BYLAYER
 62
    7
 10
15.81650629381802
 20
38.20196440294541
 30
0
  0
VERTEX
  5
EB
  8
0
  6
BYLAYER
 62
    7
 10
15.79486836279315
 20
38.21700390672076
 30
0
  0
VERTEX
  5
EC
  8
0
  6
BYLAYER
 62
    7
 10
15.77361324165289
 20
38.23207436186514
 30
0
  0
VERTEX
  5
ED
  8
0
  6
BYLAYER
 62
    7
 10
15.75278364402425
 20
38.24714548313833
 30
0
  0
VERTEX
  5
EE
  8
0
  6
BYLAYER
 62
    7
 10
15.7324222835343
 20
38.26218698530012
 30
0
  0
VERTEX
  5
EF
  8
0
  6
BYLAYER
 62
    7
 10
15.71257187381005
 20
38.27716858311022
 30
0
  0
VERTEX
  5
F0
  8
0
  6
BYLAYER
 62
    7
 10
15.69327512847855
 20
38.29205999132861
 30
0
  0
VERTEX
  5
F1
  8
0
  6
BYLAYER
 62
    7
 10
15.67457476116683
 20
38.30683092471494
 30
0
  0
VERTEX
  5
F2
  8
0
  6
BYLAYER
 62
    7
 10
15.65651348550193
 20
38.32145109802903
 30
0
  0
VERTEX
  5
F3
  8
0
  6
BYLAYER
 62
    7
 10
15.63913401511087
 20
38.33589022603068
 30
0
  0
VERTEX
  5
F4
  8
0
  6
BYLAYER
 62
    7
 10
15.6224790636207
 20
38.35011802347967
 30
0
  0
VERTEX
  5
F5
  8
0
  6
BYLAYER
 62
    7
 10
15.60659134465845
 20
38.36410420513582
 30
0
  0
VERTEX
  5
F6
  8
0
  6
BYLAYER
 62
    7
 10
15.59151357185116
 20
38.37781848575889
 30
0
  0
VERTEX
  5
F7
  8
0
  6
BYLAYER
 62
    7
 10
15.57728845882586
 20
38.3912305801087
 30
0
  0
VERTEX
  5
F8
  8
0
  6
BYLAYER
 62
    7
 10
15.56395871920959
 20
38.40431020294503
 30
0
  0
VERTEX
  5
F9
  8
0
  6
BYLAYER
 62
    7
 10
15.55156706662937
 20
38.41702706902767
 30
0
  0
VERTEX
  5
FA
  8
0
  6
BYLAYER
 62
    7
 10
15.54015621471226
 20
38.42935089311641
 30
0
  0
VERTEX
  5
FB
  8
0
  6
BYLAYER
 62
    7
 10
15.52976887708528
 20
38.44125138997105
 30
0
  0
SEQEND
  5
FC
  8
0
  6
BYLAYER
 62
    7
  0
POLYLINE
  5
FD
  8
0
  6
BYLAYER
 62
    7
 66
    1
 10
0
 20
0
 30
0
 70
    0
  0
VERTEX
  5
FE
  8
0
  6
BYLAYER
 62
    7
 10
15.52976887708528
 20
38.44125138997105
 30
0
  0
VERTEX
  5
FF
  8
0
  6
BYLAYER
 62
    7
 10
15.50508509706568
 20
38.47129433848669
 30
0
  0
VERTEX
  5
100
  8
0
  6
BYLAYER
 62
    7
 10
15.48047839200939
 20
38.50283122396542
 30
0
  0
VERTEX
  5
101
  8
0
  6
BYLAYER
 62
    7
 10
15.45599823562987
 20
38.53575175158728
 30
0
  0
VERTEX
  5
102
  8
0
  6
BYLAYER
 62
    7
 10
15.43169410164061
 20
38.56994562653226
 30
0
  0
VERTEX
  5
103
  8
0
  6
BYLAYER
 62
    7
 10
15.40761546375505
 20
38.60530255398033
 30
0
  0
VERTEX
  5
104
  8
0
  6
BYLAYER
 62
    7
 10
15.38381179568668
 20
38.64171223911156
 30
0
  0
VERTEX
  5
105
  8
0
  6
BYLAYER
 62
    7
 10
15.36033257114897
 20
38.67906438710583
 30
0
  0
VERTEX
  5
106
  8
0
  6
BYLAYER
 62
    7
 10
15.33722726385539
 20
38.71724870314328
 30
0
  0
VERTEX
  5
107
  8
0
  6
BYLAYER
 62
    7
 10
15.31454534751939
 20
38.75615489240374
 30
0
  0
VERTEX
  5
108
  8
0
  6
BYLAYER
 62
    7
 10
15.29233629585447
 20
38.79567266006734
 30
0
  0
VERTEX
  5
109
  8
0
  6
BYLAYER
 62
    7
 10
15.27064958257408
 20
38.83569171131407
 30
0
  0
VERTEX
  5
10A
  8
0
  6
BYLAYER
 62
    7
 10
15.24953468139169
 20
38.87610175132385
 30
0
  0
VERTEX
  5
10B
  8
0
  6
BYLAYER
 62
    7
 10
15.22904106602078
 20
38.91679248527671
 30
0
  0
VERTEX
  5
10C
  8
0
  6
BYLAYER
 62
    7
 10
15.20921821017481
 20
38.95765361835267
 30
0
  0
VERTEX
  5
10D
  8
0
  6
BYLAYER
 62
    7
 10
15.19011558756726
 20
38.99857485573173
 30
0
  0
VERTEX
  5
10E
  8
0
  6
BYLAYER
 62
    7
 10
15.17178267191159
 20
39.03944590259385
 30
0
  0
VERTEX
  5
10F
  8
0
  6
BYLAYER
 62
    7
 10
15.15426893692128
 20
39.08015646411905
 30
0
  0
VERTEX
  5
110
  8
0
  6
BYLAYER
 62
    7
 10
15.13762385630979
 20
39.12059624548732
 30
0
  0
VERTEX
  5
111
  8
0
  6
BYLAYER
 62
    7
 10
15.12189690379059
 20
39.16065495187863
 30
0
  0
VERTEX
  5
112
  8
0
  6
BYLAYER
 62
    7
 10
15.10713755307716
 20
39.20022228847304
 30
0
  0
VERTEX
  5
113
  8
0
  6
BYLAYER
 62
    7
 10
15.09339527788296
 20
39.23918796045049
 30
0
  0
VERTEX
  5
114
  8
0
  6
BYLAYER
 62
    7
 10
15.08071955192146
 20
39.27744167299102
 30
0
  0
VERTEX
  5
115
  8
0
  6
BYLAYER
 62
    7
 10
15.06915984890614
 20
39.31487313127459
 30
0
  0
VERTEX
  5
116
  8
0
  6
BYLAYER
 62
    7
 10
15.05876564255047
 20
39.35137204048119
 30
0
  0
VERTEX
  5
117
  8
0
  6
BYLAYER
 62
    7
 10
15.0495864065679
 20
39.38682810579086
 30
0
  0
VERTEX
  5
118
  8
0
  6
BYLAYER
 62
    7
 10
15.04167161467191
 20
39.42113103238358
 30
0
  0
VERTEX
  5
119
  8
0
  6
BYLAYER
 62
    7
 10
15.03507074057599
 20
39.45417052543937
 30
0
  0
VERTEX
  5
11A
  8
0
  6
BYLAYER
 62
    7
 10
15.02983325799357
 20
39.48583629013817
 30
0
  0
VERTEX
  5
11B
  8
0
  6
BYLAYER
 62
    7
 10
15.02600864063816
 20
39.51601803165998
 30
0
  0
VERTEX
  5
11C
  8
0
  6
BYLAYER
 62
    7
 10
15.02364636222321
 20
39.54460545518486
 30
0
  0
VERTEX
  5
11D
  8
0
  6
BYLAYER
 62
    7
 10
15.02279589646219
 20
39.57148826589276
 30
0
  0
SEQEND
  5
11E
  8
0
  6
BYLAYER
 62
    7
  0
POLYLINE
  5
11F
  8
0
  6
BYLAYER
 62
    7
 66
    1
 10
0
 20
0
 30
0
 70
    0
  0
VERTEX
  5
120
  8
0
  6
BYLAYER
 62
    7
 10
15.02279589646219
 20
39.57148826589276
 30
0
  0
VERTEX
  5
121
  8
0
  6
BYLAYER
 62
    7
 10
15.02264832559791
 20
39.58784587497
 30
0
  0
VERTEX
  5
122
  8
0
  6
BYLAYER
 62
    7
 10
15.02231223145207
 20
39.60345314864487
 30
0
  0
VERTEX
  5
123
  8
0
  6
BYLAYER
 62
    7
 10
15.02177910107614
 20
39.61832459811566
 30
0
  0
VERTEX
  5
124
  8
0
  6
BYLAYER
 62
    7
 10
15.02104042152159
 20
39.63247473458068
 30
0
  0
VERTEX
  5
125
  8
0
  6
BYLAYER
 62
    7
 10
15.02008767983989
 20
39.64591806923819
 30
0
  0
VERTEX
  5
126
  8
0
  6
BYLAYER
 62
    7
 10
15.01891236308251
 20
39.65866911328651
 30
0
  0
VERTEX
  5
127
  8
0
  6
BYLAYER
 62
    7
 10
15.0175059583009
 20
39.67074237792386
 30
0
  0
VERTEX
  5
128
  8
0
  6
BYLAYER
 62
    7
 10
15.01585995254655
 20
39.68215237434861
 30
0
  0
VERTEX
  5
129
  8
0
  6
BYLAYER
 62
    7
 10
15.01396583287091
 20
39.69291361375896
 30
0
  0
VERTEX
  5
12A
  8
0
  6
BYLAYER
 62
    7
 10
15.01181508632547
 20
39.70304060735319
 30
0
  0
VERTEX
  5
12B
  8
0
  6
BYLAYER
 62
    7
 10
15.00939919996168
 20
39.71254786632971
 30
0
  0
VERTEX
  5
12C
  8
0
  6
BYLAYER
 62
    7
 10
15.006709660831
 20
39.72144990188665
 30
0
  0
VERTEX
  5
12D
  8
0
  6
BYLAYER
 62
    7
 10
15.00373795598492
 20
39.72976122522235
 30
0
  0
VERTEX
  5
12E
  8
0
  6
BYLAYER
 62
    7
 10
15.00047557247489
 20
39.73749634753511
 30
0
  0
VERTEX
  5
12F
  8
0
  6
BYLAYER
 62
    7
 10
14.99691399735239
 20
39.74466978002323
 30
0
  0
VERTEX
  5
130
  8
0
  6
BYLAYER
 62
    7
 10
14.99304471766889
 20
39.75129603388496
 30
0
  0
VERTEX
  5
131
  8
0
  6
BYLAYER
 62
    7
 10
14.98885922047584
 20
39.75738962031857
 30
0
  0
VERTEX
  5
132
  8
0
  6
BYLAYER
 62
    7
 10
14.98434899282473
 20
39.7629650505224
 30
0
  0
VERTEX
  5
133
  8
0
  6
BYLAYER
 62
    7
 10
14.97950552176701
 20
39.76803683569467
 30
0
  0
VERTEX
  5
134
  8
0
  6
BYLAYER
 62
    7
 10
14.97432029435416
 20
39.77261948703368
 30
0
  0
VERTEX
  5
135
  8
0
  6
BYLAYER
 62
    7
 10
14.96878479763764
 20
39.77672751573775
 30
0
  0
VERTEX
  5
136
  8
0
  6
BYLAYER
 62
    7
 10
14.96289051866891
 20
39.78037543300511
 30
0
  0
VERTEX
  5
137
  8
0
  6
BYLAYER
 62
    7
 10
14.95662894449946
 20
39.78357775003407
 30
0
  0
VERTEX
  5
138
  8
0
  6
BYLAYER
 62
    7
 10
14.94999156218074
 20
39.78634897802292
 30
0
  0
VERTEX
  5
139
  8
0
  6
BYLAYER
 62
    7
 10
14.94296985876423
 20
39.78870362816996
 30
0
  0
VERTEX
  5
13A
  8
0
  6
BYLAYER
 62
    7
 10
14.93555532130139
 20
39.79065621167339
 30
0
  0
VERTEX
  5
13B
  8
0
  6
BYLAYER
 62
    7
 10
14.92773943684368
 20
39.79222123973162
 30
0
  0
VERTEX
  5
13C
  8
0
  6
BYLAYER
 62
    7
 10
14.91951369244259
 20
39.79341322354286
 30
0
  0
VERTEX
  5
13D
  8
0
  6
BYLAYER
 62
    7
 10
14.91086957514957
 20
39.79424667430538
 30
0
  0
VERTEX
  5
13E
  8
0
  6
BYLAYER
 62
    7
 10
14.90179857201609
 20
39.79473610321747
 30
0
  0
VERTEX
  5
13F
  8
0
  6
BYLAYER
 62
    7
 10
14.89229217009363
 20
39.79489602147745
 30
0
  0
SEQEND
  5
140
  8
0
  6
BYLAYER
 62
    7
  0
POLYLINE
  5
141
  8
0
  6
BYLAYER
 62
    7
 66
    1
 10
0
 20
0
 30
0
 70
    0
  0
VERTEX
  5
142
  8
0
  6
BYLAYER
 62
    7
 10
14.89229217009363
 20
39.79489602147745
 30
0
  0
VERTEX
  5
143
  8
0
  6
BYLAYER
 62
    7
 10
14.88317715036182
 20
39.79468302367327
 30
0
  0
VERTEX
  5
144
  8
0
  6
BYLAYER
 62
    7
 10
14.87436199901641
 20
39.79403666466209
 30
0
  0
VERTEX
  5
145
  8
0
  6
BYLAYER
 62
    7
 10
14.86583911716571
 20
39.792945896046
 30
0
  0
VERTEX
  5
146
  8
0
  6
BYLAYER
 62
    7
 10
14.85760090591804
 20
39.79139966942709
 30
0
  0
VERTEX
  5
147
  8
0
  6
BYLAYER
 62
    7
 10
14.8496397663817
 20
39.78938693640743
 30
0
  0
VERTEX
  5
148
  8
0
  6
BYLAYER
 62
    7
 10
14.84194809966506
 20
39.78689664858912
 30
0
  0
VERTEX
  5
149
  8
0
  6
BYLAYER
 62
    7
 10
14.83451830687639
 20
39.78391775757422
 30
0
  0
VERTEX
  5
14A
  8
0
  6
BYLAYER
 62
    7
 10
14.82734278912404
 20
39.78043921496481
 30
0
  0
VERTEX
  5
14B
  8
0
  6
BYLAYER
 62
    7
 10
14.82041394751632
 20
39.77644997236297
 30
0
  0
VERTEX
  5
14C
  8
0
  6
BYLAYER
 62
    7
 10
14.81372418316156
 20
39.77193898137077
 30
0
  0
VERTEX
  5
14D
  8
0
  6
BYLAYER
 62
    7
 10
14.80726589716807
 20
39.76689519359036
 30
0
  0
VERTEX
  5
14E
  8
0
  6
BYLAYER
 62
    7
 10
14.80103149064418
 20
39.76130756062375
 30
0
  0
VERTEX
  5
14F
  8
0
  6
BYLAYER
 62
    7
 10
14.7950133646982
 20
39.75516503407301
 30
0
  0
VERTEX
  5
150
  8
0
  6
BYLAYER
 62
    7
 10
14.78920392043845
 20
39.74845656554025
 30
0
  0
VERTEX
  5
151
  8
0
  6
BYLAYER
 62
    7
 10
14.78359555897327
 20
39.74117110662758
 30
0
  0
VERTEX
  5
152
  8
0
  6
BYLAYER
 62
    7
 10
14.77818068141095
 20
39.73329760893704
 30
0
  0
VERTEX
  5
153
  8
0
  6
BYLAYER
 62
    7
 10
14.77295168885984
 20
39.7248250240707
 30
0
  0
VERTEX
  5
154
  8
0
  6
BYLAYER
 62
    7
 10
14.76790098242824
 20
39.71574230363065
 30
0
  0
VERTEX
  5
155
  8
0
  6
BYLAYER
 62
    7
 10
14.76302096322449
 20
39.70603839921903
 30
0
  0
VERTEX
  5
156
  8
0
  6
BYLAYER
 62
    7
 10
14.75830403235689
 20
39.69570226243783
 30
0
  0
VERTEX
  5
157
  8
0
  6
BYLAYER
 62
    7
 10
14.75374259093377
 20
39.68472284488919
 30
0
  0
VERTEX
  5
158
  8
0
  6
BYLAYER
 62
    7
 10
14.74932904006346
 20
39.67308909817518
 30
0
  0
VERTEX
  5
159
  8
0
  6
BYLAYER
 62
    7
 10
14.74505578085426
 20
39.66078997389785
 30
0
  0
VERTEX
  5
15A
  8
0
  6
BYLAYER
 62
    7
 10
14.74091521441451
 20
39.64781442365929
 30
0
  0
VERTEX
  5
15B
  8
0
  6
BYLAYER
 62
    7
 10
14.73689974185251
 20
39.63415139906161
 30
0
  0
VERTEX
  5
15C
  8
0
  6
BYLAYER
 62
    7
 10
14.7330017642766
 20
39.61978985170688
 30
0
  0
VERTEX
  5
15D
  8
0
  6
BYLAYER
 62
    7
 10
14.7292136827951
 20
39.6047187331972
 30
0
  0
VERTEX
  5
15E
  8
0
  6
BYLAYER
 62
    7
 10
14.72552789851632
 20
39.58892699513459
 30
0
  0
VERTEX
  5
15F
  8
0
  6
BYLAYER
 62
    7
 10
14.72193681254858
 20
39.57240358912118
 30
0
  0
VERTEX
  5
160
  8
0
  6
BYLAYER
 62
    7
 10
14.71843282600021
 20
39.55513746675902
 30
0
  0
VERTEX
  5
161
  8
0
  6
BYLAYER
 62
    7
 10
14.71500833997952
 20
39.53711757965024
 30
0
  0
SEQEND
  5
162
  8
0
  6
BYLAYER
 62
    7
  0
POLYLINE
  5
163
  8
0
  6
BYLAYER
 62
    7
 66
    1
 10
0
 20
0
 30
0
 70
    0
  0
VERTEX
  5
164
  8
0
  6
BYLAYER
 62
    7
 10
14.71500833997952
 20
39.53711757965024
 30
0
  0
VERTEX
  5
165
  8
0
  6
BYLAYER
 62
    7
 10
14.70265998092322
 20
39.47463227470583
 30
0
  0
VERTEX
  5
166
  8
0
  6
BYLAYER
 62
    7
 10
14.68876967840045
 20
39.41293598493176
 30
0
  0
VERTEX
  5
167
  8
0
  6
BYLAYER
 62
    7
 10
14.67334635983227
 20
39.35204145517391
 30
0
  0
VERTEX
  5
168
  8
0
  6
BYLAYER
 62
    7
 10
14.65639895263973
 20
39.29196143027812
 30
0
  0
VERTEX
  5
169
  8
0
  6
BYLAYER
 62
    7
 10
14.63793638424387
 20
39.23270865509021
 30
0
  0
VERTEX
  5
16A
  8
0
  6
BYLAYER
 62
    7
 10
14.61796758206573
 20
39.17429587445603
 30
0
  0
VERTEX
  5
16B
  8
0
  6
BYLAYER
 62
    7
 10
14.59650147352635
 20
39.11673583322142
 30
0
  0
VERTEX
  5
16C
  8
0
  6
BYLAYER
 62
    7
 10
14.5735469860468
 20
39.06004127623223
 30
0
  0
VERTEX
  5
16D
  8
0
  6
BYLAYER
 62
    7
 10
14.5491130470481
 20
39.00422494833426
 30
0
  0
VERTEX
  5
16E
  8
0
  6
BYLAYER
 62
    7
 10
14.52320858395131
 20
38.94929959437337
 30
0
  0
VERTEX
  5
16F
  8
0
  6
BYLAYER
 62
    7
 10
14.49584252417749
 20
38.89527795919542
 30
0
  0
VERTEX
  5
170
  8
0
  6
BYLAYER
 62
    7
 10
14.46702379514766
 20
38.8421727876462
 30
0
  0
VERTEX
  5
171
  8
0
  6
BYLAYER
 62
    7
 10
14.43676132428287
 20
38.78999682457164
 30
0
  0
VERTEX
  5
172
  8
0
  6
BYLAYER
 62
    7
 10
14.40506403900418
 20
38.73876281481746
 30
0
  0
VERTEX
  5
173
  8
0
  6
BYLAYER
 62
    7
 10
14.37194086673262
 20
38.68848350322956
 30
0
  0
VERTEX
  5
174
  8
0
  6
BYLAYER
 62
    7
 10
14.33740073488925
 20
38.63917163465381
 30
0
  0
VERTEX
  5
175
  8
0
  6
BYLAYER
 62
    7
 10
14.30145257089511
 20
38.590839953936
 30
0
  0
VERTEX
  5
176
  8
0
  6
BYLAYER
 62
    7
 10
14.26410530217125
 20
38.54350120592198
 30
0
  0
VERTEX
  5
177
  8
0
  6
BYLAYER
 62
    7
 10
14.2253678561387
 20
38.49716813545761
 30
0
  0
VERTEX
  5
178
  8
0
  6
BYLAYER
 62
    7
 10
14.18524916021852
 20
38.45185348738869
 30
0
  0
VERTEX
  5
179
  8
0
  6
BYLAYER
 62
    7
 10
14.14375814183176
 20
38.40757000656107
 30
0
  0
VERTEX
  5
17A
  8
0
  6
BYLAYER
 62
    7
 10
14.10090372839946
 20
38.36433043782066
 30
0
  0
VERTEX
  5
17B
  8
0
  6
BYLAYER
 62
    7
 10
14.05669484734266
 20
38.32214752601317
 30
0
  0
VERTEX
  5
17C
  8
0
  6
BYLAYER
 62
    7
 10
14.01114042608241
 20
38.28103401598454
 30
0
  0
VERTEX
  5
17D
  8
0
  6
BYLAYER
 62
    7
 10
13.96424939203976
 20
38.24100265258059
 30
0
  0
VERTEX
  5
17E
  8
0
  6
BYLAYER
 62
    7
 10
13.91603067263575
 20
38.20206618064711
 30
0
  0
VERTEX
  5
17F
  8
0
  6
BYLAYER
 62
    7
 10
13.86649319529144
 20
38.16423734503
 30
0
  0
VERTEX
  5
180
  8
0
  6
BYLAYER
 62
    7
 10
13.81564588742785
 20
38.12752889057508
 30
0
  0
VERTEX
  5
181
  8
0
  6
BYLAYER
 62
    7
 10
13.76349767646605
 20
38.09195356212815
 30
0
  0
VERTEX
  5
182
  8
0
  6
BYLAYER
 62
    7
 10
13.71005748982707
 20
38.05752410453509
 30
0
  0
VERTEX
  5
183
  8
0
  6
BYLAYER
 62
    7
 10
13.65533425493197
 20
38.02425326264175
 30
0
  0
SEQEND
  5
184
  8
0
  6
BYLAYER
 62
    7
  0
POLYLINE
  5
185
  8
0
  6
BYLAYER
 62
    7
 66
    1
 10
0
 20
0
 30
0
 70
    0
  0
VERTEX
  5
186
  8
0
  6
BYLAYER
 62
    7
 10
13.65533425493197
 20
38.02425326264175
 30
0
  0
VERTEX
  5
187
  8
0
  6
BYLAYER
 62
    7
 10
13.61557191119466
 20
38.00206038978637
 30
0
  0
VERTEX
  5
188
  8
0
  6
BYLAYER
 62
    7
 10
13.57342028951108
 20
37.98097601824843
 30
0
  0
VERTEX
  5
189
  8
0
  6
BYLAYER
 62
    7
 10
13.52902071313694
 20
37.96101055148908
 30
0
  0
VERTEX
  5
18A
  8
0
  6
BYLAYER
 62
    7
 10
13.4825145053279
 20
37.94217439296953
 30
0
  0
VERTEX
  5
18B
  8
0
  6
BYLAYER
 62
    7
 10
13.43404298933967
 20
37.92447794615108
 30
0
  0
VERTEX
  5
18C
  8
0
  6
BYLAYER
 62
    7
 10
13.38374748842793
 20
37.90793161449489
 30
0
  0
VERTEX
  5
18D
  8
0
  6
BYLAYER
 62
    7
 10
13.33176932584836
 20
37.89254580146222
 30
0
  0
VERTEX
  5
18E
  8
0
  6
BYLAYER
 62
    7
 10
13.27824982485667
 20
37.87833091051434
 30
0
  0
VERTEX
  5
18F
  8
0
  6
BYLAYER
 62
    7
 10
13.22333030870852
 20
37.86529734511235
 30
0
  0
VERTEX
  5
190
  8
0
  6
BYLAYER
 62
    7
 10
13.16715210065961
 20
37.85345550871756
 30
0
  0
VERTEX
  5
191
  8
0
  6
BYLAYER
 62
    7
 10
13.10985652396564
 20
37.84281580479121
 30
0
  0
VERTEX
  5
192
  8
0
  6
BYLAYER
 62
    7
 10
13.05158490188228
 20
37.83338863679447
 30
0
  0
VERTEX
  5
193
  8
0
  6
BYLAYER
 62
    7
 10
12.99247855766522
 20
37.82518440818858
 30
0
  0
VERTEX
  5
194
  8
0
  6
BYLAYER
 62
    7
 10
12.93267881457015
 20
37.8182135224348
 30
0
  0
VERTEX
  5
195
  8
0
  6
BYLAYER
 62
    7
 10
12.87232699585276
 20
37.81248638299429
 30
0
  0
VERTEX
  5
196
  8
0
  6
BYLAYER
 62
    7
 10
12.81156442476873
 20
37.80801339332831
 30
0
  0
VERTEX
  5
197
  8
0
  6
BYLAYER
 62
    7
 10
12.75053242457376
 20
37.8048049568981
 30
0
  0
VERTEX
  5
198
  8
0
  6
BYLAYER
 62
    7
 10
12.68937231852353
 20
37.80287147716486
 30
0
  0
VERTEX
  5
199
  8
0
  6
BYLAYER
 62
    7
 10
12.62822542987373
 20
37.80222335758984
 30
0
  0
VERTEX
  5
19A
  8
0
  6
BYLAYER
 62
    7
 10
12.56723308188004
 20
37.80287100163423
 30
0
  0
VERTEX
  5
19B
  8
0
  6
BYLAYER
 62
    7
 10
12.50653659779816
 20
37.80482481275929
 30
0
  0
VERTEX
  5
19C
  8
0
  6
BYLAYER
 62
    7
 10
12.44627730088376
 20
37.8080951944262
 30
0
  0
VERTEX
  5
19D
  8
0
  6
BYLAYER
 62
    7
 10
12.38659651439255
 20
37.81269255009622
 30
0
  0
VERTEX
  5
19E
  8
0
  6
BYLAYER
 62
    7
 10
12.32763556158019
 20
37.81862728323056
 30
0
  0
VERTEX
  5
19F
  8
0
  6
BYLAYER
 62
    7
 10
12.2695357657024
 20
37.82590979729045
 30
0
  0
VERTEX
  5
1A0
  8
0
  6
BYLAYER
 62
    7
 10
12.21243845001485
 20
37.83455049573708
 30
0
  0
VERTEX
  5
1A1
  8
0
  6
BYLAYER
 62
    7
 10
12.15648493777322
 20
37.84455978203176
 30
0
  0
VERTEX
  5
1A2
  8
0
  6
BYLAYER
 62
    7
 10
12.10181655223321
 20
37.85594805963562
 30
0
  0
VERTEX
  5
1A3
  8
0
  6
BYLAYER
 62
    7
 10
12.04857461665051
 20
37.86872573200994
 30
0
  0
VERTEX
  5
1A4
  8
0
  6
BYLAYER
 62
    7
 10
11.99690045428079
 20
37.88290320261594
 30
0
  0
VERTEX
  5
1A5
  8
0
  6
BYLAYER
 62
    7
 10
11.94693538837976
 20
37.8984908749148
 30
0
  0
SEQEND
  5
1A6
  8
0
  6
BYLAYER
 62
    7
  0
POLYLINE
  5
1A7
  8
0
  6
BYLAYER
 62
    7
 66
    1
 10
0
 20
0
 30
0
 70
    0
  0
VERTEX
  5
1A8
  8
0
  6
BYLAYER
 62
    7
 10
11.94693538837976
 20
37.8984908749148
 30
0
  0
VERTEX
  5
1A9
  8
0
  6
BYLAYER
 62
    7
 10
11.88429686370493
 20
37.92063590567739
 30
0
  0
VERTEX
  5
1AA
  8
0
  6
BYLAYER
 62
    7
 10
11.82251361486018
 20
37.94515003488755
 30
0
  0
VERTEX
  5
1AB
  8
0
  6
BYLAYER
 62
    7
 10
11.76163387081691
 20
37.97197741098819
 30
0
  0
VERTEX
  5
1AC
  8
0
  6
BYLAYER
 62
    7
 10
11.70170586054656
 20
38.00106218242236
 30
0
  0
VERTEX
  5
1AD
  8
0
  6
BYLAYER
 62
    7
 10
11.64277781302055
 20
38.03234849763289
 30
0
  0
VERTEX
  5
1AE
  8
0
  6
BYLAYER
 62
    7
 10
11.58489795721029
 20
38.06578050506282
 30
0
  0
VERTEX
  5
1AF
  8
0
  6
BYLAYER
 62
    7
 10
11.52811452208721
 20
38.10130235315504
 30
0
  0
VERTEX
  5
1B0
  8
0
  6
BYLAYER
 62
    7
 10
11.47247573662273
 20
38.13885819035254
 30
0
  0
VERTEX
  5
1B1
  8
0
  6
BYLAYER
 62
    7
 10
11.41802982978827
 20
38.1783921650982
 30
0
  0
VERTEX
  5
1B2
  8
0
  6
BYLAYER
 62
    7
 10
11.36482503055526
 20
38.21984842583496
 30
0
  0
VERTEX
  5
1B3
  8
0
  6
BYLAYER
 62
    7
 10
11.31290956789512
 20
38.26317112100589
 30
0
  0
VERTEX
  5
1B4
  8
0
  6
BYLAYER
 62
    7
 10
11.26233167077925
 20
38.3083043990538
 30
0
  0
VERTEX
  5
1B5
  8
0
  6
BYLAYER
 62
    7
 10
11.21313956817911
 20
38.35519240842166
 30
0
  0
VERTEX
  5
1B6
  8
0
  6
BYLAYER
 62
    7
 10
11.16538148906609
 20
38.40377929755245
 30
0
  0
VERTEX
  5
1B7
  8
0
  6
BYLAYER
 62
    7
 10
11.11910566241162
 20
38.45400921488908
 30
0
  0
VERTEX
  5
1B8
  8
0
  6
BYLAYER
 62
    7
 10
11.07436031718713
 20
38.50582630887452
 30
0
  0
VERTEX
  5
1B9
  8
0
  6
BYLAYER
 62
    7
 10
11.03119368236403
 20
38.55917472795173
 30
0
  0
VERTEX
  5
1BA
  8
0
  6
BYLAYER
 62
    7
 10
10.98965398691375
 20
38.61399862056361
 30
0
  0
VERTEX
  5
1BB
  8
0
  6
BYLAYER
 62
    7
 10
10.94978945980771
 20
38.67024213515309
 30
0
  0
VERTEX
  5
1BC
  8
0
  6
BYLAYER
 62
    7
 10
10.91164833001733
 20
38.72784942016319
 30
0
  0
VERTEX
  5
1BD
  8
0
  6
BYLAYER
 62
    7
 10
10.87527882651404
 20
38.78676462403678
 30
0
  0
VERTEX
  5
1BE
  8
0
  6
BYLAYER
 62
    7
 10
10.84072917826925
 20
38.84693189521685
 30
0
  0
VERTEX
  5
1BF
  8
0
  6
BYLAYER
 62
    7
 10
10.80804761425439
 20
38.90829538214634
 30
0
  0
VERTEX
  5
1C0
  8
0
  6
BYLAYER
 62
    7
 10
10.77728236344088
 20
38.97079923326819
 30
0
  0
VERTEX
  5
1C1
  8
0
  6
BYLAYER
 62
    7
 10
10.74848165480014
 20
39.03438759702529
 30
0
  0
VERTEX
  5
1C2
  8
0
  6
BYLAYER
 62
    7
 10
10.72169371730359
 20
39.09900462186064
 30
0
  0
VERTEX
  5
1C3
  8
0
  6
BYLAYER
 62
    7
 10
10.69696677992265
 20
39.16459445621722
 30
0
  0
VERTEX
  5
1C4
  8
0
  6
BYLAYER
 62
    7
 10
10.67434907162875
 20
39.23110124853788
 30
0
  0
VERTEX
  5
1C5
  8
0
  6
BYLAYER
 62
    7
 10
10.65388882139331
 20
39.29846914726564
 30
0
  0
VERTEX
  5
1C6
  8
0
  6
BYLAYER
 62
    7
 10
10.63563425818775
 20
39.3666423008434
 30
0
  0
VERTEX
  5
1C7
  8
0
  6
BYLAYER
 62
    7
 10
10.61963361098349
 20
39.43556485771413
 30
0
  0
SEQEND
  5
1C8
  8
0
  6
BYLAYER
 62
    7
  0
POLYLINE
  5
1C9
  8
0
  6
BYLAYER
 62
    7
 66
    1
 10
0
 20
0
 30
0
 70
    0
  0
VERTEX
  5
1CA
  8
0
  6
BYLAYER
 62
    7
 10
38.72816042883807
 20
39.40584124842339
 30
0
  0
VERTEX
  5
1CB
  8
0
  6
BYLAYER
 62
    7
 10
38.65002698720569
 20
39.79489529076667
 30
0
  0
VERTEX
  5
1CC
  8
0
  6
BYLAYER
 62
    7
 10
38.33299740085465
 20
39.79578456577851
 30
0
  0
VERTEX
  5
1CD
  8
0
  6
BYLAYER
 62
    7
 10
38.01596781450361
 20
39.79667408436061
 30
0
  0
VERTEX
  5
1CE
  8
0
  6
BYLAYER
 62
    7
 10
37.6811166795175
 20
40.31134364156527
 30
0
  0
VERTEX
  5
1CF
  8
0
  6
BYLAYER
 62
    7
 10
37.34626505739087
 20
40.82601271162942
 30
0
  0
VERTEX
  5
1D0
  8
0
  6
BYLAYER
 62
    7
 10
28.98538810703408
 20
40.82365397725126
 30
0
  0
VERTEX
  5
1D1
  8
0
  6
BYLAYER
 62
    7
 10
20.62451066953676
 20
40.82129524287307
 30
0
  0
VERTEX
  5
1D2
  8
0
  6
BYLAYER
 62
    7
 10
20.39043478022329
 20
40.30809563217525
 30
0
  0
VERTEX
  5
1D3
  8
0
  6
BYLAYER
 62
    7
 10
20.15635913448008
 20
39.79489602147745
 30
0
  0
VERTEX
  5
1D4
  8
0
  6
BYLAYER
 62
    7
 10
19.6514694102734
 20
39.79489602147745
 30
0
  0
SEQEND
  5
1D5
  8
0
  6
BYLAYER
 62
    7
  0
POLYLINE
  5
1D6
  8
0
  6
BYLAYER
 62
    7
 66
    1
 10
0
 20
0
 30
0
 70
    0
  0
VERTEX
  5
1D7
  8
0
  6
BYLAYER
 62
    7
 10
8.171863099291089
 20
40.832678255309
 30
0
  0
VERTEX
  5
1D8
  8
0
  6
BYLAYER
 62
    7
 10
8.121174060455775
 20
40.83491782912564
 30
0
  0
VERTEX
  5
1D9
  8
0
  6
BYLAYER
 62
    7
 10
8.070487391163105
 20
40.8372636033684
 30
0
  0
VERTEX
  5
1DA
  8
0
  6
BYLAYER
 62
    7
 10
8.019887146968678
 20
40.83970921858959
 30
0
  0
VERTEX
  5
1DB
  8
0
  6
BYLAYER
 62
    7
 10
7.969457383428087
 20
40.8422483153416
 30
0
  0
VERTEX
  5
1DC
  8
0
  6
BYLAYER
 62
    7
 10
7.91928215609692
 20
40.84487453417677
 30
0
  0
VERTEX
  5
1DD
  8
0
  6
BYLAYER
 62
    7
 10
7.869445520530785
 20
40.84758151564743
 30
0
  0
VERTEX
  5
1DE
  8
0
  6
BYLAYER
 62
    7
 10
7.820031532285258
 20
40.85036290030594
 30
0
  0
VERTEX
  5
1DF
  8
0
  6
BYLAYER
 62
    7
 10
7.771124246915946
 20
40.85321232870459
 30
0
  0
VERTEX
  5
1E0
  8
0
  6
BYLAYER
 62
    7
 10
7.722807719978434
 20
40.85612344139573
 30
0
  0
VERTEX
  5
1E1
  8
0
  6
BYLAYER
 62
    7
 10
7.675166007028321
 20
40.85908987893179
 30
0
  0
VERTEX
  5
1E2
  8
0
  6
BYLAYER
 62
    7
 10
7.628283163621198
 20
40.86210528186503
 30
0
  0
VERTEX
  5
1E3
  8
0
  6
BYLAYER
 62
    7
 10
7.582243245312661
 20
40.86516329074779
 30
0
  0
VERTEX
  5
1E4
  8
0
  6
BYLAYER
 62
    7
 10
7.537130307658302
 20
40.86825754613242
 30
0
  0
VERTEX
  5
1E5
  8
0
  6
BYLAYER
 62
    7
 10
7.493028406213715
 20
40.87138168857131
 30
0
  0
VERTEX
  5
1E6
  8
0
  6
BYLAYER
 62
    7
 10
7.450021596534493
 20
40.87452935861674
 30
0
  0
VERTEX
  5
1E7
  8
0
  6
BYLAYER
 62
    7
 10
7.40819393417623
 20
40.87769419682108
 30
0
  0
VERTEX
  5
1E8
  8
0
  6
BYLAYER
 62
    7
 10
7.36762947469452
 20
40.88086984373667
 30
0
  0
VERTEX
  5
1E9
  8
0
  6
BYLAYER
 62
    7
 10
7.328412273644957
 20
40.88404993991585
 30
0
  0
VERTEX
  5
1EA
  8
0
  6
BYLAYER
 62
    7
 10
7.290626386583131
 20
40.88722812591094
 30
0
  0
VERTEX
  5
1EB
  8
0
  6
BYLAYER
 62
    7
 10
7.254355869064645
 20
40.89039804227431
 30
0
  0
VERTEX
  5
1EC
  8
0
  6
BYLAYER
 62
    7
 10
7.219684776645083
 20
40.89355332955829
 30
0
  0
VERTEX
  5
1ED
  8
0
  6
BYLAYER
 62
    7
 10
7.186697164880041
 20
40.89668762831522
 30
0
  0
VERTEX
  5
1EE
  8
0
  6
BYLAYER
 62
    7
 10
7.155477089325116
 20
40.89979457909745
 30
0
  0
VERTEX
  5
1EF
  8
0
  6
BYLAYER
 62
    7
 10
7.1261086055359
 20
40.90286782245734
 30
0
  0
VERTEX
  5
1F0
  8
0
  6
BYLAYER
 62
    7
 10
7.098675769067984
 20
40.90590099894715
 30
0
  0
VERTEX
  5
1F1
  8
0
  6
BYLAYER
 62
    7
 10
7.073262635476962
 20
40.90888774911934
 30
0
  0
VERTEX
  5
1F2
  8
0
  6
BYLAYER
 62
    7
 10
7.049953260318436
 20
40.91182171352619
 30
0
  0
VERTEX
  5
1F3
  8
0
  6
BYLAYER
 62
    7
 10
7.02883169914799
 20
40.91469653272001
 30
0
  0
VERTEX
  5
1F4
  8
0
  6
BYLAYER
 62
    7
 10
7.009982007521218
 20
40.9175058472532
 30
0
  0
VERTEX
  5
1F5
  8
0
  6
BYLAYER
 62
    7
 10
6.99348824099372
 20
40.92024329767804
 30
0
  0
VERTEX
  5
1F6
  8
0
  6
BYLAYER
 62
    7
 10
6.979434455121083
 20
40.92290252454692
 30
0
  0
SEQEND
  5
1F7
  8
0
  6
BYLAYER
 62
    7
  0
POLYLINE
  5
1F8
  8
0
  6
BYLAYER
 62
    7
 66
    1
 10
0
 20
0
 30
0
 70
    0
  0
VERTEX
  5
1F9
  8
0
  6
BYLAYER
 62
    7
 10
6.979434455121083
 20
40.92290252454692
 30
0
  0
VERTEX
  5
1FA
  8
0
  6
BYLAYER
 62
    7
 10
6.946687870045889
 20
40.92977619560669
 30
0
  0
VERTEX
  5
1FB
  8
0
  6
BYLAYER
 62
    7
 10
6.914373502490599
 20
40.93691372558857
 30
0
  0
VERTEX
  5
1FC
  8
0
  6
BYLAYER
 62
    7
 10
6.882534844009232
 20
40.94429717758015
 30
0
  0
VERTEX
  5
1FD
  8
0
  6
BYLAYER
 62
    7
 10
6.85121538615581
 20
40.95190861466903
 30
0
  0
VERTEX
  5
1FE
  8
0
  6
BYLAYER
 62
    7
 10
6.820458620484362
 20
40.9597300999427
 30
0
  0
VERTEX
  5
1FF
  8
0
  6
BYLAYER
 62
    7
 10
6.790308038548912
 20
40.96774369648868
 30
0
  0
VERTEX
  5
200
  8
0
  6
BYLAYER
 62
    7
 10
6.760807131903478
 20
40.97593146739455
 30
0
  0
VERTEX
  5
201
  8
0
  6
BYLAYER
 62
    7
 10
6.73199939210209
 20
40.98427547574786
 30
0
  0
VERTEX
  5
202
  8
0
  6
BYLAYER
 62
    7
 10
6.703928310698762
 20
40.99275778463613
 30
0
  0
VERTEX
  5
203
  8
0
  6
BYLAYER
 62
    7
 10
6.676637379247526
 20
41.0013604571469
 30
0
  0
VERTEX
  5
204
  8
0
  6
BYLAYER
 62
    7
 10
6.650170089302404
 20
41.01006555636776
 30
0
  0
VERTEX
  5
205
  8
0
  6
BYLAYER
 62
    7
 10
6.624569932417417
 20
41.01885514538623
 30
0
  0
VERTEX
  5
206
  8
0
  6
BYLAYER
 62
    7
 10
6.599880400146588
 20
41.02771128728977
 30
0
  0
VERTEX
  5
207
  8
0
  6
BYLAYER
 62
    7
 10
6.576144984043943
 20
41.03661604516603
 30
0
  0
VERTEX
  5
208
  8
0
  6
BYLAYER
 62
    7
 10
6.553407175663503
 20
41.04555148210252
 30
0
  0
VERTEX
  5
209
  8
0
  6
BYLAYER
 62
    7
 10
6.531710466559291
 20
41.05449966118677
 30
0
  0
VERTEX
  5
20A
  8
0
  6
BYLAYER
 62
    7
 10
6.511098348285334
 20
41.06344264550635
 30
0
  0
VERTEX
  5
20B
  8
0
  6
BYLAYER
 62
    7
 10
6.491614312395653
 20
41.0723624981488
 30
0
  0
VERTEX
  5
20C
  8
0
  6
BYLAYER
 62
    7
 10
6.473301850444272
 20
41.0812412822016
 30
0
  0
VERTEX
  5
20D
  8
0
  6
BYLAYER
 62
    7
 10
6.456204453985212
 20
41.09006106075238
 30
0
  0
VERTEX
  5
20E
  8
0
  6
BYLAYER
 62
    7
 10
6.440365614572498
 20
41.09880389688864
 30
0
  0
VERTEX
  5
20F
  8
0
  6
BYLAYER
 62
    7
 10
6.425828823760154
 20
41.10745185369791
 30
0
  0
VERTEX
  5
210
  8
0
  6
BYLAYER
 62
    7
 10
6.412637573102205
 20
41.11598699426775
 30
0
  0
VERTEX
  5
211
  8
0
  6
BYLAYER
 62
    7
 10
6.400835354152671
 20
41.1243913816857
 30
0
  0
VERTEX
  5
212
  8
0
  6
BYLAYER
 62
    7
 10
6.390465658465574
 20
41.13264707903932
 30
0
  0
VERTEX
  5
213
  8
0
  6
BYLAYER
 62
    7
 10
6.381571977594944
 20
41.14073614941615
 30
0
  0
VERTEX
  5
214
  8
0
  6
BYLAYER
 62
    7
 10
6.3741978030948
 20
41.1486406559037
 30
0
  0
VERTEX
  5
215
  8
0
  6
BYLAYER
 62
    7
 10
6.368386626519166
 20
41.15634266158954
 30
0
  0
VERTEX
  5
216
  8
0
  6
BYLAYER
 62
    7
 10
6.364181939422064
 20
41.1638242295612
 30
0
  0
VERTEX
  5
217
  8
0
  6
BYLAYER
 62
    7
 10
6.36162723335752
 20
41.17106742290627
 30
0
  0
VERTEX
  5
218
  8
0
  6
BYLAYER
 62
    7
 10
6.360765999879554
 20
41.17805430471222
 30
0
  0
SEQEND
  5
219
  8
0
  6
BYLAYER
 62
    7
  0
POLYLINE
  5
21A
  8
0
  6
BYLAYER
 62
    7
 66
    1
 10
0
 20
0
 30
0
 70
    0
  0
VERTEX
  5
21B
  8
0
  6
BYLAYER
 62
    7
 10
6.360765999879554
 20
41.17805430471222
 30
0
  0
VERTEX
  5
21C
  8
0
  6
BYLAYER
 62
    7
 10
6.360287206119247
 20
41.18124963273583
 30
0
  0
VERTEX
  5
21D
  8
0
  6
BYLAYER
 62
    7
 10
6.358866976920663
 20
41.18440299479197
 30
0
  0
VERTEX
  5
21E
  8
0
  6
BYLAYER
 62
    7
 10
6.356529540407278
 20
41.18751013293466
 30
0
  0
VERTEX
  5
21F
  8
0
  6
BYLAYER
 62
    7
 10
6.353299124702589
 20
41.19056678921804
 30
0
  0
VERTEX
  5
220
  8
0
  6
BYLAYER
 62
    7
 10
6.349199957930077
 20
41.19356870569607
 30
0
  0
VERTEX
  5
221
  8
0
  6
BYLAYER
 62
    7
 10
6.344256268213236
 20
41.19651162442288
 30
0
  0
VERTEX
  5
222
  8
0
  6
BYLAYER
 62
    7
 10
6.338492283675549
 20
41.19939128745256
 30
0
  0
VERTEX
  5
223
  8
0
  6
BYLAYER
 62
    7
 10
6.331932232440507
 20
41.20220343683903
 30
0
  0
VERTEX
  5
224
  8
0
  6
BYLAYER
 62
    7
 10
6.324600342631597
 20
41.20494381463646
 30
0
  0
VERTEX
  5
225
  8
0
  6
BYLAYER
 62
    7
 10
6.316520842372302
 20
41.20760816289889
 30
0
  0
VERTEX
  5
226
  8
0
  6
BYLAYER
 62
    7
 10
6.307717959786123
 20
41.21019222368039
 30
0
  0
VERTEX
  5
227
  8
0
  6
BYLAYER
 62
    7
 10
6.298215922996537
 20
41.21269173903506
 30
0
  0
VERTEX
  5
228
  8
0
  6
BYLAYER
 62
    7
 10
6.288038960127032
 20
41.21510245101683
 30
0
  0
VERTEX
  5
229
  8
0
  6
BYLAYER
 62
    7
 10
6.277211299301101
 20
41.21742010167988
 30
0
  0
VERTEX
  5
22A
  8
0
  6
BYLAYER
 62
    7
 10
6.26575716864223
 20
41.21964043307816
 30
0
  0
VERTEX
  5
22B
  8
0
  6
BYLAYER
 62
    7
 10
6.253700796273902
 20
41.22175918726587
 30
0
  0
VERTEX
  5
22C
  8
0
  6
BYLAYER
 62
    7
 10
6.241066410319615
 20
41.22377210629696
 30
0
  0
VERTEX
  5
22D
  8
0
  6
BYLAYER
 62
    7
 10
6.227878238902846
 20
41.22567493222553
 30
0
  0
VERTEX
  5
22E
  8
0
  6
BYLAYER
 62
    7
 10
6.214160510147093
 20
41.22746340710565
 30
0
  0
VERTEX
  5
22F
  8
0
  6
BYLAYER
 62
    7
 10
6.19993745217584
 20
41.22913327299133
 30
0
  0
VERTEX
  5
230
  8
0
  6
BYLAYER
 62
    7
 10
6.185233293112572
 20
41.23068027193671
 30
0
  0
VERTEX
  5
231
  8
0
  6
BYLAYER
 62
    7
 10
6.170072261080775
 20
41.23210014599577
 30
0
  0
VERTEX
  5
232
  8
0
  6
BYLAYER
 62
    7
 10
6.154478584203946
 20
41.23338863722263
 30
0
  0
VERTEX
  5
233
  8
0
  6
BYLAYER
 62
    7
 10
6.138476490605565
 20
41.23454148767131
 30
0
  0
VERTEX
  5
234
  8
0
  6
BYLAYER
 62
    7
 10
6.122090208409126
 20
41.23555443939589
 30
0
  0
VERTEX
  5
235
  8
0
  6
BYLAYER
 62
    7
 10
6.105343965738109
 20
41.23642323445041
 30
0
  0
VERTEX
  5
236
  8
0
  6
BYLAYER
 62
    7
 10
6.08826199071601
 20
41.23714361488896
 30
0
  0
VERTEX
  5
237
  8
0
  6
BYLAYER
 62
    7
 10
6.070868511466314
 20
41.23771132276558
 30
0
  0
VERTEX
  5
238
  8
0
  6
BYLAYER
 62
    7
 10
6.053187756112503
 20
41.23812210013431
 30
0
  0
VERTEX
  5
239
  8
0
  6
BYLAYER
 62
    7
 10
6.035243952778074
 20
41.23837168904923
 30
0
  0
VERTEX
  5
23A
  8
0
  6
BYLAYER
 62
    7
 10
6.017061329586511
 20
41.23845583156443
 30
0
  0
SEQEND
  5
23B
  8
0
  6
BYLAYER
 62
    7
  0
POLYLINE
  5
23C
  8
0
  6
BYLAYER
 62
    7
 66
    1
 10
0
 20
0
 30
0
 70
    0
  0
VERTEX
  5
23D
  8
0
  6
BYLAYER
 62
    7
 10
6.017061329586511
 20
41.23845583156443
 30
0
  0
VERTEX
  5
23E
  8
0
  6
BYLAYER
 62
    7
 10
5.98901439792367
 20
41.23851582555736
 30
0
  0
VERTEX
  5
23F
  8
0
  6
BYLAYER
 62
    7
 10
5.962499606561977
 20
41.23870688322541
 30
0
  0
VERTEX
  5
240
  8
0
  6
BYLAYER
 62
    7
 10
5.937475421568442
 20
41.23904561810259
 30
0
  0
VERTEX
  5
241
  8
0
  6
BYLAYER
 62
    7
 10
5.913900309010075
 20
41.23954864372279
 30
0
  0
VERTEX
  5
242
  8
0
  6
BYLAYER
 62
    7
 10
5.891732734953893
 20
41.24023257362
 30
0
  0
VERTEX
  5
243
  8
0
  6
BYLAYER
 62
    7
 10
5.870931165466912
 20
41.24111402132815
 30
0
  0
VERTEX
  5
244
  8
0
  6
BYLAYER
 62
    7
 10
5.851454066616133
 20
41.2422096003812
 30
0
  0
VERTEX
  5
245
  8
0
  6
BYLAYER
 62
    7
 10
5.833259904468581
 20
41.24353592431311
 30
0
  0
VERTEX
  5
246
  8
0
  6
BYLAYER
 62
    7
 10
5.816307145091259
 20
41.24510960665777
 30
0
  0
VERTEX
  5
247
  8
0
  6
BYLAYER
 62
    7
 10
5.800554254551191
 20
41.24694726094921
 30
0
  0
VERTEX
  5
248
  8
0
  6
BYLAYER
 62
    7
 10
5.785959698915382
 20
41.2490655007214
 30
0
  0
VERTEX
  5
249
  8
0
  6
BYLAYER
 62
    7
 10
5.772481944250845
 20
41.25148093950814
 30
0
  0
VERTEX
  5
24A
  8
0
  6
BYLAYER
 62
    7
 10
5.760079456624593
 20
41.25421019084352
 30
0
  0
VERTEX
  5
24B
  8
0
  6
BYLAYER
 62
    7
 10
5.748710702103644
 20
41.25726986826147
 30
0
  0
VERTEX
  5
24C
  8
0
  6
BYLAYER
 62
    7
 10
5.738334146754999
 20
41.2606765852959
 30
0
  0
VERTEX
  5
24D
  8
0
  6
BYLAYER
 62
    7
 10
5.728908256645682
 20
41.26444695548078
 30
0
  0
VERTEX
  5
24E
  8
0
  6
BYLAYER
 62
    7
 10
5.720391497842704
 20
41.26859759235005
 30
0
  0
VERTEX
  5
24F
  8
0
  6
BYLAYER
 62
    7
 10
5.712742336413075
 20
41.2731451094377
 30
0
  0
VERTEX
  5
250
  8
0
  6
BYLAYER
 62
    7
 10
5.705919238423803
 20
41.27810612027761
 30
0
  0
VERTEX
  5
251
  8
0
  6
BYLAYER
 62
    7
 10
5.69988066994191
 20
41.28349723840383
 30
0
  0
VERTEX
  5
252
  8
0
  6
BYLAYER
 62
    7
 10
5.694585097034404
 20
41.28933507735018
 30
0
  0
VERTEX
  5
253
  8
0
  6
BYLAYER
 62
    7
 10
5.689990985768299
 20
41.29563625065072
 30
0
  0
VERTEX
  5
254
  8
0
  6
BYLAYER
 62
    7
 10
5.686056802210605
 20
41.30241737183935
 30
0
  0
VERTEX
  5
255
  8
0
  6
BYLAYER
 62
    7
 10
5.682741012428338
 20
41.30969505445003
 30
0
  0
VERTEX
  5
256
  8
0
  6
BYLAYER
 62
    7
 10
5.680002082488511
 20
41.31748591201672
 30
0
  0
VERTEX
  5
257
  8
0
  6
BYLAYER
 62
    7
 10
5.677798478458134
 20
41.32580655807335
 30
0
  0
VERTEX
  5
258
  8
0
  6
BYLAYER
 62
    7
 10
5.676088666404222
 20
41.3346736061539
 30
0
  0
VERTEX
  5
259
  8
0
  6
BYLAYER
 62
    7
 10
5.674831112393786
 20
41.34410366979228
 30
0
  0
VERTEX
  5
25A
  8
0
  6
BYLAYER
 62
    7
 10
5.673984282493839
 20
41.35411336252246
 30
0
  0
VERTEX
  5
25B
  8
0
  6
BYLAYER
 62
    7
 10
5.673506642771397
 20
41.36471929787841
 30
0
  0
VERTEX
  5
25C
  8
0
  6
BYLAYER
 62
    7
 10
5.673356659293468
 20
41.37593808939405
 30
0
  0
SEQEND
  5
25D
  8
0
  6
BYLAYER
 62
    7
  0
POLYLINE
  5
25E
  8
0
  6
BYLAYER
 62
    7
 66
    1
 10
0
 20
0
 30
0
 70
    0
  0
VERTEX
  5
25F
  8
0
  6
BYLAYER
 62
    7
 10
5.673356659293468
 20
41.37593808939405
 30
0
  0
VERTEX
  5
260
  8
0
  6
BYLAYER
 62
    7
 10
5.673212444418707
 20
41.38549546151008
 30
0
  0
VERTEX
  5
261
  8
0
  6
BYLAYER
 62
    7
 10
5.672775184918431
 20
41.39465780344943
 30
0
  0
VERTEX
  5
262
  8
0
  6
BYLAYER
 62
    7
 10
5.672037958478644
 20
41.40343065292589
 30
0
  0
VERTEX
  5
263
  8
0
  6
BYLAYER
 62
    7
 10
5.670993842785371
 20
41.41181954765334
 30
0
  0
VERTEX
  5
264
  8
0
  6
BYLAYER
 62
    7
 10
5.669635915524608
 20
41.41983002534557
 30
0
  0
VERTEX
  5
265
  8
0
  6
BYLAYER
 62
    7
 10
5.66795725438238
 20
41.42746762371649
 30
0
  0
VERTEX
  5
266
  8
0
  6
BYLAYER
 62
    7
 10
5.665950937044692
 20
41.43473788047982
 30
0
  0
VERTEX
  5
267
  8
0
  6
BYLAYER
 62
    7
 10
5.663610041197552
 20
41.44164633334952
 30
0
  0
VERTEX
  5
268
  8
0
  6
BYLAYER
 62
    7
 10
5.66092764452698
 20
41.44819852003931
 30
0
  0
VERTEX
  5
269
  8
0
  6
BYLAYER
 62
    7
 10
5.657896824718978
 20
41.45439997826309
 30
0
  0
VERTEX
  5
26A
  8
0
  6
BYLAYER
 62
    7
 10
5.65451065945957
 20
41.46025624573475
 30
0
  0
VERTEX
  5
26B
  8
0
  6
BYLAYER
 62
    7
 10
5.650762226434756
 20
41.46577286016798
 30
0
  0
VERTEX
  5
26C
  8
0
  6
BYLAYER
 62
    7
 10
5.64664460333055
 20
41.47095535927672
 30
0
  0
VERTEX
  5
26D
  8
0
  6
BYLAYER
 62
    7
 10
5.642150867832965
 20
41.47580928077477
 30
0
  0
VERTEX
  5
26E
  8
0
  6
BYLAYER
 62
    7
 10
5.637274097628013
 20
41.48034016237597
 30
0
  0
VERTEX
  5
26F
  8
0
  6
BYLAYER
 62
    7
 10
5.632007370401707
 20
41.48455354179416
 30
0
  0
VERTEX
  5
270
  8
0
  6
BYLAYER
 62
    7
 10
5.626343763840053
 20
41.48845495674319
 30
0
  0
VERTEX
  5
271
  8
0
  6
BYLAYER
 62
    7
 10
5.620276355629065
 20
41.49204994493689
 30
0
  0
VERTEX
  5
272
  8
0
  6
BYLAYER
 62
    7
 10
5.613798223454757
 20
41.49534404408899
 30
0
  0
VERTEX
  5
273
  8
0
  6
BYLAYER
 62
    7
 10
5.606902445003136
 20
41.49834279191348
 30
0
  0
VERTEX
  5
274
  8
0
  6
BYLAYER
 62
    7
 10
5.599582097960219
 20
41.50105172612415
 30
0
  0
VERTEX
  5
275
  8
0
  6
BYLAYER
 62
    7
 10
5.591830260012012
 20
41.50347638443477
 30
0
  0
VERTEX
  5
276
  8
0
  6
BYLAYER
 62
    7
 10
5.583640008844528
 20
41.50562230455924
 30
0
  0
VERTEX
  5
277
  8
0
  6
BYLAYER
 62
    7
 10
5.575004422143779
 20
41.50749502421137
 30
0
  0
VERTEX
  5
278
  8
0
  6
BYLAYER
 62
    7
 10
5.565916577595775
 20
41.50910008110499
 30
0
  0
VERTEX
  5
279
  8
0
  6
BYLAYER
 62
    7
 10
5.55636955288653
 20
41.51044301295394
 30
0
  0
VERTEX
  5
27A
  8
0
  6
BYLAYER
 62
    7
 10
5.546356425702055
 20
41.51152935747206
 30
0
  0
VERTEX
  5
27B
  8
0
  6
BYLAYER
 62
    7
 10
5.535870273728364
 20
41.51236465237318
 30
0
  0
VERTEX
  5
27C
  8
0
  6
BYLAYER
 62
    7
 10
5.524904174651457
 20
41.51295443537116
 30
0
  0
VERTEX
  5
27D
  8
0
  6
BYLAYER
 62
    7
 10
5.513451206157359
 20
41.51330424417979
 30
0
  0
VERTEX
  5
27E
  8
0
  6
BYLAYER
 62
    7
 10
5.501504445932074
 20
41.51341961651293
 30
0
  0
SEQEND
  5
27F
  8
0
  6
BYLAYER
 62
    7
  0
POLYLINE
  5
280
  8
0
  6
BYLAYER
 62
    7
 66
    1
 10
0
 20
0
 30
0
 70
    0
  0
VERTEX
  5
281
  8
0
  6
BYLAYER
 62
    7
 10
5.501504445932074
 20
41.51341961651293
 30
0
  0
VERTEX
  5
282
  8
0
  6
BYLAYER
 62
    7
 10
5.489557662887664
 20
41.51330424417979
 30
0
  0
VERTEX
  5
283
  8
0
  6
BYLAYER
 62
    7
 10
5.478104673046113
 20
41.51295443537116
 30
0
  0
VERTEX
  5
284
  8
0
  6
BYLAYER
 62
    7
 10
5.467138554044377
 20
41.51236465237317
 30
0
  0
VERTEX
  5
285
  8
0
  6
BYLAYER
 62
    7
 10
5.456652383519412
 20
41.51152935747206
 30
0
  0
VERTEX
  5
286
  8
0
  6
BYLAYER
 62
    7
 10
5.446639239108171
 20
41.51044301295394
 30
0
  0
VERTEX
  5
287
  8
0
  6
BYLAYER
 62
    7
 10
5.437092198447615
 20
41.50910008110496
 30
0
  0
VERTEX
  5
288
  8
0
  6
BYLAYER
 62
    7
 10
5.428004339174692
 20
41.50749502421136
 30
0
  0
VERTEX
  5
289
  8
0
  6
BYLAYER
 62
    7
 10
5.419368738926366
 20
41.50562230455924
 30
0
  0
VERTEX
  5
28A
  8
0
  6
BYLAYER
 62
    7
 10
5.411178475339586
 20
41.50347638443473
 30
0
  0
VERTEX
  5
28B
  8
0
  6
BYLAYER
 62
    7
 10
5.403426626051313
 20
41.5010517261241
 30
0
  0
VERTEX
  5
28C
  8
0
  6
BYLAYER
 62
    7
 10
5.3961062686985
 20
41.4983427919135
 30
0
  0
VERTEX
  5
28D
  8
0
  6
BYLAYER
 62
    7
 10
5.389210480918099
 20
41.49534404408899
 30
0
  0
VERTEX
  5
28E
  8
0
  6
BYLAYER
 62
    7
 10
5.382732340347073
 20
41.49204994493684
 30
0
  0
VERTEX
  5
28F
  8
0
  6
BYLAYER
 62
    7
 10
5.376664924622369
 20
41.48845495674316
 30
0
  0
VERTEX
  5
290
  8
0
  6
BYLAYER
 62
    7
 10
5.37100131138095
 20
41.48455354179419
 30
0
  0
VERTEX
  5
291
  8
0
  6
BYLAYER
 62
    7
 10
5.365734578259771
 20
41.48034016237597
 30
0
  0
VERTEX
  5
292
  8
0
  6
BYLAYER
 62
    7
 10
5.360857802895783
 20
41.47580928077477
 30
0
  0
VERTEX
  5
293
  8
0
  6
BYLAYER
 62
    7
 10
5.356364062925943
 20
41.47095535927672
 30
0
  0
VERTEX
  5
294
  8
0
  6
BYLAYER
 62
    7
 10
5.352246435987212
 20
41.46577286016798
 30
0
  0
VERTEX
  5
295
  8
0
  6
BYLAYER
 62
    7
 10
5.348497999716536
 20
41.46025624573472
 30
0
  0
VERTEX
  5
296
  8
0
  6
BYLAYER
 62
    7
 10
5.345111831750881
 20
41.45439997826311
 30
0
  0
VERTEX
  5
297
  8
0
  6
BYLAYER
 62
    7
 10
5.342081009727194
 20
41.44819852003933
 30
0
  0
VERTEX
  5
298
  8
0
  6
BYLAYER
 62
    7
 10
5.339398611282435
 20
41.4416463333495
 30
0
  0
VERTEX
  5
299
  8
0
  6
BYLAYER
 62
    7
 10
5.337057714053562
 20
41.43473788047984
 30
0
  0
VERTEX
  5
29A
  8
0
  6
BYLAYER
 62
    7
 10
5.335051395677519
 20
41.42746762371647
 30
0
  0
VERTEX
  5
29B
  8
0
  6
BYLAYER
 62
    7
 10
5.33337273379128
 20
41.41983002534557
 30
0
  0
VERTEX
  5
29C
  8
0
  6
BYLAYER
 62
    7
 10
5.332014806031788
 20
41.41181954765334
 30
0
  0
VERTEX
  5
29D
  8
0
  6
BYLAYER
 62
    7
 10
5.330970690036001
 20
41.40343065292589
 30
0
  0
VERTEX
  5
29E
  8
0
  6
BYLAYER
 62
    7
 10
5.330233463440871
 20
41.39465780344941
 30
0
  0
VERTEX
  5
29F
  8
0
  6
BYLAYER
 62
    7
 10
5.329796203883363
 20
41.38549546151008
 30
0
  0
VERTEX
  5
2A0
  8
0
  6
BYLAYER
 62
    7
 10
5.329651989000425
 20
41.37593808939405
 30
0
  0
SEQEND
  5
2A1
  8
0
  6
BYLAYER
 62
    7
  0
POLYLINE
  5
2A2
  8
0
  6
BYLAYER
 62
    7
 66
    1
 10
0
 20
0
 30
0
 70
    0
  0
VERTEX
  5
2A3
  8
0
  6
BYLAYER
 62
    7
 10
5.329651989000425
 20
41.37593808939405
 30
0
  0
VERTEX
  5
2A4
  8
0
  6
BYLAYER
 62
    7
 10
5.329510081563659
 20
41.36859577605191
 30
0
  0
VERTEX
  5
2A5
  8
0
  6
BYLAYER
 62
    7
 10
5.329088974129355
 20
41.36135806950897
 30
0
  0
VERTEX
  5
2A6
  8
0
  6
BYLAYER
 62
    7
 10
5.328395589011499
 20
41.35423419941904
 30
0
  0
VERTEX
  5
2A7
  8
0
  6
BYLAYER
 62
    7
 10
5.327436848524084
 20
41.34723339543607
 30
0
  0
VERTEX
  5
2A8
  8
0
  6
BYLAYER
 62
    7
 10
5.326219674981087
 20
41.34036488721387
 30
0
  0
VERTEX
  5
2A9
  8
0
  6
BYLAYER
 62
    7
 10
5.324750990696512
 20
41.33363790440633
 30
0
  0
VERTEX
  5
2AA
  8
0
  6
BYLAYER
 62
    7
 10
5.323037717984339
 20
41.32706167666738
 30
0
  0
VERTEX
  5
2AB
  8
0
  6
BYLAYER
 62
    7
 10
5.321086779158561
 20
41.3206454336508
 30
0
  0
VERTEX
  5
2AC
  8
0
  6
BYLAYER
 62
    7
 10
5.31890509653316
 20
41.3143984050105
 30
0
  0
VERTEX
  5
2AD
  8
0
  6
BYLAYER
 62
    7
 10
5.316499592422129
 20
41.30832982040039
 30
0
  0
VERTEX
  5
2AE
  8
0
  6
BYLAYER
 62
    7
 10
5.313877189139459
 20
41.30244890947428
 30
0
  0
VERTEX
  5
2AF
  8
0
  6
BYLAYER
 62
    7
 10
5.311044808999132
 20
41.29676490188611
 30
0
  0
VERTEX
  5
2B0
  8
0
  6
BYLAYER
 62
    7
 10
5.30800937431514
 20
41.29128702728973
 30
0
  0
VERTEX
  5
2B1
  8
0
  6
BYLAYER
 62
    7
 10
5.304777807401474
 20
41.28602451533901
 30
0
  0
VERTEX
  5
2B2
  8
0
  6
BYLAYER
 62
    7
 10
5.301357030572121
 20
41.28098659568775
 30
0
  0
VERTEX
  5
2B3
  8
0
  6
BYLAYER
 62
    7
 10
5.297753966141066
 20
41.27618249798996
 30
0
  0
VERTEX
  5
2B4
  8
0
  6
BYLAYER
 62
    7
 10
5.293975536422302
 20
41.27162145189942
 30
0
  0
VERTEX
  5
2B5
  8
0
  6
BYLAYER
 62
    7
 10
5.290028663729816
 20
41.26731268707002
 30
0
  0
VERTEX
  5
2B6
  8
0
  6
BYLAYER
 62
    7
 10
5.285920270377597
 20
41.26326543315562
 30
0
  0
VERTEX
  5
2B7
  8
0
  6
BYLAYER
 62
    7
 10
5.28165727867963
 20
41.25948891981015
 30
0
  0
VERTEX
  5
2B8
  8
0
  6
BYLAYER
 62
    7
 10
5.277246610949909
 20
41.25599237668742
 30
0
  0
VERTEX
  5
2B9
  8
0
  6
BYLAYER
 62
    7
 10
5.27269518950242
 20
41.25278503344135
 30
0
  0
VERTEX
  5
2BA
  8
0
  6
BYLAYER
 62
    7
 10
5.268009936651152
 20
41.24987611972578
 30
0
  0
VERTEX
  5
2BB
  8
0
  6
BYLAYER
 62
    7
 10
5.263197774710094
 20
41.2472748651946
 30
0
  0
VERTEX
  5
2BC
  8
0
  6
BYLAYER
 62
    7
 10
5.258265625993234
 20
41.24499049950165
 30
0
  0
VERTEX
  5
2BD
  8
0
  6
BYLAYER
 62
    7
 10
5.25322041281456
 20
41.24303225230087
 30
0
  0
VERTEX
  5
2BE
  8
0
  6
BYLAYER
 62
    7
 10
5.248069057488062
 20
41.24140935324608
 30
0
  0
VERTEX
  5
2BF
  8
0
  6
BYLAYER
 62
    7
 10
5.242818482327726
 20
41.24013103199117
 30
0
  0
VERTEX
  5
2C0
  8
0
  6
BYLAYER
 62
    7
 10
5.237475609647542
 20
41.23920651819
 30
0
  0
VERTEX
  5
2C1
  8
0
  6
BYLAYER
 62
    7
 10
5.232047361761504
 20
41.23864504149647
 30
0
  0
VERTEX
  5
2C2
  8
0
  6
BYLAYER
 62
    7
 10
5.226540660983591
 20
41.23845583156443
 30
0
  0
SEQEND
  5
2C3
  8
0
  6
BYLAYER
 62
    7
  0
POLYLINE
  5
2C4
  8
0
  6
BYLAYER
 62
    7
 66
    1
 10
0
 20
0
 30
0
 70
    0
  0
VERTEX
  5
2C5
  8
0
  6
BYLAYER
 62
    7
 10
5.226540660983591
 20
41.23845583156443
 30
0
  0
VERTEX
  5
2C6
  8
0
  6
BYLAYER
 62
    7
 10
5.218380398407675
 20
41.23893693388284
 30
0
  0
VERTEX
  5
2C7
  8
0
  6
BYLAYER
 62
    7
 10
5.2106464986392
 20
41.24044484900387
 30
0
  0
VERTEX
  5
2C8
  8
0
  6
BYLAYER
 62
    7
 10
5.203328193683239
 20
41.24307648917615
 30
0
  0
VERTEX
  5
2C9
  8
0
  6
BYLAYER
 62
    7
 10
5.196414715544868
 20
41.24692876664835
 30
0
  0
VERTEX
  5
2CA
  8
0
  6
BYLAYER
 62
    7
 10
5.189895296229155
 20
41.25209859366916
 30
0
  0
VERTEX
  5
2CB
  8
0
  6
BYLAYER
 62
    7
 10
5.183759167741188
 20
41.25868288248731
 30
0
  0
VERTEX
  5
2CC
  8
0
  6
BYLAYER
 62
    7
 10
5.177995562086028
 20
41.2667785453514
 30
0
  0
VERTEX
  5
2CD
  8
0
  6
BYLAYER
 62
    7
 10
5.172593711268751
 20
41.27648249451011
 30
0
  0
VERTEX
  5
2CE
  8
0
  6
BYLAYER
 62
    7
 10
5.167542847294431
 20
41.2878916422121
 30
0
  0
VERTEX
  5
2CF
  8
0
  6
BYLAYER
 62
    7
 10
5.16283220216814
 20
41.30110290070613
 30
0
  0
VERTEX
  5
2D0
  8
0
  6
BYLAYER
 62
    7
 10
5.158451007894959
 20
41.3162131822408
 30
0
  0
VERTEX
  5
2D1
  8
0
  6
BYLAYER
 62
    7
 10
5.154388496479952
 20
41.33331939906478
 30
0
  0
VERTEX
  5
2D2
  8
0
  6
BYLAYER
 62
    7
 10
5.150633899928199
 20
41.35251846342675
 30
0
  0
VERTEX
  5
2D3
  8
0
  6
BYLAYER
 62
    7
 10
5.147176450244768
 20
41.37390728757541
 30
0
  0
VERTEX
  5
2D4
  8
0
  6
BYLAYER
 62
    7
 10
5.144005379434738
 20
41.39758278375941
 30
0
  0
VERTEX
  5
2D5
  8
0
  6
BYLAYER
 62
    7
 10
5.141109919503178
 20
41.42364186422743
 30
0
  0
VERTEX
  5
2D6
  8
0
  6
BYLAYER
 62
    7
 10
5.138479302455162
 20
41.4521814412281
 30
0
  0
VERTEX
  5
2D7
  8
0
  6
BYLAYER
 62
    7
 10
5.136102760295771
 20
41.48329842701015
 30
0
  0
VERTEX
  5
2D8
  8
0
  6
BYLAYER
 62
    7
 10
5.133969525030071
 20
41.51708973382224
 30
0
  0
VERTEX
  5
2D9
  8
0
  6
BYLAYER
 62
    7
 10
5.132068828663134
 20
41.55365227391303
 30
0
  0
VERTEX
  5
2DA
  8
0
  6
BYLAYER
 62
    7
 10
5.130389903200044
 20
41.59308295953122
 30
0
  0
VERTEX
  5
2DB
  8
0
  6
BYLAYER
 62
    7
 10
5.128921980645863
 20
41.63547870292543
 30
0
  0
VERTEX
  5
2DC
  8
0
  6
BYLAYER
 62
    7
 10
5.127654293005666
 20
41.68093641634435
 30
0
  0
VERTEX
  5
2DD
  8
0
  6
BYLAYER
 62
    7
 10
5.126576072284536
 20
41.72955301203672
 30
0
  0
VERTEX
  5
2DE
  8
0
  6
BYLAYER
 62
    7
 10
5.125676550487538
 20
41.78142540225114
 30
0
  0
VERTEX
  5
2DF
  8
0
  6
BYLAYER
 62
    7
 10
5.124944959619749
 20
41.83665049923627
 30
0
  0
VERTEX
  5
2E0
  8
0
  6
BYLAYER
 62
    7
 10
5.124370531686242
 20
41.89532521524085
 30
0
  0
VERTEX
  5
2E1
  8
0
  6
BYLAYER
 62
    7
 10
5.123942498692089
 20
41.95754646251351
 30
0
  0
VERTEX
  5
2E2
  8
0
  6
BYLAYER
 62
    7
 10
5.123650092642364
 20
42.0234111533029
 30
0
  0
VERTEX
  5
2E3
  8
0
  6
BYLAYER
 62
    7
 10
5.123482545542142
 20
42.09301619985776
 30
0
  0
VERTEX
  5
2E4
  8
0
  6
BYLAYER
 62
    7
 10
5.123429089396496
 20
42.16645851442672
 30
0
  0
SEQEND
  5
2E5
  8
0
  6
BYLAYER
 62
    7
  0
POLYLINE
  5
2E6
  8
0
  6
BYLAYER
 62
    7
 66
    1
 10
0
 20
0
 30
0
 70
    0
  0
VERTEX
  5
2E7
  8
0
  6
BYLAYER
 62
    7
 10
5.123429089396496
 20
42.16645851442672
 30
0
  0
VERTEX
  5
2E8
  8
0
  6
BYLAYER
 62
    7
 10
5.123482545542142
 20
42.23990085107079
 30
0
  0
VERTEX
  5
2E9
  8
0
  6
BYLAYER
 62
    7
 10
5.123650092642365
 20
42.30950591680647
 30
0
  0
VERTEX
  5
2EA
  8
0
  6
BYLAYER
 62
    7
 10
5.123942498692089
 20
42.37537062402957
 30
0
  0
VERTEX
  5
2EB
  8
0
  6
BYLAYER
 62
    7
 10
5.124370531686243
 20
42.43759188513594
 30
0
  0
VERTEX
  5
2EC
  8
0
  6
BYLAYER
 62
    7
 10
5.124944959619746
 20
42.49626661252147
 30
0
  0
VERTEX
  5
2ED
  8
0
  6
BYLAYER
 62
    7
 10
5.125676550487538
 20
42.55149171858196
 30
0
  0
VERTEX
  5
2EE
  8
0
  6
BYLAYER
 62
    7
 10
5.126576072284536
 20
42.60336411571321
 30
0
  0
VERTEX
  5
2EF
  8
0
  6
BYLAYER
 62
    7
 10
5.12765429300567
 20
42.65198071631114
 30
0
  0
VERTEX
  5
2F0
  8
0
  6
BYLAYER
 62
    7
 10
5.128921980645861
 20
42.69743843277153
 30
0
  0
VERTEX
  5
2F1
  8
0
  6
BYLAYER
 62
    7
 10
5.13038990320004
 20
42.73983417749027
 30
0
  0
VERTEX
  5
2F2
  8
0
  6
BYLAYER
 62
    7
 10
5.132068828663137
 20
42.77926486286319
 30
0
  0
VERTEX
  5
2F3
  8
0
  6
BYLAYER
 62
    7
 10
5.133969525030069
 20
42.8158274012861
 30
0
  0
VERTEX
  5
2F4
  8
0
  6
BYLAYER
 62
    7
 10
5.136102760295767
 20
42.84961870515482
 30
0
  0
VERTEX
  5
2F5
  8
0
  6
BYLAYER
 62
    7
 10
5.138479302455165
 20
42.88073568686524
 30
0
  0
VERTEX
  5
2F6
  8
0
  6
BYLAYER
 62
    7
 10
5.141109919503178
 20
42.90927525881319
 30
0
  0
VERTEX
  5
2F7
  8
0
  6
BYLAYER
 62
    7
 10
5.144005379434735
 20
42.93533433339449
 30
0
  0
VERTEX
  5
2F8
  8
0
  6
BYLAYER
 62
    7
 10
5.147176450244768
 20
42.95900982300503
 30
0
  0
VERTEX
  5
2F9
  8
0
  6
BYLAYER
 62
    7
 10
5.150633899928199
 20
42.98039864004057
 30
0
  0
VERTEX
  5
2FA
  8
0
  6
BYLAYER
 62
    7
 10
5.154388496479952
 20
42.99959769689702
 30
0
  0
VERTEX
  5
2FB
  8
0
  6
BYLAYER
 62
    7
 10
5.158451007894959
 20
43.01670390597018
 30
0
  0
VERTEX
  5
2FC
  8
0
  6
BYLAYER
 62
    7
 10
5.162832202168144
 20
43.0318141796559
 30
0
  0
VERTEX
  5
2FD
  8
0
  6
BYLAYER
 62
    7
 10
5.167542847294434
 20
43.04502543035005
 30
0
  0
VERTEX
  5
2FE
  8
0
  6
BYLAYER
 62
    7
 10
5.172593711268751
 20
43.05643457044842
 30
0
  0
VERTEX
  5
2FF
  8
0
  6
BYLAYER
 62
    7
 10
5.177995562086029
 20
43.06613851234687
 30
0
  0
VERTEX
  5
300
  8
0
  6
BYLAYER
 62
    7
 10
5.183759167741188
 20
43.07423416844125
 30
0
  0
VERTEX
  5
301
  8
0
  6
BYLAYER
 62
    7
 10
5.189895296229159
 20
43.08081845112741
 30
0
  0
VERTEX
  5
302
  8
0
  6
BYLAYER
 62
    7
 10
5.196414715544868
 20
43.08598827280116
 30
0
  0
VERTEX
  5
303
  8
0
  6
BYLAYER
 62
    7
 10
5.203328193683237
 20
43.08984054585837
 30
0
  0
VERTEX
  5
304
  8
0
  6
BYLAYER
 62
    7
 10
5.210646498639197
 20
43.09247218269486
 30
0
  0
VERTEX
  5
305
  8
0
  6
BYLAYER
 62
    7
 10
5.218380398407675
 20
43.09398009570647
 30
0
  0
VERTEX
  5
306
  8
0
  6
BYLAYER
 62
    7
 10
5.226540660983591
 20
43.09446119728904
 30
0
  0
SEQEND
  5
307
  8
0
  6
BYLAYER
 62
    7
  0
POLYLINE
  5
308
  8
0
  6
BYLAYER
 62
    7
 66
    1
 10
0
 20
0
 30
0
 70
    0
  0
VERTEX
  5
309
  8
0
  6
BYLAYER
 62
    7
 10
5.226540660983591
 20
43.09446119728904
 30
0
  0
VERTEX
  5
30A
  8
0
  6
BYLAYER
 62
    7
 10
5.232047361761504
 20
43.09427198663751
 30
0
  0
VERTEX
  5
30B
  8
0
  6
BYLAYER
 62
    7
 10
5.237475609647544
 20
43.09371050794903
 30
0
  0
VERTEX
  5
30C
  8
0
  6
BYLAYER
 62
    7
 10
5.242818482327726
 20
43.09278599112278
 30
0
  0
VERTEX
  5
30D
  8
0
  6
BYLAYER
 62
    7
 10
5.248069057488062
 20
43.09150766605783
 30
0
  0
VERTEX
  5
30E
  8
0
  6
BYLAYER
 62
    7
 10
5.253220412814558
 20
43.08988476265343
 30
0
  0
VERTEX
  5
30F
  8
0
  6
BYLAYER
 62
    7
 10
5.258265625993234
 20
43.08792651080873
 30
0
  0
VERTEX
  5
310
  8
0
  6
BYLAYER
 62
    7
 10
5.263197774710094
 20
43.08564214042276
 30
0
  0
VERTEX
  5
311
  8
0
  6
BYLAYER
 62
    7
 10
5.268009936651152
 20
43.08304088139481
 30
0
  0
VERTEX
  5
312
  8
0
  6
BYLAYER
 62
    7
 10
5.272695189502418
 20
43.08013196362392
 30
0
  0
VERTEX
  5
313
  8
0
  6
BYLAYER
 62
    7
 10
5.277246610949909
 20
43.07692461700935
 30
0
  0
VERTEX
  5
314
  8
0
  6
BYLAYER
 62
    7
 10
5.28165727867963
 20
43.0734280714502
 30
0
  0
VERTEX
  5
315
  8
0
  6
BYLAYER
 62
    7
 10
5.285920270377597
 20
43.06965155684562
 30
0
  0
VERTEX
  5
316
  8
0
  6
BYLAYER
 62
    7
 10
5.290028663729816
 20
43.06560430309477
 30
0
  0
VERTEX
  5
317
  8
0
  6
BYLAYER
 62
    7
 10
5.2939755364223
 20
43.06129554009679
 30
0
  0
VERTEX
  5
318
  8
0
  6
BYLAYER
 62
    7
 10
5.297753966141066
 20
43.05673449775083
 30
0
  0
VERTEX
  5
319
  8
0
  6
BYLAYER
 62
    7
 10
5.301357030572119
 20
43.05193040595604
 30
0
  0
VERTEX
  5
31A
  8
0
  6
BYLAYER
 62
    7
 10
5.304777807401474
 20
43.04689249461165
 30
0
  0
VERTEX
  5
31B
  8
0
  6
BYLAYER
 62
    7
 10
5.30800937431514
 20
43.04162999361668
 30
0
  0
VERTEX
  5
31C
  8
0
  6
BYLAYER
 62
    7
 10
5.311044808999133
 20
43.03615213287035
 30
0
  0
VERTEX
  5
31D
  8
0
  6
BYLAYER
 62
    7
 10
5.313877189139456
 20
43.03046814227182
 30
0
  0
VERTEX
  5
31E
  8
0
  6
BYLAYER
 62
    7
 10
5.316499592422129
 20
43.02458725172028
 30
0
  0
VERTEX
  5
31F
  8
0
  6
BYLAYER
 62
    7
 10
5.31890509653316
 20
43.01851869111481
 30
0
  0
VERTEX
  5
320
  8
0
  6
BYLAYER
 62
    7
 10
5.321086779158561
 20
43.01227169035457
 30
0
  0
VERTEX
  5
321
  8
0
  6
BYLAYER
 62
    7
 10
5.323037717984342
 20
43.00585547933875
 30
0
  0
VERTEX
  5
322
  8
0
  6
BYLAYER
 62
    7
 10
5.324750990696512
 20
42.99927928796645
 30
0
  0
VERTEX
  5
323
  8
0
  6
BYLAYER
 62
    7
 10
5.32621967498109
 20
42.99255234613688
 30
0
  0
VERTEX
  5
324
  8
0
  6
BYLAYER
 62
    7
 10
5.327436848524084
 20
42.98568388374917
 30
0
  0
VERTEX
  5
325
  8
0
  6
BYLAYER
 62
    7
 10
5.328395589011497
 20
42.97868313070245
 30
0
  0
VERTEX
  5
326
  8
0
  6
BYLAYER
 62
    7
 10
5.329088974129352
 20
42.97155931689591
 30
0
  0
VERTEX
  5
327
  8
0
  6
BYLAYER
 62
    7
 10
5.329510081563659
 20
42.96432167222868
 30
0
  0
VERTEX
  5
328
  8
0
  6
BYLAYER
 62
    7
 10
5.329651989000425
 20
42.95697942659991
 30
0
  0
SEQEND
  5
329
  8
0
  6
BYLAYER
 62
    7
  0
POLYLINE
  5
32A
  8
0
  6
BYLAYER
 62
    7
 66
    1
 10
0
 20
0
 30
0
 70
    0
  0
VERTEX
  5
32B
  8
0
  6
BYLAYER
 62
    7
 10
5.329651989000425
 20
42.95697942659991
 30
0
  0
VERTEX
  5
32C
  8
0
  6
BYLAYER
 62
    7
 10
5.329796203883364
 20
42.94742198602651
 30
0
  0
VERTEX
  5
32D
  8
0
  6
BYLAYER
 62
    7
 10
5.330233463440877
 20
42.93825958004484
 30
0
  0
VERTEX
  5
32E
  8
0
  6
BYLAYER
 62
    7
 10
5.330970690035998
 20
42.92948667079381
 30
0
  0
VERTEX
  5
32F
  8
0
  6
BYLAYER
 62
    7
 10
5.332014806031788
 20
42.92109772041259
 30
0
  0
VERTEX
  5
330
  8
0
  6
BYLAYER
 62
    7
 10
5.33337273379128
 20
42.91308719104005
 30
0
  0
VERTEX
  5
331
  8
0
  6
BYLAYER
 62
    7
 10
5.335051395677525
 20
42.90544954481523
 30
0
  0
VERTEX
  5
332
  8
0
  6
BYLAYER
 62
    7
 10
5.33705771405356
 20
42.8981792438771
 30
0
  0
VERTEX
  5
333
  8
0
  6
BYLAYER
 62
    7
 10
5.339398611282435
 20
42.89127075036468
 30
0
  0
VERTEX
  5
334
  8
0
  6
BYLAYER
 62
    7
 10
5.342081009727194
 20
42.884718526417
 30
0
  0
VERTEX
  5
335
  8
0
  6
BYLAYER
 62
    7
 10
5.345111831750881
 20
42.87851703417297
 30
0
  0
VERTEX
  5
336
  8
0
  6
BYLAYER
 62
    7
 10
5.348497999716536
 20
42.87266073577172
 30
0
  0
VERTEX
  5
337
  8
0
  6
BYLAYER
 62
    7
 10
5.352246435987209
 20
42.8671440933521
 30
0
  0
VERTEX
  5
338
  8
0
  6
BYLAYER
 62
    7
 10
5.356364062925943
 20
42.86196156905322
 30
0
  0
VERTEX
  5
339
  8
0
  6
BYLAYER
 62
    7
 10
5.360857802895783
 20
42.85710762501401
 30
0
  0
VERTEX
  5
33A
  8
0
  6
BYLAYER
 62
    7
 10
5.365734578259769
 20
42.85257672337352
 30
0
  0
VERTEX
  5
33B
  8
0
  6
BYLAYER
 62
    7
 10
5.37100131138095
 20
42.84836332627069
 30
0
  0
VERTEX
  5
33C
  8
0
  6
BYLAYER
 62
    7
 10
5.376664924622371
 20
42.84446189584457
 30
0
  0
VERTEX
  5
33D
  8
0
  6
BYLAYER
 62
    7
 10
5.382732340347073
 20
42.84086689423415
 30
0
  0
VERTEX
  5
33E
  8
0
  6
BYLAYER
 62
    7
 10
5.389210480918101
 20
42.83757278357839
 30
0
  0
VERTEX
  5
33F
  8
0
  6
BYLAYER
 62
    7
 10
5.396106268698497
 20
42.83457402601633
 30
0
  0
VERTEX
  5
340
  8
0
  6
BYLAYER
 62
    7
 10
5.403426626051313
 20
42.83186508368696
 30
0
  0
VERTEX
  5
341
  8
0
  6
BYLAYER
 62
    7
 10
5.411178475339588
 20
42.82944041872926
 30
0
  0
VERTEX
  5
342
  8
0
  6
BYLAYER
 62
    7
 10
5.419368738926368
 20
42.82729449328228
 30
0
  0
VERTEX
  5
343
  8
0
  6
BYLAYER
 62
    7
 10
5.428004339174692
 20
42.8254217694849
 30
0
  0
VERTEX
  5
344
  8
0
  6
BYLAYER
 62
    7
 10
5.437092198447615
 20
42.82381670947623
 30
0
  0
VERTEX
  5
345
  8
0
  6
BYLAYER
 62
    7
 10
5.446639239108171
 20
42.82247377539522
 30
0
  0
VERTEX
  5
346
  8
0
  6
BYLAYER
 62
    7
 10
5.456652383519412
 20
42.82138742938092
 30
0
  0
VERTEX
  5
347
  8
0
  6
BYLAYER
 62
    7
 10
5.467138554044377
 20
42.82055213357225
 30
0
  0
VERTEX
  5
348
  8
0
  6
BYLAYER
 62
    7
 10
5.478104673046111
 20
42.81996235010826
 30
0
  0
VERTEX
  5
349
  8
0
  6
BYLAYER
 62
    7
 10
5.489557662887664
 20
42.81961254112793
 30
0
  0
VERTEX
  5
34A
  8
0
  6
BYLAYER
 62
    7
 10
5.501504445932074
 20
42.81949716877028
 30
0
  0
SEQEND
  5
34B
  8
0
  6
BYLAYER
 62
    7
  0
POLYLINE
  5
34C
  8
0
  6
BYLAYER
 62
    7
 66
    1
 10
0
 20
0
 30
0
 70
    0
  0
VERTEX
  5
34D
  8
0
  6
BYLAYER
 62
    7
 10
5.501504445932074
 20
42.81949716877028
 30
0
  0
VERTEX
  5
34E
  8
0
  6
BYLAYER
 62
    7
 10
5.513451206157357
 20
42.81961254112793
 30
0
  0
VERTEX
  5
34F
  8
0
  6
BYLAYER
 62
    7
 10
5.524904174651459
 20
42.81996235010829
 30
0
  0
VERTEX
  5
350
  8
0
  6
BYLAYER
 62
    7
 10
5.535870273728359
 20
42.82055213357228
 30
0
  0
VERTEX
  5
351
  8
0
  6
BYLAYER
 62
    7
 10
5.546356425702058
 20
42.82138742938089
 30
0
  0
VERTEX
  5
352
  8
0
  6
BYLAYER
 62
    7
 10
5.556369552886528
 20
42.82247377539521
 30
0
  0
VERTEX
  5
353
  8
0
  6
BYLAYER
 62
    7
 10
5.565916577595775
 20
42.82381670947623
 30
0
  0
VERTEX
  5
354
  8
0
  6
BYLAYER
 62
    7
 10
5.575004422143777
 20
42.82542176948489
 30
0
  0
VERTEX
  5
355
  8
0
  6
BYLAYER
 62
    7
 10
5.583640008844528
 20
42.82729449328225
 30
0
  0
VERTEX
  5
356
  8
0
  6
BYLAYER
 62
    7
 10
5.591830260012006
 20
42.82944041872925
 30
0
  0
VERTEX
  5
357
  8
0
  6
BYLAYER
 62
    7
 10
5.599582097960219
 20
42.83186508368696
 30
0
  0
VERTEX
  5
358
  8
0
  6
BYLAYER
 62
    7
 10
5.606902445003136
 20
42.83457402601636
 30
0
  0
VERTEX
  5
359
  8
0
  6
BYLAYER
 62
    7
 10
5.613798223454754
 20
42.83757278357839
 30
0
  0
VERTEX
  5
35A
  8
0
  6
BYLAYER
 62
    7
 10
5.620276355629065
 20
42.84086689423413
 30
0
  0
VERTEX
  5
35B
  8
0
  6
BYLAYER
 62
    7
 10
5.626343763840053
 20
42.84446189584457
 30
0
  0
VERTEX
  5
35C
  8
0
  6
BYLAYER
 62
    7
 10
5.632007370401705
 20
42.84836332627069
 30
0
  0
VERTEX
  5
35D
  8
0
  6
BYLAYER
 62
    7
 10
5.637274097628013
 20
42.85257672337349
 30
0
  0
VERTEX
  5
35E
  8
0
  6
BYLAYER
 62
    7
 10
5.642150867832965
 20
42.85710762501401
 30
0
  0
VERTEX
  5
35F
  8
0
  6
BYLAYER
 62
    7
 10
5.646644603330554
 20
42.86196156905322
 30
0
  0
VERTEX
  5
360
  8
0
  6
BYLAYER
 62
    7
 10
5.650762226434756
 20
42.8671440933521
 30
0
  0
VERTEX
  5
361
  8
0
  6
BYLAYER
 62
    7
 10
5.65451065945957
 20
42.87266073577169
 30
0
  0
VERTEX
  5
362
  8
0
  6
BYLAYER
 62
    7
 10
5.657896824718982
 20
42.87851703417301
 30
0
  0
VERTEX
  5
363
  8
0
  6
BYLAYER
 62
    7
 10
5.66092764452698
 20
42.884718526417
 30
0
  0
VERTEX
  5
364
  8
0
  6
BYLAYER
 62
    7
 10
5.663610041197554
 20
42.89127075036468
 30
0
  0
VERTEX
  5
365
  8
0
  6
BYLAYER
 62
    7
 10
5.665950937044692
 20
42.8981792438771
 30
0
  0
VERTEX
  5
366
  8
0
  6
BYLAYER
 62
    7
 10
5.66795725438238
 20
42.90544954481521
 30
0
  0
VERTEX
  5
367
  8
0
  6
BYLAYER
 62
    7
 10
5.669635915524608
 20
42.91308719104003
 30
0
  0
VERTEX
  5
368
  8
0
  6
BYLAYER
 62
    7
 10
5.670993842785369
 20
42.92109772041259
 30
0
  0
VERTEX
  5
369
  8
0
  6
BYLAYER
 62
    7
 10
5.672037958478644
 20
42.92948667079381
 30
0
  0
VERTEX
  5
36A
  8
0
  6
BYLAYER
 62
    7
 10
5.672775184918427
 20
42.9382595800448
 30
0
  0
VERTEX
  5
36B
  8
0
  6
BYLAYER
 62
    7
 10
5.673212444418702
 20
42.94742198602651
 30
0
  0
VERTEX
  5
36C
  8
0
  6
BYLAYER
 62
    7
 10
5.673356659293468
 20
42.95697942659991
 30
0
  0
SEQEND
  5
36D
  8
0
  6
BYLAYER
 62
    7
  0
POLYLINE
  5
36E
  8
0
  6
BYLAYER
 62
    7
 66
    1
 10
0
 20
0
 30
0
 70
    0
  0
VERTEX
  5
36F
  8
0
  6
BYLAYER
 62
    7
 10
5.673356659293468
 20
42.95697942659991
 30
0
  0
VERTEX
  5
370
  8
0
  6
BYLAYER
 62
    7
 10
5.673506642771397
 20
42.9681981504022
 30
0
  0
VERTEX
  5
371
  8
0
  6
BYLAYER
 62
    7
 10
5.673984282493842
 20
42.97880402388243
 30
0
  0
VERTEX
  5
372
  8
0
  6
BYLAYER
 62
    7
 10
5.674831112393788
 20
42.98881366032925
 30
0
  0
VERTEX
  5
373
  8
0
  6
BYLAYER
 62
    7
 10
5.676088666404222
 20
42.99824367303135
 30
0
  0
VERTEX
  5
374
  8
0
  6
BYLAYER
 62
    7
 10
5.677798478458134
 20
43.00711067527741
 30
0
  0
VERTEX
  5
375
  8
0
  6
BYLAYER
 62
    7
 10
5.680002082488511
 20
43.01543128035613
 30
0
  0
VERTEX
  5
376
  8
0
  6
BYLAYER
 62
    7
 10
5.682741012428338
 20
43.02322210155606
 30
0
  0
VERTEX
  5
377
  8
0
  6
BYLAYER
 62
    7
 10
5.686056802210605
 20
43.03049975216602
 30
0
  0
VERTEX
  5
378
  8
0
  6
BYLAYER
 62
    7
 10
5.689990985768299
 20
43.03728084547459
 30
0
  0
VERTEX
  5
379
  8
0
  6
BYLAYER
 62
    7
 10
5.694585097034399
 20
43.04358199477048
 30
0
  0
VERTEX
  5
37A
  8
0
  6
BYLAYER
 62
    7
 10
5.69988066994191
 20
43.04941981334235
 30
0
  0
VERTEX
  5
37B
  8
0
  6
BYLAYER
 62
    7
 10
5.705919238423803
 20
43.05481091447889
 30
0
  0
VERTEX
  5
37C
  8
0
  6
BYLAYER
 62
    7
 10
5.712742336413075
 20
43.05977191146872
 30
0
  0
VERTEX
  5
37D
  8
0
  6
BYLAYER
 62
    7
 10
5.720391497842702
 20
43.06431941760055
 30
0
  0
VERTEX
  5
37E
  8
0
  6
BYLAYER
 62
    7
 10
5.728908256645685
 20
43.06847004616306
 30
0
  0
VERTEX
  5
37F
  8
0
  6
BYLAYER
 62
    7
 10
5.738334146754999
 20
43.07224041044486
 30
0
  0
VERTEX
  5
380
  8
0
  6
BYLAYER
 62
    7
 10
5.748710702103644
 20
43.07564712373471
 30
0
  0
VERTEX
  5
381
  8
0
  6
BYLAYER
 62
    7
 10
5.760079456624593
 20
43.07870679932122
 30
0
  0
VERTEX
  5
382
  8
0
  6
BYLAYER
 62
    7
 10
5.772481944250845
 20
43.0814360504931
 30
0
  0
VERTEX
  5
383
  8
0
  6
BYLAYER
 62
    7
 10
5.785959698915382
 20
43.08385149053897
 30
0
  0
VERTEX
  5
384
  8
0
  6
BYLAYER
 62
    7
 10
5.800554254551193
 20
43.08596973274756
 30
0
  0
VERTEX
  5
385
  8
0
  6
BYLAYER
 62
    7
 10
5.816307145091265
 20
43.08780739040751
 30
0
  0
VERTEX
  5
386
  8
0
  6
BYLAYER
 62
    7
 10
5.833259904468581
 20
43.08938107680748
 30
0
  0
VERTEX
  5
387
  8
0
  6
BYLAYER
 62
    7
 10
5.851454066616133
 20
43.09070740523614
 30
0
  0
VERTEX
  5
388
  8
0
  6
BYLAYER
 62
    7
 10
5.870931165466909
 20
43.09180298898222
 30
0
  0
VERTEX
  5
389
  8
0
  6
BYLAYER
 62
    7
 10
5.891732734953893
 20
43.09268444133431
 30
0
  0
VERTEX
  5
38A
  8
0
  6
BYLAYER
 62
    7
 10
5.913900309010075
 20
43.09336837558114
 30
0
  0
VERTEX
  5
38B
  8
0
  6
BYLAYER
 62
    7
 10
5.937475421568442
 20
43.09387140501133
 30
0
  0
VERTEX
  5
38C
  8
0
  6
BYLAYER
 62
    7
 10
5.962499606561975
 20
43.09421014291362
 30
0
  0
VERTEX
  5
38D
  8
0
  6
BYLAYER
 62
    7
 10
5.98901439792367
 20
43.09440120257663
 30
0
  0
VERTEX
  5
38E
  8
0
  6
BYLAYER
 62
    7
 10
6.017061329586511
 20
43.09446119728904
 30
0
  0
SEQEND
  5
38F
  8
0
  6
BYLAYER
 62
    7
  0
POLYLINE
  5
390
  8
0
  6
BYLAYER
 62
    7
 66
    1
 10
0
 20
0
 30
0
 70
    0
  0
VERTEX
  5
391
  8
0
  6
BYLAYER
 62
    7
 10
10.61963361098349
 20
39.43556485771413
 30
0
  0
VERTEX
  5
392
  8
0
  6
BYLAYER
 62
    7
 10
10.54257090420516
 20
39.79489602147745
 30
0
  0
VERTEX
  5
393
  8
0
  6
BYLAYER
 62
    7
 10
10.04230706633783
 20
39.79489602147745
 30
0
  0
VERTEX
  5
394
  8
0
  6
BYLAYER
 62
    7
 10
9.542042984900242
 20
39.79489602147745
 30
0
  0
VERTEX
  5
395
  8
0
  6
BYLAYER
 62
    7
 10
9.332870693042564
 20
40.2932682927214
 30
0
  0
VERTEX
  5
396
  8
0
  6
BYLAYER
 62
    7
 10
9.123698644755144
 20
40.79163983325456
 30
0
  0
VERTEX
  5
397
  8
0
  6
BYLAYER
 62
    7
 10
8.171863099291089
 20
40.832678255309
 30
0
  0
SEQEND
  5
398
  8
0
  6
BYLAYER
 62
    7
  0
POLYLINE
  5
399
  8
0
  6
BYLAYER
 62
    7
 66
    1
 10
0
 20
0
 30
0
 70
    0
  0
VERTEX
  5
39A
  8
0
  6
BYLAYER
 62
    7
 10
6.618544685277032
 20
54.07933295883017
 30
0
  0
VERTEX
  5
39B
  8
0
  6
BYLAYER
 62
    7
 10
6.646266229763533
 20
54.08957858224305
 30
0
  0
VERTEX
  5
39C
  8
0
  6
BYLAYER
 62
    7
 10
6.68521709920845
 20
54.09920979231775
 30
0
  0
VERTEX
  5
39D
  8
0
  6
BYLAYER
 62
    7
 10
6.738995485844598
 20
54.10824547156639
 30
0
  0
VERTEX
  5
39E
  8
0
  6
BYLAYER
 62
    7
 10
6.811199581904803
 20
54.11670450250127
 30
0
  0
VERTEX
  5
39F
  8
0
  6
BYLAYER
 62
    7
 10
6.905427579621893
 20
54.12460576763458
 30
0
  0
VERTEX
  5
3A0
  8
0
  6
BYLAYER
 62
    7
 10
7.025277671228701
 20
54.13196814947842
 30
0
  0
VERTEX
  5
3A1
  8
0
  6
BYLAYER
 62
    7
 10
7.174348048958039
 20
54.13881053054507
 30
0
  0
VERTEX
  5
3A2
  8
0
  6
BYLAYER
 62
    7
 10
7.356236905042744
 20
54.14515179334671
 30
0
  0
VERTEX
  5
3A3
  8
0
  6
BYLAYER
 62
    7
 10
7.57454243171563
 20
54.15101082039548
 30
0
  0
VERTEX
  5
3A4
  8
0
  6
BYLAYER
 62
    7
 10
7.832862821209535
 20
54.15640649420367
 30
0
  0
VERTEX
  5
3A5
  8
0
  6
BYLAYER
 62
    7
 10
8.134796265757281
 20
54.16135769728341
 30
0
  0
VERTEX
  5
3A6
  8
0
  6
BYLAYER
 62
    7
 10
8.483940957591688
 20
54.16588331214685
 30
0
  0
VERTEX
  5
3A7
  8
0
  6
BYLAYER
 62
    7
 10
8.883895088945584
 20
54.17000222130629
 30
0
  0
VERTEX
  5
3A8
  8
0
  6
BYLAYER
 62
    7
 10
9.338256852051799
 20
54.17373330727384
 30
0
  0
VERTEX
  5
3A9
  8
0
  6
BYLAYER
 62
    7
 10
9.850624439143154
 20
54.17709545256174
 30
0
  0
VERTEX
  5
3AA
  8
0
  6
BYLAYER
 62
    7
 10
10.42459604245247
 20
54.18010753968217
 30
0
  0
VERTEX
  5
3AB
  8
0
  6
BYLAYER
 62
    7
 10
11.06376985421259
 20
54.18278845114727
 30
0
  0
VERTEX
  5
3AC
  8
0
  6
BYLAYER
 62
    7
 10
11.77174406665632
 20
54.18515706946935
 30
0
  0
VERTEX
  5
3AD
  8
0
  6
BYLAYER
 62
    7
 10
12.5521168720165
 20
54.1872322771605
 30
0
  0
VERTEX
  5
3AE
  8
0
  6
BYLAYER
 62
    7
 10
13.40848646252594
 20
54.18903295673294
 30
0
  0
VERTEX
  5
3AF
  8
0
  6
BYLAYER
 62
    7
 10
14.34445103041748
 20
54.19057799069891
 30
0
  0
VERTEX
  5
3B0
  8
0
  6
BYLAYER
 62
    7
 10
15.36360876792395
 20
54.19188626157056
 30
0
  0
VERTEX
  5
3B1
  8
0
  6
BYLAYER
 62
    7
 10
16.46955786727816
 20
54.19297665186009
 30
0
  0
VERTEX
  5
3B2
  8
0
  6
BYLAYER
 62
    7
 10
17.66589652071293
 20
54.19386804407966
 30
0
  0
VERTEX
  5
3B3
  8
0
  6
BYLAYER
 62
    7
 10
18.95622292046112
 20
54.19457932074152
 30
0
  0
VERTEX
  5
3B4
  8
0
  6
BYLAYER
 62
    7
 10
20.3441352587555
 20
54.19512936435785
 30
0
  0
VERTEX
  5
3B5
  8
0
  6
BYLAYER
 62
    7
 10
21.83323172782896
 20
54.19553705744084
 30
0
  0
VERTEX
  5
3B6
  8
0
  6
BYLAYER
 62
    7
 10
23.42711051991429
 20
54.19582128250269
 30
0
  0
VERTEX
  5
3B7
  8
0
  6
BYLAYER
 62
    7
 10
25.1293698272443
 20
54.19600092205557
 30
0
  0
VERTEX
  5
3B8
  8
0
  6
BYLAYER
 62
    7
 10
26.94360784205184
 20
54.19609485861169
 30
0
  0
VERTEX
  5
3B9
  8
0
  6
BYLAYER
 62
    7
 10
28.87342275656978
 20
54.19612197468327
 30
0
  0
SEQEND
  5
3BA
  8
0
  6
BYLAYER
 62
    7
  0
POLYLINE
  5
3BB
  8
0
  6
BYLAYER
 62
    7
 66
    1
 10
0
 20
0
 30
0
 70
    0
  0
VERTEX
  5
3BC
  8
0
  6
BYLAYER
 62
    7
 10
28.87342275656978
 20
54.19612197468327
 30
0
  0
VERTEX
  5
3BD
  8
0
  6
BYLAYER
 62
    7
 10
30.80323776014851
 20
54.19609485861169
 30
0
  0
VERTEX
  5
3BE
  8
0
  6
BYLAYER
 62
    7
 10
32.61747585396045
 20
54.19600092205562
 30
0
  0
VERTEX
  5
3BF
  8
0
  6
BYLAYER
 62
    7
 10
34.31973523082708
 20
54.19582128250269
 30
0
  0
VERTEX
  5
3C0
  8
0
  6
BYLAYER
 62
    7
 10
35.9136140835699
 20
54.19553705744084
 30
0
  0
VERTEX
  5
3C1
  8
0
  6
BYLAYER
 62
    7
 10
37.40271060501043
 20
54.19512936435785
 30
0
  0
VERTEX
  5
3C2
  8
0
  6
BYLAYER
 62
    7
 10
38.79062298797014
 20
54.19457932074155
 30
0
  0
VERTEX
  5
3C3
  8
0
  6
BYLAYER
 62
    7
 10
40.08094942527055
 20
54.19386804407964
 30
0
  0
VERTEX
  5
3C4
  8
0
  6
BYLAYER
 62
    7
 10
41.27728810973314
 20
54.19297665186009
 30
0
  0
VERTEX
  5
3C5
  8
0
  6
BYLAYER
 62
    7
 10
42.38323723417938
 20
54.19188626157055
 30
0
  0
VERTEX
  5
3C6
  8
0
  6
BYLAYER
 62
    7
 10
43.4023949914308
 20
54.19057799069888
 30
0
  0
VERTEX
  5
3C7
  8
0
  6
BYLAYER
 62
    7
 10
44.3383595743089
 20
54.18903295673294
 30
0
  0
VERTEX
  5
3C8
  8
0
  6
BYLAYER
 62
    7
 10
45.19472917563513
 20
54.1872322771605
 30
0
  0
VERTEX
  5
3C9
  8
0
  6
BYLAYER
 62
    7
 10
45.97510198823106
 20
54.18515706946935
 30
0
  0
VERTEX
  5
3CA
  8
0
  6
BYLAYER
 62
    7
 10
46.68307620491811
 20
54.18278845114727
 30
0
  0
VERTEX
  5
3CB
  8
0
  6
BYLAYER
 62
    7
 10
47.32225001851782
 20
54.18010753968215
 30
0
  0
VERTEX
  5
3CC
  8
0
  6
BYLAYER
 62
    7
 10
47.89622162185167
 20
54.17709545256174
 30
0
  0
VERTEX
  5
3CD
  8
0
  6
BYLAYER
 62
    7
 10
48.40858920774117
 20
54.17373330727384
 30
0
  0
VERTEX
  5
3CE
  8
0
  6
BYLAYER
 62
    7
 10
48.86295096900778
 20
54.17000222130629
 30
0
  0
VERTEX
  5
3CF
  8
0
  6
BYLAYER
 62
    7
 10
49.26290509847303
 20
54.16588331214688
 30
0
  0
VERTEX
  5
3D0
  8
0
  6
BYLAYER
 62
    7
 10
49.61204978895842
 20
54.16135769728341
 30
0
  0
VERTEX
  5
3D1
  8
0
  6
BYLAYER
 62
    7
 10
49.91398323328539
 20
54.15640649420367
 30
0
  0
VERTEX
  5
3D2
  8
0
  6
BYLAYER
 62
    7
 10
50.17230362427551
 20
54.15101082039551
 30
0
  0
VERTEX
  5
3D3
  8
0
  6
BYLAYER
 62
    7
 10
50.39060915475022
 20
54.14515179334671
 30
0
  0
VERTEX
  5
3D4
  8
0
  6
BYLAYER
 62
    7
 10
50.57249801753103
 20
54.13881053054507
 30
0
  0
VERTEX
  5
3D5
  8
0
  6
BYLAYER
 62
    7
 10
50.72156840543947
 20
54.13196814947842
 30
0
  0
VERTEX
  5
3D6
  8
0
  6
BYLAYER
 62
    7
 10
50.84141851129698
 20
54.12460576763454
 30
0
  0
VERTEX
  5
3D7
  8
0
  6
BYLAYER
 62
    7
 10
50.93564652792509
 20
54.11670450250127
 30
0
  0
VERTEX
  5
3D8
  8
0
  6
BYLAYER
 62
    7
 10
51.00785064814526
 20
54.10824547156639
 30
0
  0
VERTEX
  5
3D9
  8
0
  6
BYLAYER
 62
    7
 10
51.06162906477904
 20
54.09920979231769
 30
0
  0
VERTEX
  5
3DA
  8
0
  6
BYLAYER
 62
    7
 10
51.1005799706479
 20
54.08957858224301
 30
0
  0
VERTEX
  5
3DB
  8
0
  6
BYLAYER
 62
    7
 10
51.12830155857331
 20
54.07933295883017
 30
0
  0
SEQEND
  5
3DC
  8
0
  6
BYLAYER
 62
    7
  0
POLYLINE
  5
3DD
  8
0
  6
BYLAYER
 62
    7
 66
    1
 10
0
 20
0
 30
0
 70
    0
  0
VERTEX
  5
3DE
  8
0
  6
BYLAYER
 62
    7
 10
6.017061329586511
 20
43.09446119728904
 30
0
  0
VERTEX
  5
3DF
  8
0
  6
BYLAYER
 62
    7
 10
6.360765999879554
 20
43.09446119728904
 30
0
  0
VERTEX
  5
3E0
  8
0
  6
BYLAYER
 62
    7
 10
6.360765999879554
 20
48.52850220477765
 30
0
  0
VERTEX
  5
3E1
  8
0
  6
BYLAYER
 62
    7
 10
6.360765999879554
 20
53.96254394297708
 30
0
  0
VERTEX
  5
3E2
  8
0
  6
BYLAYER
 62
    7
 10
6.618544685277032
 20
54.07933295883017
 30
0
  0
SEQEND
  5
3E3
  8
0
  6
BYLAYER
 62
    7
  0
POLYLINE
  5
3E4
  8
0
  6
BYLAYER
 62
    7
 66
    1
 10
0
 20
0
 30
0
 70
    0
  0
VERTEX
  5
3E5
  8
0
  6
BYLAYER
 62
    7
 10
51.72978467069358
 20
43.09446046657824
 30
0
  0
VERTEX
  5
3E6
  8
0
  6
BYLAYER
 62
    7
 10
51.75783157953728
 20
43.09440047186581
 30
0
  0
VERTEX
  5
3E7
  8
0
  6
BYLAYER
 62
    7
 10
51.78434634955154
 20
43.09420941220286
 30
0
  0
VERTEX
  5
3E8
  8
0
  6
BYLAYER
 62
    7
 10
51.80937051462026
 20
43.09387067430055
 30
0
  0
VERTEX
  5
3E9
  8
0
  6
BYLAYER
 62
    7
 10
51.83294560862736
 20
43.09336764487037
 30
0
  0
VERTEX
  5
3EA
  8
0
  6
BYLAYER
 62
    7
 10
51.85511316545674
 20
43.09268371062353
 30
0
  0
VERTEX
  5
3EB
  8
0
  6
BYLAYER
 62
    7
 10
51.87591471899243
 20
43.09180225827146
 30
0
  0
VERTEX
  5
3EC
  8
0
  6
BYLAYER
 62
    7
 10
51.89539180311827
 20
43.09070667452537
 30
0
  0
VERTEX
  5
3ED
  8
0
  6
BYLAYER
 62
    7
 10
51.91358595171825
 20
43.08938034609668
 30
0
  0
VERTEX
  5
3EE
  8
0
  6
BYLAYER
 62
    7
 10
51.93053869867627
 20
43.08780665969672
 30
0
  0
VERTEX
  5
3EF
  8
0
  6
BYLAYER
 62
    7
 10
51.94629157787627
 20
43.08596900203676
 30
0
  0
VERTEX
  5
3F0
  8
0
  6
BYLAYER
 62
    7
 10
51.96088612320219
 20
43.08385075982822
 30
0
  0
VERTEX
  5
3F1
  8
0
  6
BYLAYER
 62
    7
 10
51.97436386853796
 20
43.08143531978231
 30
0
  0
VERTEX
  5
3F2
  8
0
  6
BYLAYER
 62
    7
 10
51.98676634776749
 20
43.07870606861046
 30
0
  0
VERTEX
  5
3F3
  8
0
  6
BYLAYER
 62
    7
 10
51.99813509477474
 20
43.07564639302394
 30
0
  0
VERTEX
  5
3F4
  8
0
  6
BYLAYER
 62
    7
 10
52.0085116434436
 20
43.0722396797341
 30
0
  0
VERTEX
  5
3F5
  8
0
  6
BYLAYER
 62
    7
 10
52.01793752765805
 20
43.06846931545227
 30
0
  0
VERTEX
  5
3F6
  8
0
  6
BYLAYER
 62
    7
 10
52.02645428130199
 20
43.06431868688977
 30
0
  0
VERTEX
  5
3F7
  8
0
  6
BYLAYER
 62
    7
 10
52.03410343825936
 20
43.05977118075795
 30
0
  0
VERTEX
  5
3F8
  8
0
  6
BYLAYER
 62
    7
 10
52.04092653241409
 20
43.0548101837681
 30
0
  0
VERTEX
  5
3F9
  8
0
  6
BYLAYER
 62
    7
 10
52.04696509765016
 20
43.04941908263159
 30
0
  0
VERTEX
  5
3FA
  8
0
  6
BYLAYER
 62
    7
 10
52.0522606678514
 20
43.04358126405972
 30
0
  0
VERTEX
  5
3FB
  8
0
  6
BYLAYER
 62
    7
 10
52.05685477690183
 20
43.03728011476382
 30
0
  0
VERTEX
  5
3FC
  8
0
  6
BYLAYER
 62
    7
 10
52.06078895868532
 20
43.03049902145526
 30
0
  0
VERTEX
  5
3FD
  8
0
  6
BYLAYER
 62
    7
 10
52.06410474708586
 20
43.0232213708453
 30
0
  0
VERTEX
  5
3FE
  8
0
  6
BYLAYER
 62
    7
 10
52.06684367598734
 20
43.01543054964532
 30
0
  0
VERTEX
  5
3FF
  8
0
  6
BYLAYER
 62
    7
 10
52.06904727927369
 20
43.00710994456661
 30
0
  0
VERTEX
  5
400
  8
0
  6
BYLAYER
 62
    7
 10
52.07075709082889
 20
42.99824294232059
 30
0
  0
VERTEX
  5
401
  8
0
  6
BYLAYER
 62
    7
 10
52.07201464453681
 20
42.98881292961847
 30
0
  0
VERTEX
  5
402
  8
0
  6
BYLAYER
 62
    7
 10
52.07286147428141
 20
42.97880329317164
 30
0
  0
VERTEX
  5
403
  8
0
  6
BYLAYER
 62
    7
 10
52.07333911394662
 20
42.96819741969144
 30
0
  0
VERTEX
  5
404
  8
0
  6
BYLAYER
 62
    7
 10
52.07348909741638
 20
42.95697869588915
 30
0
  0
SEQEND
  5
405
  8
0
  6
BYLAYER
 62
    7
  0
POLYLINE
  5
406
  8
0
  6
BYLAYER
 62
    7
 66
    1
 10
0
 20
0
 30
0
 70
    0
  0
VERTEX
  5
407
  8
0
  6
BYLAYER
 62
    7
 10
52.07348909741638
 20
42.95697869588915
 30
0
  0
VERTEX
  5
408
  8
0
  6
BYLAYER
 62
    7
 10
52.07363331451499
 20
42.94742125531572
 30
0
  0
VERTEX
  5
409
  8
0
  6
BYLAYER
 62
    7
 10
52.07407058045794
 20
42.93825884933403
 30
0
  0
VERTEX
  5
40A
  8
0
  6
BYLAYER
 62
    7
 10
52.0748078172158
 20
42.92948594008305
 30
0
  0
VERTEX
  5
40B
  8
0
  6
BYLAYER
 62
    7
 10
52.07585194675916
 20
42.92109698970181
 30
0
  0
VERTEX
  5
40C
  8
0
  6
BYLAYER
 62
    7
 10
52.07720989105863
 20
42.91308646032926
 30
0
  0
VERTEX
  5
40D
  8
0
  6
BYLAYER
 62
    7
 10
52.07888857208484
 20
42.90544881410445
 30
0
  0
VERTEX
  5
40E
  8
0
  6
BYLAYER
 62
    7
 10
52.08089491180829
 20
42.89817851316632
 30
0
  0
VERTEX
  5
40F
  8
0
  6
BYLAYER
 62
    7
 10
52.0832358321997
 20
42.89127001965392
 30
0
  0
VERTEX
  5
410
  8
0
  6
BYLAYER
 62
    7
 10
52.08591825522959
 20
42.8847177957062
 30
0
  0
VERTEX
  5
411
  8
0
  6
BYLAYER
 62
    7
 10
52.08894910286857
 20
42.87851630346219
 30
0
  0
VERTEX
  5
412
  8
0
  6
BYLAYER
 62
    7
 10
52.09233529708726
 20
42.87266000506091
 30
0
  0
VERTEX
  5
413
  8
0
  6
BYLAYER
 62
    7
 10
52.09608375985626
 20
42.86714336264133
 30
0
  0
VERTEX
  5
414
  8
0
  6
BYLAYER
 62
    7
 10
52.10020141314614
 20
42.86196083834245
 30
0
  0
VERTEX
  5
415
  8
0
  6
BYLAYER
 62
    7
 10
52.10469517892751
 20
42.85710689430323
 30
0
  0
VERTEX
  5
416
  8
0
  6
BYLAYER
 62
    7
 10
52.10957197917097
 20
42.85257599266272
 30
0
  0
VERTEX
  5
417
  8
0
  6
BYLAYER
 62
    7
 10
52.11483873584712
 20
42.84836259555992
 30
0
  0
VERTEX
  5
418
  8
0
  6
BYLAYER
 62
    7
 10
52.12050237092653
 20
42.84446116513381
 30
0
  0
VERTEX
  5
419
  8
0
  6
BYLAYER
 62
    7
 10
52.12656980637986
 20
42.84086616352337
 30
0
  0
VERTEX
  5
41A
  8
0
  6
BYLAYER
 62
    7
 10
52.13304796417763
 20
42.83757205286763
 30
0
  0
VERTEX
  5
41B
  8
0
  6
BYLAYER
 62
    7
 10
52.1399437662905
 20
42.83457329530557
 30
0
  0
VERTEX
  5
41C
  8
0
  6
BYLAYER
 62
    7
 10
52.14726413468907
 20
42.8318643529762
 30
0
  0
VERTEX
  5
41D
  8
0
  6
BYLAYER
 62
    7
 10
52.1550159913439
 20
42.8294396880185
 30
0
  0
VERTEX
  5
41E
  8
0
  6
BYLAYER
 62
    7
 10
52.16320625822559
 20
42.82729376257146
 30
0
  0
VERTEX
  5
41F
  8
0
  6
BYLAYER
 62
    7
 10
52.17184185730474
 20
42.82542103877412
 30
0
  0
VERTEX
  5
420
  8
0
  6
BYLAYER
 62
    7
 10
52.18092971055198
 20
42.82381597876546
 30
0
  0
VERTEX
  5
421
  8
0
  6
BYLAYER
 62
    7
 10
52.19047673993786
 20
42.82247304468446
 30
0
  0
VERTEX
  5
422
  8
0
  6
BYLAYER
 62
    7
 10
52.20048986743302
 20
42.82138669867016
 30
0
  0
VERTEX
  5
423
  8
0
  6
BYLAYER
 62
    7
 10
52.21097601500804
 20
42.82055140286148
 30
0
  0
VERTEX
  5
424
  8
0
  6
BYLAYER
 62
    7
 10
52.22194210463353
 20
42.8199616193975
 30
0
  0
VERTEX
  5
425
  8
0
  6
BYLAYER
 62
    7
 10
52.23339505828008
 20
42.81961181041717
 30
0
  0
VERTEX
  5
426
  8
0
  6
BYLAYER
 62
    7
 10
52.24534179791827
 20
42.81949643805951
 30
0
  0
SEQEND
  5
427
  8
0
  6
BYLAYER
 62
    7
  0
POLYLINE
  5
428
  8
0
  6
BYLAYER
 62
    7
 66
    1
 10
0
 20
0
 30
0
 70
    0
  0
VERTEX
  5
429
  8
0
  6
BYLAYER
 62
    7
 10
52.24534179791827
 20
42.81949643805951
 30
0
  0
VERTEX
  5
42A
  8
0
  6
BYLAYER
 62
    7
 10
52.25728853681245
 20
42.81961181041719
 30
0
  0
VERTEX
  5
42B
  8
0
  6
BYLAYER
 62
    7
 10
52.26874148829238
 20
42.8199616193975
 30
0
  0
VERTEX
  5
42C
  8
0
  6
BYLAYER
 62
    7
 10
52.27970757442671
 20
42.8205514028615
 30
0
  0
VERTEX
  5
42D
  8
0
  6
BYLAYER
 62
    7
 10
52.29019371728423
 20
42.82138669867016
 30
0
  0
VERTEX
  5
42E
  8
0
  6
BYLAYER
 62
    7
 10
52.30020683893355
 20
42.82247304468446
 30
0
  0
VERTEX
  5
42F
  8
0
  6
BYLAYER
 62
    7
 10
52.30975386144345
 20
42.82381597876548
 30
0
  0
VERTEX
  5
430
  8
0
  6
BYLAYER
 62
    7
 10
52.31884170688264
 20
42.82542103877412
 30
0
  0
VERTEX
  5
431
  8
0
  6
BYLAYER
 62
    7
 10
52.32747729731982
 20
42.82729376257149
 30
0
  0
VERTEX
  5
432
  8
0
  6
BYLAYER
 62
    7
 10
52.33566755482364
 20
42.82943968801848
 30
0
  0
VERTEX
  5
433
  8
0
  6
BYLAYER
 62
    7
 10
52.34341940146292
 20
42.83186435297616
 30
0
  0
VERTEX
  5
434
  8
0
  6
BYLAYER
 62
    7
 10
52.35073975930631
 20
42.83457329530557
 30
0
  0
VERTEX
  5
435
  8
0
  6
BYLAYER
 62
    7
 10
52.3576355504225
 20
42.83757205286763
 30
0
  0
VERTEX
  5
436
  8
0
  6
BYLAYER
 62
    7
 10
52.36411369688022
 20
42.84086616352337
 30
0
  0
VERTEX
  5
437
  8
0
  6
BYLAYER
 62
    7
 10
52.37018112074819
 20
42.84446116513379
 30
0
  0
VERTEX
  5
438
  8
0
  6
BYLAYER
 62
    7
 10
52.37584474409509
 20
42.84836259555992
 30
0
  0
VERTEX
  5
439
  8
0
  6
BYLAYER
 62
    7
 10
52.38111148898966
 20
42.85257599266272
 30
0
  0
VERTEX
  5
43A
  8
0
  6
BYLAYER
 62
    7
 10
52.3859882775006
 20
42.85710689430323
 30
0
  0
VERTEX
  5
43B
  8
0
  6
BYLAYER
 62
    7
 10
52.39048203169665
 20
42.86196083834245
 30
0
  0
VERTEX
  5
43C
  8
0
  6
BYLAYER
 62
    7
 10
52.39459967364647
 20
42.86714336264133
 30
0
  0
VERTEX
  5
43D
  8
0
  6
BYLAYER
 62
    7
 10
52.39834812541876
 20
42.87266000506091
 30
0
  0
VERTEX
  5
43E
  8
0
  6
BYLAYER
 62
    7
 10
52.40173430908229
 20
42.87851630346221
 30
0
  0
VERTEX
  5
43F
  8
0
  6
BYLAYER
 62
    7
 10
52.40476514670571
 20
42.88471779570624
 30
0
  0
VERTEX
  5
440
  8
0
  6
BYLAYER
 62
    7
 10
52.40744756035777
 20
42.89127001965392
 30
0
  0
VERTEX
  5
441
  8
0
  6
BYLAYER
 62
    7
 10
52.40978847210717
 20
42.89817851316632
 30
0
  0
VERTEX
  5
442
  8
0
  6
BYLAYER
 62
    7
 10
52.41179480402259
 20
42.90544881410445
 30
0
  0
VERTEX
  5
443
  8
0
  6
BYLAYER
 62
    7
 10
52.41347347817278
 20
42.91308646032925
 30
0
  0
VERTEX
  5
444
  8
0
  6
BYLAYER
 62
    7
 10
52.41483141662644
 20
42.92109698970181
 30
0
  0
VERTEX
  5
445
  8
0
  6
BYLAYER
 62
    7
 10
52.41587554145229
 20
42.92948594008305
 30
0
  0
VERTEX
  5
446
  8
0
  6
BYLAYER
 62
    7
 10
52.41661277471901
 20
42.93825884933402
 30
0
  0
VERTEX
  5
447
  8
0
  6
BYLAYER
 62
    7
 10
52.4170500384953
 20
42.94742125531572
 30
0
  0
VERTEX
  5
448
  8
0
  6
BYLAYER
 62
    7
 10
52.41719425484992
 20
42.95697869588915
 30
0
  0
SEQEND
  5
449
  8
0
  6
BYLAYER
 62
    7
  0
POLYLINE
  5
44A
  8
0
  6
BYLAYER
 62
    7
 66
    1
 10
0
 20
0
 30
0
 70
    0
  0
VERTEX
  5
44B
  8
0
  6
BYLAYER
 62
    7
 10
52.41719425484992
 20
42.95697869588915
 30
0
  0
VERTEX
  5
44C
  8
0
  6
BYLAYER
 62
    7
 10
52.41733616228669
 20
42.96432094151793
 30
0
  0
VERTEX
  5
44D
  8
0
  6
BYLAYER
 62
    7
 10
52.41775726972099
 20
42.97155858618516
 30
0
  0
VERTEX
  5
44E
  8
0
  6
BYLAYER
 62
    7
 10
52.41845065483884
 20
42.97868239999169
 30
0
  0
VERTEX
  5
44F
  8
0
  6
BYLAYER
 62
    7
 10
52.41940939532627
 20
42.98568315303839
 30
0
  0
VERTEX
  5
450
  8
0
  6
BYLAYER
 62
    7
 10
52.42062656886924
 20
42.99255161542612
 30
0
  0
VERTEX
  5
451
  8
0
  6
BYLAYER
 62
    7
 10
52.42209525315384
 20
42.9992785572557
 30
0
  0
VERTEX
  5
452
  8
0
  6
BYLAYER
 62
    7
 10
52.42380852586601
 20
43.00585474862795
 30
0
  0
VERTEX
  5
453
  8
0
  6
BYLAYER
 62
    7
 10
52.42575946469179
 20
43.01227095964381
 30
0
  0
VERTEX
  5
454
  8
0
  6
BYLAYER
 62
    7
 10
52.42794114731717
 20
43.01851796040401
 30
0
  0
VERTEX
  5
455
  8
0
  6
BYLAYER
 62
    7
 10
52.43034665142821
 20
43.02458652100948
 30
0
  0
VERTEX
  5
456
  8
0
  6
BYLAYER
 62
    7
 10
52.43296905471088
 20
43.03046741156106
 30
0
  0
VERTEX
  5
457
  8
0
  6
BYLAYER
 62
    7
 10
52.43580143485123
 20
43.0361514021596
 30
0
  0
VERTEX
  5
458
  8
0
  6
BYLAYER
 62
    7
 10
52.43883686953521
 20
43.04162926290591
 30
0
  0
VERTEX
  5
459
  8
0
  6
BYLAYER
 62
    7
 10
52.44206843644888
 20
43.04689176390083
 30
0
  0
VERTEX
  5
45A
  8
0
  6
BYLAYER
 62
    7
 10
52.44548921327824
 20
43.05192967524531
 30
0
  0
VERTEX
  5
45B
  8
0
  6
BYLAYER
 62
    7
 10
52.44909227770928
 20
43.05673376704005
 30
0
  0
VERTEX
  5
45C
  8
0
  6
BYLAYER
 62
    7
 10
52.45287070742805
 20
43.06129480938601
 30
0
  0
VERTEX
  5
45D
  8
0
  6
BYLAYER
 62
    7
 10
52.45681758012056
 20
43.06560357238398
 30
0
  0
VERTEX
  5
45E
  8
0
  6
BYLAYER
 62
    7
 10
52.46092597347275
 20
43.06965082613485
 30
0
  0
VERTEX
  5
45F
  8
0
  6
BYLAYER
 62
    7
 10
52.46518896517073
 20
43.07342734073941
 30
0
  0
VERTEX
  5
460
  8
0
  6
BYLAYER
 62
    7
 10
52.46959963290045
 20
43.0769238862986
 30
0
  0
VERTEX
  5
461
  8
0
  6
BYLAYER
 62
    7
 10
52.47415105434793
 20
43.08013123291317
 30
0
  0
VERTEX
  5
462
  8
0
  6
BYLAYER
 62
    7
 10
52.4788363071992
 20
43.08304015068401
 30
0
  0
VERTEX
  5
463
  8
0
  6
BYLAYER
 62
    7
 10
52.48364846914026
 20
43.085641409712
 30
0
  0
VERTEX
  5
464
  8
0
  6
BYLAYER
 62
    7
 10
52.48858061785711
 20
43.08792578009791
 30
0
  0
VERTEX
  5
465
  8
0
  6
BYLAYER
 62
    7
 10
52.4936258310358
 20
43.08988403194266
 30
0
  0
VERTEX
  5
466
  8
0
  6
BYLAYER
 62
    7
 10
52.4987771863623
 20
43.09150693534706
 30
0
  0
VERTEX
  5
467
  8
0
  6
BYLAYER
 62
    7
 10
52.50402776152262
 20
43.09278526041199
 30
0
  0
VERTEX
  5
468
  8
0
  6
BYLAYER
 62
    7
 10
52.5093706342028
 20
43.09370977723823
 30
0
  0
VERTEX
  5
469
  8
0
  6
BYLAYER
 62
    7
 10
52.51479888208884
 20
43.09427125592671
 30
0
  0
VERTEX
  5
46A
  8
0
  6
BYLAYER
 62
    7
 10
52.52030558286677
 20
43.09446046657824
 30
0
  0
SEQEND
  5
46B
  8
0
  6
BYLAYER
 62
    7
  0
POLYLINE
  5
46C
  8
0
  6
BYLAYER
 62
    7
 66
    1
 10
0
 20
0
 30
0
 70
    0
  0
VERTEX
  5
46D
  8
0
  6
BYLAYER
 62
    7
 10
52.52030558286677
 20
43.09446046657824
 30
0
  0
VERTEX
  5
46E
  8
0
  6
BYLAYER
 62
    7
 10
52.5284658454427
 20
43.09397936573149
 30
0
  0
VERTEX
  5
46F
  8
0
  6
BYLAYER
 62
    7
 10
52.53619974521116
 20
43.09247145482932
 30
0
  0
VERTEX
  5
470
  8
0
  6
BYLAYER
 62
    7
 10
52.54351805016711
 20
43.08983982132861
 30
0
  0
VERTEX
  5
471
  8
0
  6
BYLAYER
 62
    7
 10
52.55043152830548
 20
43.08598755268645
 30
0
  0
VERTEX
  5
472
  8
0
  6
BYLAYER
 62
    7
 10
52.55695094762117
 20
43.08081773635977
 30
0
  0
VERTEX
  5
473
  8
0
  6
BYLAYER
 62
    7
 10
52.56308707610916
 20
43.07423345980562
 30
0
  0
VERTEX
  5
474
  8
0
  6
BYLAYER
 62
    7
 10
52.56885068176433
 20
43.06613781048091
 30
0
  0
VERTEX
  5
475
  8
0
  6
BYLAYER
 62
    7
 10
52.5742525325816
 20
43.05643387584271
 30
0
  0
VERTEX
  5
476
  8
0
  6
BYLAYER
 62
    7
 10
52.57930339655593
 20
43.04502474334797
 30
0
  0
VERTEX
  5
477
  8
0
  6
BYLAYER
 62
    7
 10
52.58401404168221
 20
43.03181350045369
 30
0
  0
VERTEX
  5
478
  8
0
  6
BYLAYER
 62
    7
 10
52.58839523595537
 20
43.01670323461692
 30
0
  0
VERTEX
  5
479
  8
0
  6
BYLAYER
 62
    7
 10
52.59245774737039
 20
42.99959703329456
 30
0
  0
VERTEX
  5
47A
  8
0
  6
BYLAYER
 62
    7
 10
52.59621234392216
 20
42.98039798394368
 30
0
  0
VERTEX
  5
47B
  8
0
  6
BYLAYER
 62
    7
 10
52.59966979360559
 20
42.95900917402122
 30
0
  0
VERTEX
  5
47C
  8
0
  6
BYLAYER
 62
    7
 10
52.60284086441563
 20
42.93533369098417
 30
0
  0
VERTEX
  5
47D
  8
0
  6
BYLAYER
 62
    7
 10
52.60573632434718
 20
42.90927462228954
 30
0
  0
VERTEX
  5
47E
  8
0
  6
BYLAYER
 62
    7
 10
52.60836694139519
 20
42.88073505539436
 30
0
  0
VERTEX
  5
47F
  8
0
  6
BYLAYER
 62
    7
 10
52.61074348355457
 20
42.84961807775559
 30
0
  0
VERTEX
  5
480
  8
0
  6
BYLAYER
 62
    7
 10
52.61287671882027
 20
42.8158267768302
 30
0
  0
VERTEX
  5
481
  8
0
  6
BYLAYER
 62
    7
 10
52.61477741518721
 20
42.77926424007518
 30
0
  0
VERTEX
  5
482
  8
0
  6
BYLAYER
 62
    7
 10
52.6164563406503
 20
42.73983355494757
 30
0
  0
VERTEX
  5
483
  8
0
  6
BYLAYER
 62
    7
 10
52.6179242632045
 20
42.69743780890435
 30
0
  0
VERTEX
  5
484
  8
0
  6
BYLAYER
 62
    7
 10
52.61919195084468
 20
42.65198008940246
 30
0
  0
VERTEX
  5
485
  8
0
  6
BYLAYER
 62
    7
 10
52.62027017156582
 20
42.60336348389897
 30
0
  0
VERTEX
  5
486
  8
0
  6
BYLAYER
 62
    7
 10
52.6211696933628
 20
42.55149107985081
 30
0
  0
VERTEX
  5
487
  8
0
  6
BYLAYER
 62
    7
 10
52.62190128423059
 20
42.49626596471499
 30
0
  0
VERTEX
  5
488
  8
0
  6
BYLAYER
 62
    7
 10
52.6224757121641
 20
42.43759122594857
 30
0
  0
VERTEX
  5
489
  8
0
  6
BYLAYER
 62
    7
 10
52.62290374515825
 20
42.37536995100842
 30
0
  0
VERTEX
  5
48A
  8
0
  6
BYLAYER
 62
    7
 10
52.62319615120796
 20
42.30950522735164
 30
0
  0
VERTEX
  5
48B
  8
0
  6
BYLAYER
 62
    7
 10
52.6233636983082
 20
42.23990014243513
 30
0
  0
VERTEX
  5
48C
  8
0
  6
BYLAYER
 62
    7
 10
52.62341715445386
 20
42.16645778371596
 30
0
  0
SEQEND
  5
48D
  8
0
  6
BYLAYER
 62
    7
  0
POLYLINE
  5
48E
  8
0
  6
BYLAYER
 62
    7
 66
    1
 10
0
 20
0
 30
0
 70
    0
  0
VERTEX
  5
48F
  8
0
  6
BYLAYER
 62
    7
 10
52.62341715445386
 20
42.16645778371596
 30
0
  0
VERTEX
  5
490
  8
0
  6
BYLAYER
 62
    7
 10
52.62336369830821
 20
42.09301549122212
 30
0
  0
VERTEX
  5
491
  8
0
  6
BYLAYER
 62
    7
 10
52.62319615120799
 20
42.02341046384809
 30
0
  0
VERTEX
  5
492
  8
0
  6
BYLAYER
 62
    7
 10
52.62290374515825
 20
41.95754578949236
 30
0
  0
VERTEX
  5
493
  8
0
  6
BYLAYER
 62
    7
 10
52.6224757121641
 20
41.89532455605345
 30
0
  0
VERTEX
  5
494
  8
0
  6
BYLAYER
 62
    7
 10
52.62190128423059
 20
41.83664985142981
 30
0
  0
VERTEX
  5
495
  8
0
  6
BYLAYER
 62
    7
 10
52.62116969336283
 20
41.78142476352001
 30
0
  0
VERTEX
  5
496
  8
0
  6
BYLAYER
 62
    7
 10
52.62027017156581
 20
41.72955238022247
 30
0
  0
VERTEX
  5
497
  8
0
  6
BYLAYER
 62
    7
 10
52.61919195084468
 20
41.68093578943574
 30
0
  0
VERTEX
  5
498
  8
0
  6
BYLAYER
 62
    7
 10
52.61792426320449
 20
41.6354780790582
 30
0
  0
VERTEX
  5
499
  8
0
  6
BYLAYER
 62
    7
 10
52.6164563406503
 20
41.59308233698849
 30
0
  0
VERTEX
  5
49A
  8
0
  6
BYLAYER
 62
    7
 10
52.61477741518721
 20
41.55365165112504
 30
0
  0
VERTEX
  5
49B
  8
0
  6
BYLAYER
 62
    7
 10
52.61287671882027
 20
41.51708910936637
 30
0
  0
VERTEX
  5
49C
  8
0
  6
BYLAYER
 62
    7
 10
52.61074348355457
 20
41.48329779961092
 30
0
  0
VERTEX
  5
49D
  8
0
  6
BYLAYER
 62
    7
 10
52.60836694139519
 20
41.45218080975723
 30
0
  0
VERTEX
  5
49E
  8
0
  6
BYLAYER
 62
    7
 10
52.60573632434718
 20
41.42364122770379
 30
0
  0
VERTEX
  5
49F
  8
0
  6
BYLAYER
 62
    7
 10
52.6028408644156
 20
41.39758214134909
 30
0
  0
VERTEX
  5
4A0
  8
0
  6
BYLAYER
 62
    7
 10
52.59966979360559
 20
41.37390663859163
 30
0
  0
VERTEX
  5
4A1
  8
0
  6
BYLAYER
 62
    7
 10
52.59621234392216
 20
41.3525178073299
 30
0
  0
VERTEX
  5
4A2
  8
0
  6
BYLAYER
 62
    7
 10
52.59245774737042
 20
41.33331873546236
 30
0
  0
VERTEX
  5
4A3
  8
0
  6
BYLAYER
 62
    7
 10
52.58839523595537
 20
41.31621251088755
 30
0
  0
VERTEX
  5
4A4
  8
0
  6
BYLAYER
 62
    7
 10
52.58401404168222
 20
41.30110222150399
 30
0
  0
VERTEX
  5
4A5
  8
0
  6
BYLAYER
 62
    7
 10
52.57930339655593
 20
41.28789095521011
 30
0
  0
VERTEX
  5
4A6
  8
0
  6
BYLAYER
 62
    7
 10
52.5742525325816
 20
41.27648179990443
 30
0
  0
VERTEX
  5
4A7
  8
0
  6
BYLAYER
 62
    7
 10
52.56885068176433
 20
41.26677784348544
 30
0
  0
VERTEX
  5
4A8
  8
0
  6
BYLAYER
 62
    7
 10
52.56308707610916
 20
41.25868217385165
 30
0
  0
VERTEX
  5
4A9
  8
0
  6
BYLAYER
 62
    7
 10
52.55695094762117
 20
41.25209787890155
 30
0
  0
VERTEX
  5
4AA
  8
0
  6
BYLAYER
 62
    7
 10
52.55043152830548
 20
41.24692804653364
 30
0
  0
VERTEX
  5
4AB
  8
0
  6
BYLAYER
 62
    7
 10
52.54351805016711
 20
41.24307576464637
 30
0
  0
VERTEX
  5
4AC
  8
0
  6
BYLAYER
 62
    7
 10
52.53619974521116
 20
41.2404441211383
 30
0
  0
VERTEX
  5
4AD
  8
0
  6
BYLAYER
 62
    7
 10
52.52846584544267
 20
41.23893620390791
 30
0
  0
VERTEX
  5
4AE
  8
0
  6
BYLAYER
 62
    7
 10
52.52030558286677
 20
41.23845510085367
 30
0
  0
SEQEND
  5
4AF
  8
0
  6
BYLAYER
 62
    7
  0
POLYLINE
  5
4B0
  8
0
  6
BYLAYER
 62
    7
 66
    1
 10
0
 20
0
 30
0
 70
    0
  0
VERTEX
  5
4B1
  8
0
  6
BYLAYER
 62
    7
 10
52.52030558286677
 20
41.23845510085367
 30
0
  0
VERTEX
  5
4B2
  8
0
  6
BYLAYER
 62
    7
 10
52.51479888208884
 20
41.23864431152157
 30
0
  0
VERTEX
  5
4B3
  8
0
  6
BYLAYER
 62
    7
 10
52.50937063420282
 20
41.2392057903245
 30
0
  0
VERTEX
  5
4B4
  8
0
  6
BYLAYER
 62
    7
 10
52.50402776152262
 20
41.24013030746147
 30
0
  0
VERTEX
  5
4B5
  8
0
  6
BYLAYER
 62
    7
 10
52.4987771863623
 20
41.24140863313137
 30
0
  0
VERTEX
  5
4B6
  8
0
  6
BYLAYER
 62
    7
 10
52.4936258310358
 20
41.24303153753325
 30
0
  0
VERTEX
  5
4B7
  8
0
  6
BYLAYER
 62
    7
 10
52.48858061785711
 20
41.24498979086604
 30
0
  0
VERTEX
  5
4B8
  8
0
  6
BYLAYER
 62
    7
 10
52.48364846914026
 20
41.24727416332865
 30
0
  0
VERTEX
  5
4B9
  8
0
  6
BYLAYER
 62
    7
 10
52.4788363071992
 20
41.24987542512009
 30
0
  0
VERTEX
  5
4BA
  8
0
  6
BYLAYER
 62
    7
 10
52.47415105434793
 20
41.2527843464393
 30
0
  0
VERTEX
  5
4BB
  8
0
  6
BYLAYER
 62
    7
 10
52.46959963290044
 20
41.25599169748524
 30
0
  0
VERTEX
  5
4BC
  8
0
  6
BYLAYER
 62
    7
 10
52.46518896517073
 20
41.2594882484569
 30
0
  0
VERTEX
  5
4BD
  8
0
  6
BYLAYER
 62
    7
 10
52.46092597347275
 20
41.26326476955321
 30
0
  0
VERTEX
  5
4BE
  8
0
  6
BYLAYER
 62
    7
 10
52.45681758012053
 20
41.26731203097314
 30
0
  0
VERTEX
  5
4BF
  8
0
  6
BYLAYER
 62
    7
 10
52.45287070742805
 20
41.27162080291561
 30
0
  0
VERTEX
  5
4C0
  8
0
  6
BYLAYER
 62
    7
 10
52.44909227770931
 20
41.27618185557964
 30
0
  0
VERTEX
  5
4C1
  8
0
  6
BYLAYER
 62
    7
 10
52.44548921327824
 20
41.28098595916416
 30
0
  0
VERTEX
  5
4C2
  8
0
  6
BYLAYER
 62
    7
 10
52.44206843644888
 20
41.28602388386811
 30
0
  0
VERTEX
  5
4C3
  8
0
  6
BYLAYER
 62
    7
 10
52.43883686953521
 20
41.29128639989052
 30
0
  0
VERTEX
  5
4C4
  8
0
  6
BYLAYER
 62
    7
 10
52.43580143485123
 20
41.29676427743023
 30
0
  0
VERTEX
  5
4C5
  8
0
  6
BYLAYER
 62
    7
 10
52.43296905471088
 20
41.30244828668631
 30
0
  0
VERTEX
  5
4C6
  8
0
  6
BYLAYER
 62
    7
 10
52.43034665142824
 20
41.30832919785767
 30
0
  0
VERTEX
  5
4C7
  8
0
  6
BYLAYER
 62
    7
 10
52.4279411473172
 20
41.31439778114331
 30
0
  0
VERTEX
  5
4C8
  8
0
  6
BYLAYER
 62
    7
 10
52.42575946469179
 20
41.32064480674212
 30
0
  0
VERTEX
  5
4C9
  8
0
  6
BYLAYER
 62
    7
 10
52.42380852586601
 20
41.32706104485311
 30
0
  0
VERTEX
  5
4CA
  8
0
  6
BYLAYER
 62
    7
 10
52.42209525315384
 20
41.33363726567521
 30
0
  0
VERTEX
  5
4CB
  8
0
  6
BYLAYER
 62
    7
 10
52.42062656886924
 20
41.3403642394074
 30
0
  0
VERTEX
  5
4CC
  8
0
  6
BYLAYER
 62
    7
 10
52.41940939532628
 20
41.34723273624867
 30
0
  0
VERTEX
  5
4CD
  8
0
  6
BYLAYER
 62
    7
 10
52.41845065483884
 20
41.35423352639791
 30
0
  0
VERTEX
  5
4CE
  8
0
  6
BYLAYER
 62
    7
 10
52.41775726972099
 20
41.36135738005412
 30
0
  0
VERTEX
  5
4CF
  8
0
  6
BYLAYER
 62
    7
 10
52.41733616228669
 20
41.36859506741627
 30
0
  0
VERTEX
  5
4D0
  8
0
  6
BYLAYER
 62
    7
 10
52.41719425484992
 20
41.37593735868329
 30
0
  0
SEQEND
  5
4D1
  8
0
  6
BYLAYER
 62
    7
  0
POLYLINE
  5
4D2
  8
0
  6
BYLAYER
 62
    7
 66
    1
 10
0
 20
0
 30
0
 70
    0
  0
VERTEX
  5
4D3
  8
0
  6
BYLAYER
 62
    7
 10
52.41719425484992
 20
41.37593735868329
 30
0
  0
VERTEX
  5
4D4
  8
0
  6
BYLAYER
 62
    7
 10
52.4170500384953
 20
41.38549475361847
 30
0
  0
VERTEX
  5
4D5
  8
0
  6
BYLAYER
 62
    7
 10
52.41661277471901
 20
41.39465711690524
 30
0
  0
VERTEX
  5
4D6
  8
0
  6
BYLAYER
 62
    7
 10
52.41587554145229
 20
41.40342998630654
 30
0
  0
VERTEX
  5
4D7
  8
0
  6
BYLAYER
 62
    7
 10
52.41483141662644
 20
41.41181889958526
 30
0
  0
VERTEX
  5
4D8
  8
0
  6
BYLAYER
 62
    7
 10
52.41347347817278
 20
41.41982939450426
 30
0
  0
VERTEX
  5
4D9
  8
0
  6
BYLAYER
 62
    7
 10
52.41179480402261
 20
41.42746700882649
 30
0
  0
VERTEX
  5
4DA
  8
0
  6
BYLAYER
 62
    7
 10
52.40978847210717
 20
41.43473728031476
 30
0
  0
VERTEX
  5
4DB
  8
0
  6
BYLAYER
 62
    7
 10
52.40744756035777
 20
41.44164574673198
 30
0
  0
VERTEX
  5
4DC
  8
0
  6
BYLAYER
 62
    7
 10
52.40476514670571
 20
41.44819794584109
 30
0
  0
VERTEX
  5
4DD
  8
0
  6
BYLAYER
 62
    7
 10
52.40173430908226
 20
41.45439941540495
 30
0
  0
VERTEX
  5
4DE
  8
0
  6
BYLAYER
 62
    7
 10
52.39834812541876
 20
41.46025569318649
 30
0
  0
VERTEX
  5
4DF
  8
0
  6
BYLAYER
 62
    7
 10
52.39459967364647
 20
41.46577231694849
 30
0
  0
VERTEX
  5
4E0
  8
0
  6
BYLAYER
 62
    7
 10
52.39048203169662
 20
41.47095482445395
 30
0
  0
VERTEX
  5
4E1
  8
0
  6
BYLAYER
 62
    7
 10
52.3859882775006
 20
41.47580875346573
 30
0
  0
VERTEX
  5
4E2
  8
0
  6
BYLAYER
 62
    7
 10
52.38111148898969
 20
41.48033964174672
 30
0
  0
VERTEX
  5
4E3
  8
0
  6
BYLAYER
 62
    7
 10
52.37584474409509
 20
41.48455302705975
 30
0
  0
VERTEX
  5
4E4
  8
0
  6
BYLAYER
 62
    7
 10
52.37018112074819
 20
41.48845444716783
 30
0
  0
VERTEX
  5
4E5
  8
0
  6
BYLAYER
 62
    7
 10
52.36411369688022
 20
41.49204943983374
 30
0
  0
VERTEX
  5
4E6
  8
0
  6
BYLAYER
 62
    7
 10
52.3576355504225
 20
41.49534354282044
 30
0
  0
VERTEX
  5
4E7
  8
0
  6
BYLAYER
 62
    7
 10
52.35073975930631
 20
41.49834229389075
 30
0
  0
VERTEX
  5
4E8
  8
0
  6
BYLAYER
 62
    7
 10
52.34341940146294
 20
41.50105123080768
 30
0
  0
VERTEX
  5
4E9
  8
0
  6
BYLAYER
 62
    7
 10
52.33566755482367
 20
41.50347589133398
 30
0
  0
VERTEX
  5
4EA
  8
0
  6
BYLAYER
 62
    7
 10
52.32747729731982
 20
41.50562181323264
 30
0
  0
VERTEX
  5
4EB
  8
0
  6
BYLAYER
 62
    7
 10
52.31884170688264
 20
41.50749453426649
 30
0
  0
VERTEX
  5
4EC
  8
0
  6
BYLAYER
 62
    7
 10
52.30975386144345
 20
41.50909959219847
 30
0
  0
VERTEX
  5
4ED
  8
0
  6
BYLAYER
 62
    7
 10
52.30020683893355
 20
41.51044252479143
 30
0
  0
VERTEX
  5
4EE
  8
0
  6
BYLAYER
 62
    7
 10
52.2901937172842
 20
41.51152886980831
 30
0
  0
VERTEX
  5
4EF
  8
0
  6
BYLAYER
 62
    7
 10
52.27970757442671
 20
41.51236416501192
 30
0
  0
VERTEX
  5
4F0
  8
0
  6
BYLAYER
 62
    7
 10
52.26874148829235
 20
41.5129539481652
 30
0
  0
VERTEX
  5
4F1
  8
0
  6
BYLAYER
 62
    7
 10
52.25728853681245
 20
41.5133037570311
 30
0
  0
VERTEX
  5
4F2
  8
0
  6
BYLAYER
 62
    7
 10
52.24534179791827
 20
41.5134191293724
 30
0
  0
SEQEND
  5
4F3
  8
0
  6
BYLAYER
 62
    7
  0
POLYLINE
  5
4F4
  8
0
  6
BYLAYER
 62
    7
 66
    1
 10
0
 20
0
 30
0
 70
    0
  0
VERTEX
  5
4F5
  8
0
  6
BYLAYER
 62
    7
 10
52.24534179791827
 20
41.5134191293724
 30
0
  0
VERTEX
  5
4F6
  8
0
  6
BYLAYER
 62
    7
 10
52.23339505828008
 20
41.5133037570311
 30
0
  0
VERTEX
  5
4F7
  8
0
  6
BYLAYER
 62
    7
 10
52.22194210463353
 20
41.51295394816523
 30
0
  0
VERTEX
  5
4F8
  8
0
  6
BYLAYER
 62
    7
 10
52.21097601500804
 20
41.51236416501192
 30
0
  0
VERTEX
  5
4F9
  8
0
  6
BYLAYER
 62
    7
 10
52.20048986743305
 20
41.51152886980831
 30
0
  0
VERTEX
  5
4FA
  8
0
  6
BYLAYER
 62
    7
 10
52.19047673993786
 20
41.51044252479143
 30
0
  0
VERTEX
  5
4FB
  8
0
  6
BYLAYER
 62
    7
 10
52.18092971055198
 20
41.50909959219847
 30
0
  0
VERTEX
  5
4FC
  8
0
  6
BYLAYER
 62
    7
 10
52.17184185730473
 20
41.50749453426649
 30
0
  0
VERTEX
  5
4FD
  8
0
  6
BYLAYER
 62
    7
 10
52.16320625822557
 20
41.50562181323261
 30
0
  0
VERTEX
  5
4FE
  8
0
  6
BYLAYER
 62
    7
 10
52.15501599134387
 20
41.50347589133396
 30
0
  0
VERTEX
  5
4FF
  8
0
  6
BYLAYER
 62
    7
 10
52.14726413468904
 20
41.50105123080765
 30
0
  0
VERTEX
  5
500
  8
0
  6
BYLAYER
 62
    7
 10
52.1399437662905
 20
41.49834229389077
 30
0
  0
VERTEX
  5
501
  8
0
  6
BYLAYER
 62
    7
 10
52.13304796417763
 20
41.49534354282044
 30
0
  0
VERTEX
  5
502
  8
0
  6
BYLAYER
 62
    7
 10
52.12656980637986
 20
41.49204943983374
 30
0
  0
VERTEX
  5
503
  8
0
  6
BYLAYER
 62
    7
 10
52.12050237092653
 20
41.48845444716779
 30
0
  0
VERTEX
  5
504
  8
0
  6
BYLAYER
 62
    7
 10
52.11483873584712
 20
41.48455302705976
 30
0
  0
VERTEX
  5
505
  8
0
  6
BYLAYER
 62
    7
 10
52.10957197917097
 20
41.48033964174672
 30
0
  0
VERTEX
  5
506
  8
0
  6
BYLAYER
 62
    7
 10
52.10469517892751
 20
41.47580875346573
 30
0
  0
VERTEX
  5
507
  8
0
  6
BYLAYER
 62
    7
 10
52.10020141314615
 20
41.47095482445399
 30
0
  0
VERTEX
  5
508
  8
0
  6
BYLAYER
 62
    7
 10
52.09608375985626
 20
41.4657723169485
 30
0
  0
VERTEX
  5
509
  8
0
  6
BYLAYER
 62
    7
 10
52.09233529708726
 20
41.46025569318649
 30
0
  0
VERTEX
  5
50A
  8
0
  6
BYLAYER
 62
    7
 10
52.0889491028686
 20
41.45439941540495
 30
0
  0
VERTEX
  5
50B
  8
0
  6
BYLAYER
 62
    7
 10
52.08591825522959
 20
41.44819794584109
 30
0
  0
VERTEX
  5
50C
  8
0
  6
BYLAYER
 62
    7
 10
52.0832358321997
 20
41.44164574673198
 30
0
  0
VERTEX
  5
50D
  8
0
  6
BYLAYER
 62
    7
 10
52.08089491180831
 20
41.43473728031476
 30
0
  0
VERTEX
  5
50E
  8
0
  6
BYLAYER
 62
    7
 10
52.07888857208482
 20
41.42746700882649
 30
0
  0
VERTEX
  5
50F
  8
0
  6
BYLAYER
 62
    7
 10
52.07720989105863
 20
41.41982939450426
 30
0
  0
VERTEX
  5
510
  8
0
  6
BYLAYER
 62
    7
 10
52.07585194675917
 20
41.41181889958523
 30
0
  0
VERTEX
  5
511
  8
0
  6
BYLAYER
 62
    7
 10
52.0748078172158
 20
41.40342998630654
 30
0
  0
VERTEX
  5
512
  8
0
  6
BYLAYER
 62
    7
 10
52.07407058045793
 20
41.39465711690524
 30
0
  0
VERTEX
  5
513
  8
0
  6
BYLAYER
 62
    7
 10
52.07363331451499
 20
41.38549475361847
 30
0
  0
VERTEX
  5
514
  8
0
  6
BYLAYER
 62
    7
 10
52.07348909741638
 20
41.37593735868329
 30
0
  0
SEQEND
  5
515
  8
0
  6
BYLAYER
 62
    7
  0
POLYLINE
  5
516
  8
0
  6
BYLAYER
 62
    7
 66
    1
 10
0
 20
0
 30
0
 70
    0
  0
VERTEX
  5
517
  8
0
  6
BYLAYER
 62
    7
 10
52.07348909741638
 20
41.37593735868329
 30
0
  0
VERTEX
  5
518
  8
0
  6
BYLAYER
 62
    7
 10
52.07333911394663
 20
41.36471858924274
 30
0
  0
VERTEX
  5
519
  8
0
  6
BYLAYER
 62
    7
 10
52.07286147428142
 20
41.35411267306763
 30
0
  0
VERTEX
  5
51A
  8
0
  6
BYLAYER
 62
    7
 10
52.07201464453681
 20
41.34410299677114
 30
0
  0
VERTEX
  5
51B
  8
0
  6
BYLAYER
 62
    7
 10
52.07075709082888
 20
41.33467294696649
 30
0
  0
VERTEX
  5
51C
  8
0
  6
BYLAYER
 62
    7
 10
52.06904727927369
 20
41.32580591026687
 30
0
  0
VERTEX
  5
51D
  8
0
  6
BYLAYER
 62
    7
 10
52.06684367598734
 20
41.31748527328559
 30
0
  0
VERTEX
  5
51E
  8
0
  6
BYLAYER
 62
    7
 10
52.06410474708584
 20
41.30969442263577
 30
0
  0
VERTEX
  5
51F
  8
0
  6
BYLAYER
 62
    7
 10
52.06078895868532
 20
41.30241674493068
 30
0
  0
VERTEX
  5
520
  8
0
  6
BYLAYER
 62
    7
 10
52.05685477690183
 20
41.2956356267835
 30
0
  0
VERTEX
  5
521
  8
0
  6
BYLAYER
 62
    7
 10
52.05226066785139
 20
41.28933445480745
 30
0
  0
VERTEX
  5
522
  8
0
  6
BYLAYER
 62
    7
 10
52.04696509765016
 20
41.2834966156158
 30
0
  0
VERTEX
  5
523
  8
0
  6
BYLAYER
 62
    7
 10
52.04092653241412
 20
41.27810549582175
 30
0
  0
VERTEX
  5
524
  8
0
  6
BYLAYER
 62
    7
 10
52.03410343825936
 20
41.27314448203843
 30
0
  0
VERTEX
  5
525
  8
0
  6
BYLAYER
 62
    7
 10
52.02645428130198
 20
41.26859696087919
 30
0
  0
VERTEX
  5
526
  8
0
  6
BYLAYER
 62
    7
 10
52.01793752765805
 20
41.26444631895717
 30
0
  0
VERTEX
  5
527
  8
0
  6
BYLAYER
 62
    7
 10
52.0085116434436
 20
41.26067594288558
 30
0
  0
VERTEX
  5
528
  8
0
  6
BYLAYER
 62
    7
 10
51.99813509477471
 20
41.25726921927769
 30
0
  0
VERTEX
  5
529
  8
0
  6
BYLAYER
 62
    7
 10
51.98676634776749
 20
41.25420953474666
 30
0
  0
VERTEX
  5
52A
  8
0
  6
BYLAYER
 62
    7
 10
51.97436386853795
 20
41.25148027590572
 30
0
  0
VERTEX
  5
52B
  8
0
  6
BYLAYER
 62
    7
 10
51.96088612320219
 20
41.24906482936813
 30
0
  0
VERTEX
  5
52C
  8
0
  6
BYLAYER
 62
    7
 10
51.94629157787628
 20
41.24694658174707
 30
0
  0
VERTEX
  5
52D
  8
0
  6
BYLAYER
 62
    7
 10
51.93053869867627
 20
41.24510891965573
 30
0
  0
VERTEX
  5
52E
  8
0
  6
BYLAYER
 62
    7
 10
51.91358595171825
 20
41.24353522970741
 30
0
  0
VERTEX
  5
52F
  8
0
  6
BYLAYER
 62
    7
 10
51.89539180311829
 20
41.24220889851526
 30
0
  0
VERTEX
  5
530
  8
0
  6
BYLAYER
 62
    7
 10
51.87591471899243
 20
41.24111331269251
 30
0
  0
VERTEX
  5
531
  8
0
  6
BYLAYER
 62
    7
 10
51.85511316545674
 20
41.2402318588524
 30
0
  0
VERTEX
  5
532
  8
0
  6
BYLAYER
 62
    7
 10
51.83294560862736
 20
41.23954792360806
 30
0
  0
VERTEX
  5
533
  8
0
  6
BYLAYER
 62
    7
 10
51.80937051462023
 20
41.23904489357287
 30
0
  0
VERTEX
  5
534
  8
0
  6
BYLAYER
 62
    7
 10
51.78434634955154
 20
41.23870615535989
 30
0
  0
VERTEX
  5
535
  8
0
  6
BYLAYER
 62
    7
 10
51.75783157953728
 20
41.23851509558244
 30
0
  0
VERTEX
  5
536
  8
0
  6
BYLAYER
 62
    7
 10
51.72978467069358
 20
41.23845510085367
 30
0
  0
SEQEND
  5
537
  8
0
  6
BYLAYER
 62
    7
  0
POLYLINE
  5
538
  8
0
  6
BYLAYER
 62
    7
 66
    1
 10
0
 20
0
 30
0
 70
    0
  0
VERTEX
  5
539
  8
0
  6
BYLAYER
 62
    7
 10
51.72978467069358
 20
41.23845510085367
 30
0
  0
VERTEX
  5
53A
  8
0
  6
BYLAYER
 62
    7
 10
51.71160207032115
 20
41.23837095908249
 30
0
  0
VERTEX
  5
53B
  8
0
  6
BYLAYER
 62
    7
 10
51.69365828833418
 20
41.23812137233418
 30
0
  0
VERTEX
  5
53C
  8
0
  6
BYLAYER
 62
    7
 10
51.67597755290521
 20
41.23771059845659
 30
0
  0
VERTEX
  5
53D
  8
0
  6
BYLAYER
 62
    7
 10
51.65858409220678
 20
41.23714289529751
 30
0
  0
VERTEX
  5
53E
  8
0
  6
BYLAYER
 62
    7
 10
51.64150213441144
 20
41.2364225207048
 30
0
  0
VERTEX
  5
53F
  8
0
  6
BYLAYER
 62
    7
 10
51.62475590769175
 20
41.23555373252626
 30
0
  0
VERTEX
  5
540
  8
0
  6
BYLAYER
 62
    7
 10
51.6083696402202
 20
41.23454078860972
 30
0
  0
VERTEX
  5
541
  8
0
  6
BYLAYER
 62
    7
 10
51.59236756016939
 20
41.23338794680302
 30
0
  0
VERTEX
  5
542
  8
0
  6
BYLAYER
 62
    7
 10
51.57677389571187
 20
41.232099464954
 30
0
  0
VERTEX
  5
543
  8
0
  6
BYLAYER
 62
    7
 10
51.56161287502013
 20
41.2306796009105
 30
0
  0
VERTEX
  5
544
  8
0
  6
BYLAYER
 62
    7
 10
51.54690872626678
 20
41.22913261252033
 30
0
  0
VERTEX
  5
545
  8
0
  6
BYLAYER
 62
    7
 10
51.5326856776243
 20
41.22746275763133
 30
0
  0
VERTEX
  5
546
  8
0
  6
BYLAYER
 62
    7
 10
51.51896795726525
 20
41.22567429409128
 30
0
  0
VERTEX
  5
547
  8
0
  6
BYLAYER
 62
    7
 10
51.50577979336221
 20
41.22377147974805
 30
0
  0
VERTEX
  5
548
  8
0
  6
BYLAYER
 62
    7
 10
51.49314541408771
 20
41.22175857244946
 30
0
  0
VERTEX
  5
549
  8
0
  6
BYLAYER
 62
    7
 10
51.48108904761425
 20
41.21963983004332
 30
0
  0
VERTEX
  5
54A
  8
0
  6
BYLAYER
 62
    7
 10
51.46963492211441
 20
41.21741951037752
 30
0
  0
VERTEX
  5
54B
  8
0
  6
BYLAYER
 62
    7
 10
51.45880726576073
 20
41.21510187129982
 30
0
  0
VERTEX
  5
54C
  8
0
  6
BYLAYER
 62
    7
 10
51.44863030672575
 20
41.2126911706581
 30
0
  0
VERTEX
  5
54D
  8
0
  6
BYLAYER
 62
    7
 10
51.43912827318201
 20
41.21019166630016
 30
0
  0
VERTEX
  5
54E
  8
0
  6
BYLAYER
 62
    7
 10
51.43032539330207
 20
41.20760761607383
 30
0
  0
VERTEX
  5
54F
  8
0
  6
BYLAYER
 62
    7
 10
51.42224589525848
 20
41.20494327782696
 30
0
  0
VERTEX
  5
550
  8
0
  6
BYLAYER
 62
    7
 10
51.41491400722374
 20
41.20220290940734
 30
0
  0
VERTEX
  5
551
  8
0
  6
BYLAYER
 62
    7
 10
51.40835395737047
 20
41.19939076866285
 30
0
  0
VERTEX
  5
552
  8
0
  6
BYLAYER
 62
    7
 10
51.40258997387112
 20
41.19651111344125
 30
0
  0
VERTEX
  5
553
  8
0
  6
BYLAYER
 62
    7
 10
51.39764628489829
 20
41.19356820159042
 30
0
  0
VERTEX
  5
554
  8
0
  6
BYLAYER
 62
    7
 10
51.39354711862451
 20
41.19056629095821
 30
0
  0
VERTEX
  5
555
  8
0
  6
BYLAYER
 62
    7
 10
51.39031670322234
 20
41.18750963939238
 30
0
  0
VERTEX
  5
556
  8
0
  6
BYLAYER
 62
    7
 10
51.38797926686428
 20
41.18440250474079
 30
0
  0
VERTEX
  5
557
  8
0
  6
BYLAYER
 62
    7
 10
51.38655903772293
 20
41.18124914485131
 30
0
  0
VERTEX
  5
558
  8
0
  6
BYLAYER
 62
    7
 10
51.3860802439708
 20
41.17805381757171
 30
0
  0
SEQEND
  5
559
  8
0
  6
BYLAYER
 62
    7
  0
POLYLINE
  5
55A
  8
0
  6
BYLAYER
 62
    7
 66
    1
 10
0
 20
0
 30
0
 70
    0
  0
VERTEX
  5
55B
  8
0
  6
BYLAYER
 62
    7
 10
51.3860802439708
 20
41.17805381757171
 30
0
  0
VERTEX
  5
55C
  8
0
  6
BYLAYER
 62
    7
 10
51.38305293049203
 20
41.16064940663606
 30
0
  0
VERTEX
  5
55D
  8
0
  6
BYLAYER
 62
    7
 10
51.37409154427637
 20
41.14335069060638
 30
0
  0
VERTEX
  5
55E
  8
0
  6
BYLAYER
 62
    7
 10
51.35937691665481
 20
41.12618874977046
 30
0
  0
VERTEX
  5
55F
  8
0
  6
BYLAYER
 62
    7
 10
51.33908987895839
 20
41.10919466441588
 30
0
  0
VERTEX
  5
560
  8
0
  6
BYLAYER
 62
    7
 10
51.3134112625181
 20
41.09239951483037
 30
0
  0
VERTEX
  5
561
  8
0
  6
BYLAYER
 62
    7
 10
51.28252189866501
 20
41.07583438130157
 30
0
  0
VERTEX
  5
562
  8
0
  6
BYLAYER
 62
    7
 10
51.24660261873005
 20
41.05953034411716
 30
0
  0
VERTEX
  5
563
  8
0
  6
BYLAYER
 62
    7
 10
51.20583425404429
 20
41.04351848356486
 30
0
  0
VERTEX
  5
564
  8
0
  6
BYLAYER
 62
    7
 10
51.16039763593868
 20
41.02782987993225
 30
0
  0
VERTEX
  5
565
  8
0
  6
BYLAYER
 62
    7
 10
51.1104735957443
 20
41.01249561350703
 30
0
  0
VERTEX
  5
566
  8
0
  6
BYLAYER
 62
    7
 10
51.05624296479212
 20
40.99754676457697
 30
0
  0
VERTEX
  5
567
  8
0
  6
BYLAYER
 62
    7
 10
50.99788657441319
 20
40.98301441342962
 30
0
  0
VERTEX
  5
568
  8
0
  6
BYLAYER
 62
    7
 10
50.93558525593846
 20
40.96892964035271
 30
0
  0
VERTEX
  5
569
  8
0
  6
BYLAYER
 62
    7
 10
50.86951984069898
 20
40.95532352563391
 30
0
  0
VERTEX
  5
56A
  8
0
  6
BYLAYER
 62
    7
 10
50.79987116002576
 20
40.94222714956088
 30
0
  0
VERTEX
  5
56B
  8
0
  6
BYLAYER
 62
    7
 10
50.72682004524981
 20
40.92967159242127
 30
0
  0
VERTEX
  5
56C
  8
0
  6
BYLAYER
 62
    7
 10
50.65054732770213
 20
40.91768793450278
 30
0
  0
VERTEX
  5
56D
  8
0
  6
BYLAYER
 62
    7
 10
50.57123383871374
 20
40.9063072560931
 30
0
  0
VERTEX
  5
56E
  8
0
  6
BYLAYER
 62
    7
 10
50.48906040961563
 20
40.89556063747989
 30
0
  0
VERTEX
  5
56F
  8
0
  6
BYLAYER
 62
    7
 10
50.40420787173886
 20
40.88547915895079
 30
0
  0
VERTEX
  5
570
  8
0
  6
BYLAYER
 62
    7
 10
50.31685705641442
 20
40.87609390079352
 30
0
  0
VERTEX
  5
571
  8
0
  6
BYLAYER
 62
    7
 10
50.22718879497329
 20
40.86743594329575
 30
0
  0
VERTEX
  5
572
  8
0
  6
BYLAYER
 62
    7
 10
50.1353839187465
 20
40.8595363667451
 30
0
  0
VERTEX
  5
573
  8
0
  6
BYLAYER
 62
    7
 10
50.04162325906508
 20
40.85242625142926
 30
0
  0
VERTEX
  5
574
  8
0
  6
BYLAYER
 62
    7
 10
49.94608764726003
 20
40.84613667763594
 30
0
  0
VERTEX
  5
575
  8
0
  6
BYLAYER
 62
    7
 10
49.84895791466234
 20
40.84069872565277
 30
0
  0
VERTEX
  5
576
  8
0
  6
BYLAYER
 62
    7
 10
49.75041489260305
 20
40.83614347576749
 30
0
  0
VERTEX
  5
577
  8
0
  6
BYLAYER
 62
    7
 10
49.65063941241313
 20
40.8325020082677
 30
0
  0
VERTEX
  5
578
  8
0
  6
BYLAYER
 62
    7
 10
49.54981230542366
 20
40.82980540344106
 30
0
  0
VERTEX
  5
579
  8
0
  6
BYLAYER
 62
    7
 10
49.44811440296559
 20
40.82808474157535
 30
0
  0
VERTEX
  5
57A
  8
0
  6
BYLAYER
 62
    7
 10
49.34572653636997
 20
40.82737110295811
 30
0
  0
SEQEND
  5
57B
  8
0
  6
BYLAYER
 62
    7
  0
POLYLINE
  5
57C
  8
0
  6
BYLAYER
 62
    7
 66
    1
 10
0
 20
0
 30
0
 70
    0
  0
VERTEX
  5
57D
  8
0
  6
BYLAYER
 62
    7
 10
51.12830155857331
 20
54.07933295883017
 30
0
  0
VERTEX
  5
57E
  8
0
  6
BYLAYER
 62
    7
 10
51.3860802439708
 20
53.96254394297708
 30
0
  0
VERTEX
  5
57F
  8
0
  6
BYLAYER
 62
    7
 10
51.3860802439708
 20
48.52850220477765
 30
0
  0
VERTEX
  5
580
  8
0
  6
BYLAYER
 62
    7
 10
51.3860802439708
 20
43.09446046657824
 30
0
  0
VERTEX
  5
581
  8
0
  6
BYLAYER
 62
    7
 10
51.72978467069358
 20
43.09446046657824
 30
0
  0
SEQEND
  5
582
  8
0
  6
BYLAYER
 62
    7
  0
POLYLINE
  5
583
  8
0
  6
BYLAYER
 62
    7
 66
    1
 10
0
 20
0
 30
0
 70
    0
  0
VERTEX
  5
584
  8
0
  6
BYLAYER
 62
    7
 10
47.66039304253665
 20
39.79489723932875
 30
0
  0
VERTEX
  5
585
  8
0
  6
BYLAYER
 62
    7
 10
47.62327336083035
 20
39.79488633437815
 30
0
  0
VERTEX
  5
586
  8
0
  6
BYLAYER
 62
    7
 10
47.58853168909859
 20
39.79482681899824
 30
0
  0
VERTEX
  5
587
  8
0
  6
BYLAYER
 62
    7
 10
47.55608931013683
 20
39.79467849239654
 30
0
  0
VERTEX
  5
588
  8
0
  6
BYLAYER
 62
    7
 10
47.52586750674047
 20
39.79440115378075
 30
0
  0
VERTEX
  5
589
  8
0
  6
BYLAYER
 62
    7
 10
47.497787561705
 20
39.79395460235837
 30
0
  0
VERTEX
  5
58A
  8
0
  6
BYLAYER
 62
    7
 10
47.47177075782584
 20
39.79329863733722
 30
0
  0
VERTEX
  5
58B
  8
0
  6
BYLAYER
 62
    7
 10
47.44773837789843
 20
39.79239305792473
 30
0
  0
VERTEX
  5
58C
  8
0
  6
BYLAYER
 62
    7
 10
47.42561170471824
 20
39.79119766332866
 30
0
  0
VERTEX
  5
58D
  8
0
  6
BYLAYER
 62
    7
 10
47.40531202108066
 20
39.78967225275655
 30
0
  0
VERTEX
  5
58E
  8
0
  6
BYLAYER
 62
    7
 10
47.38676060978116
 20
39.78777662541611
 30
0
  0
VERTEX
  5
58F
  8
0
  6
BYLAYER
 62
    7
 10
47.36987875361518
 20
39.78547058051491
 30
0
  0
VERTEX
  5
590
  8
0
  6
BYLAYER
 62
    7
 10
47.35458773537816
 20
39.78271391726059
 30
0
  0
VERTEX
  5
591
  8
0
  6
BYLAYER
 62
    7
 10
47.34080883786555
 20
39.77946643486076
 30
0
  0
VERTEX
  5
592
  8
0
  6
BYLAYER
 62
    7
 10
47.32846334387278
 20
39.77568793252303
 30
0
  0
VERTEX
  5
593
  8
0
  6
BYLAYER
 62
    7
 10
47.31747253619528
 20
39.77133820945509
 30
0
  0
VERTEX
  5
594
  8
0
  6
BYLAYER
 62
    7
 10
47.30775769762852
 20
39.76637706486449
 30
0
  0
VERTEX
  5
595
  8
0
  6
BYLAYER
 62
    7
 10
47.2992401109679
 20
39.76076429795891
 30
0
  0
VERTEX
  5
596
  8
0
  6
BYLAYER
 62
    7
 10
47.29184105900893
 20
39.75445970794595
 30
0
  0
VERTEX
  5
597
  8
0
  6
BYLAYER
 62
    7
 10
47.28548182454698
 20
39.74742309403322
 30
0
  0
VERTEX
  5
598
  8
0
  6
BYLAYER
 62
    7
 10
47.28008369037751
 20
39.73961425542839
 30
0
  0
VERTEX
  5
599
  8
0
  6
BYLAYER
 62
    7
 10
47.27556793929597
 20
39.73099299133906
 30
0
  0
VERTEX
  5
59A
  8
0
  6
BYLAYER
 62
    7
 10
47.27185585409781
 20
39.72151910097286
 30
0
  0
VERTEX
  5
59B
  8
0
  6
BYLAYER
 62
    7
 10
47.26886871757846
 20
39.71115238353738
 30
0
  0
VERTEX
  5
59C
  8
0
  6
BYLAYER
 62
    7
 10
47.26652781253334
 20
39.69985263824029
 30
0
  0
VERTEX
  5
59D
  8
0
  6
BYLAYER
 62
    7
 10
47.26475442175794
 20
39.6875796642892
 30
0
  0
VERTEX
  5
59E
  8
0
  6
BYLAYER
 62
    7
 10
47.26346982804768
 20
39.67429326089174
 30
0
  0
VERTEX
  5
59F
  8
0
  6
BYLAYER
 62
    7
 10
47.26259531419797
 20
39.65995322725552
 30
0
  0
VERTEX
  5
5A0
  8
0
  6
BYLAYER
 62
    7
 10
47.2620521630043
 20
39.64451936258817
 30
0
  0
VERTEX
  5
5A1
  8
0
  6
BYLAYER
 62
    7
 10
47.26176165726206
 20
39.62795146609736
 30
0
  0
VERTEX
  5
5A2
  8
0
  6
BYLAYER
 62
    7
 10
47.26164507976675
 20
39.61020933699062
 30
0
  0
VERTEX
  5
5A3
  8
0
  6
BYLAYER
 62
    7
 10
47.26162371331377
 20
39.59125277447567
 30
0
  0
SEQEND
  5
5A4
  8
0
  6
BYLAYER
 62
    7
  0
POLYLINE
  5
5A5
  8
0
  6
BYLAYER
 62
    7
 66
    1
 10
0
 20
0
 30
0
 70
    0
  0
VERTEX
  5
5A6
  8
0
  6
BYLAYER
 62
    7
 10
47.26162371331377
 20
39.59125277447567
 30
0
  0
VERTEX
  5
5A7
  8
0
  6
BYLAYER
 62
    7
 10
47.26081767488716
 20
39.55622048522807
 30
0
  0
VERTEX
  5
5A8
  8
0
  6
BYLAYER
 62
    7
 10
47.25842837819341
 20
39.51995588133805
 30
0
  0
VERTEX
  5
5A9
  8
0
  6
BYLAYER
 62
    7
 10
47.25449905111155
 20
39.48255317791701
 30
0
  0
VERTEX
  5
5AA
  8
0
  6
BYLAYER
 62
    7
 10
47.24907292152066
 20
39.44410659007632
 30
0
  0
VERTEX
  5
5AB
  8
0
  6
BYLAYER
 62
    7
 10
47.24219321729981
 20
39.40471033292726
 30
0
  0
VERTEX
  5
5AC
  8
0
  6
BYLAYER
 62
    7
 10
47.23390316632805
 20
39.36445862158128
 30
0
  0
VERTEX
  5
5AD
  8
0
  6
BYLAYER
 62
    7
 10
47.22424599648441
 20
39.32344567114963
 30
0
  0
VERTEX
  5
5AE
  8
0
  6
BYLAYER
 62
    7
 10
47.21326493564797
 20
39.28176569674365
 30
0
  0
VERTEX
  5
5AF
  8
0
  6
BYLAYER
 62
    7
 10
47.20100321169784
 20
39.23951291347476
 30
0
  0
VERTEX
  5
5B0
  8
0
  6
BYLAYER
 62
    7
 10
47.18750405251299
 20
39.19678153645427
 30
0
  0
VERTEX
  5
5B1
  8
0
  6
BYLAYER
 62
    7
 10
47.17281068597258
 20
39.15366578079353
 30
0
  0
VERTEX
  5
5B2
  8
0
  6
BYLAYER
 62
    7
 10
47.15696633995559
 20
39.11025986160383
 30
0
  0
VERTEX
  5
5B3
  8
0
  6
BYLAYER
 62
    7
 10
47.14001424234111
 20
39.0666579939966
 30
0
  0
VERTEX
  5
5B4
  8
0
  6
BYLAYER
 62
    7
 10
47.12199762100818
 20
39.02295439308316
 30
0
  0
VERTEX
  5
5B5
  8
0
  6
BYLAYER
 62
    7
 10
47.10295970383591
 20
38.97924327397482
 30
0
  0
VERTEX
  5
5B6
  8
0
  6
BYLAYER
 62
    7
 10
47.08294371870332
 20
38.93561885178296
 30
0
  0
VERTEX
  5
5B7
  8
0
  6
BYLAYER
 62
    7
 10
47.06199289348947
 20
38.8921753416189
 30
0
  0
VERTEX
  5
5B8
  8
0
  6
BYLAYER
 62
    7
 10
47.04015045607343
 20
38.849006958594
 30
0
  0
VERTEX
  5
5B9
  8
0
  6
BYLAYER
 62
    7
 10
47.01745963433427
 20
38.80620791781964
 30
0
  0
VERTEX
  5
5BA
  8
0
  6
BYLAYER
 62
    7
 10
46.99396365615108
 20
38.7638724344071
 30
0
  0
VERTEX
  5
5BB
  8
0
  6
BYLAYER
 62
    7
 10
46.96970574940285
 20
38.72209472346776
 30
0
  0
VERTEX
  5
5BC
  8
0
  6
BYLAYER
 62
    7
 10
46.94472914196868
 20
38.68096900011295
 30
0
  0
VERTEX
  5
5BD
  8
0
  6
BYLAYER
 62
    7
 10
46.91907706172761
 20
38.64058947945401
 30
0
  0
VERTEX
  5
5BE
  8
0
  6
BYLAYER
 62
    7
 10
46.8927927365587
 20
38.60105037660233
 30
0
  0
VERTEX
  5
5BF
  8
0
  6
BYLAYER
 62
    7
 10
46.86591939434106
 20
38.56244590666923
 30
0
  0
VERTEX
  5
5C0
  8
0
  6
BYLAYER
 62
    7
 10
46.83850026295369
 20
38.52487028476602
 30
0
  0
VERTEX
  5
5C1
  8
0
  6
BYLAYER
 62
    7
 10
46.81057857027569
 20
38.48841772600411
 30
0
  0
VERTEX
  5
5C2
  8
0
  6
BYLAYER
 62
    7
 10
46.7821975441861
 20
38.45318244549476
 30
0
  0
VERTEX
  5
5C3
  8
0
  6
BYLAYER
 62
    7
 10
46.75340041256399
 20
38.41925865834943
 30
0
  0
VERTEX
  5
5C4
  8
0
  6
BYLAYER
 62
    7
 10
46.72423040328844
 20
38.38674057967937
 30
0
  0
VERTEX
  5
5C5
  8
0
  6
BYLAYER
 62
    7
 10
46.69473074423846
 20
38.35572242459596
 30
0
  0
SEQEND
  5
5C6
  8
0
  6
BYLAYER
 62
    7
  0
POLYLINE
  5
5C7
  8
0
  6
BYLAYER
 62
    7
 66
    1
 10
0
 20
0
 30
0
 70
    0
  0
VERTEX
  5
5C8
  8
0
  6
BYLAYER
 62
    7
 10
46.69473074423846
 20
38.35572242459596
 30
0
  0
VERTEX
  5
5C9
  8
0
  6
BYLAYER
 62
    7
 10
46.61729961469534
 20
38.28059263074375
 30
0
  0
VERTEX
  5
5CA
  8
0
  6
BYLAYER
 62
    7
 10
46.53706469049291
 20
38.21015640242098
 30
0
  0
VERTEX
  5
5CB
  8
0
  6
BYLAYER
 62
    7
 10
46.45420092362369
 20
38.14442066007754
 30
0
  0
VERTEX
  5
5CC
  8
0
  6
BYLAYER
 62
    7
 10
46.36888326608023
 20
38.08339232416327
 30
0
  0
VERTEX
  5
5CD
  8
0
  6
BYLAYER
 62
    7
 10
46.28128666985508
 20
38.0270783151281
 30
0
  0
VERTEX
  5
5CE
  8
0
  6
BYLAYER
 62
    7
 10
46.19158608694079
 20
37.97548555342191
 30
0
  0
VERTEX
  5
5CF
  8
0
  6
BYLAYER
 62
    7
 10
46.09995646932987
 20
37.92862095949445
 30
0
  0
VERTEX
  5
5D0
  8
0
  6
BYLAYER
 62
    7
 10
46.00657276901487
 20
37.88649145379576
 30
0
  0
VERTEX
  5
5D1
  8
0
  6
BYLAYER
 62
    7
 10
45.91160993798829
 20
37.84910395677554
 30
0
  0
VERTEX
  5
5D2
  8
0
  6
BYLAYER
 62
    7
 10
45.81524292824271
 20
37.81646538888374
 30
0
  0
VERTEX
  5
5D3
  8
0
  6
BYLAYER
 62
    7
 10
45.71764669177067
 20
37.78858267057026
 30
0
  0
VERTEX
  5
5D4
  8
0
  6
BYLAYER
 62
    7
 10
45.61899618056469
 20
37.76546272228492
 30
0
  0
VERTEX
  5
5D5
  8
0
  6
BYLAYER
 62
    7
 10
45.51946634661728
 20
37.74711246447756
 30
0
  0
VERTEX
  5
5D6
  8
0
  6
BYLAYER
 62
    7
 10
45.41923214192101
 20
37.73353881759807
 30
0
  0
VERTEX
  5
5D7
  8
0
  6
BYLAYER
 62
    7
 10
45.31846851846841
 20
37.72474870209639
 30
0
  0
VERTEX
  5
5D8
  8
0
  6
BYLAYER
 62
    7
 10
45.21735042825198
 20
37.72074903842228
 30
0
  0
VERTEX
  5
5D9
  8
0
  6
BYLAYER
 62
    7
 10
45.11605282326433
 20
37.72154674702568
 30
0
  0
VERTEX
  5
5DA
  8
0
  6
BYLAYER
 62
    7
 10
45.01475065549793
 20
37.72714874835644
 30
0
  0
VERTEX
  5
5DB
  8
0
  6
BYLAYER
 62
    7
 10
44.91361887694536
 20
37.7375619628644
 30
0
  0
VERTEX
  5
5DC
  8
0
  6
BYLAYER
 62
    7
 10
44.81283243959912
 20
37.75279331099945
 30
0
  0
VERTEX
  5
5DD
  8
0
  6
BYLAYER
 62
    7
 10
44.71256629545177
 20
37.77284971321148
 30
0
  0
VERTEX
  5
5DE
  8
0
  6
BYLAYER
 62
    7
 10
44.61299539649585
 20
37.7977380899503
 30
0
  0
VERTEX
  5
5DF
  8
0
  6
BYLAYER
 62
    7
 10
44.51429469472387
 20
37.82746536166587
 30
0
  0
VERTEX
  5
5E0
  8
0
  6
BYLAYER
 62
    7
 10
44.41663914212837
 20
37.86203844880797
 30
0
  0
VERTEX
  5
5E1
  8
0
  6
BYLAYER
 62
    7
 10
44.32020369070193
 20
37.90146427182651
 30
0
  0
VERTEX
  5
5E2
  8
0
  6
BYLAYER
 62
    7
 10
44.22516329243702
 20
37.94574975117132
 30
0
  0
VERTEX
  5
5E3
  8
0
  6
BYLAYER
 62
    7
 10
44.13169289932625
 20
37.99490180729234
 30
0
  0
VERTEX
  5
5E4
  8
0
  6
BYLAYER
 62
    7
 10
44.03996746336209
 20
38.04892736063934
 30
0
  0
VERTEX
  5
5E5
  8
0
  6
BYLAYER
 62
    7
 10
43.9501619365371
 20
38.10783333166226
 30
0
  0
VERTEX
  5
5E6
  8
0
  6
BYLAYER
 62
    7
 10
43.86245127084383
 20
38.17162664081097
 30
0
  0
VERTEX
  5
5E7
  8
0
  6
BYLAYER
 62
    7
 10
43.7770104182748
 20
38.24031420853531
 30
0
  0
SEQEND
  5
5E8
  8
0
  6
BYLAYER
 62
    7
  0
POLYLINE
  5
5E9
  8
0
  6
BYLAYER
 62
    7
 66
    1
 10
0
 20
0
 30
0
 70
    0
  0
VERTEX
  5
5EA
  8
0
  6
BYLAYER
 62
    7
 10
43.7770104182748
 20
38.24031420853531
 30
0
  0
VERTEX
  5
5EB
  8
0
  6
BYLAYER
 62
    7
 10
43.74886201309714
 20
38.26535013089104
 30
0
  0
VERTEX
  5
5EC
  8
0
  6
BYLAYER
 62
    7
 10
43.72041079878458
 20
38.29311290524631
 30
0
  0
VERTEX
  5
5ED
  8
0
  6
BYLAYER
 62
    7
 10
43.69173988185915
 20
38.32343490059905
 30
0
  0
VERTEX
  5
5EE
  8
0
  6
BYLAYER
 62
    7
 10
43.66293236884275
 20
38.35614848594732
 30
0
  0
VERTEX
  5
5EF
  8
0
  6
BYLAYER
 62
    7
 10
43.63407136625734
 20
38.39108603028907
 30
0
  0
VERTEX
  5
5F0
  8
0
  6
BYLAYER
 62
    7
 10
43.60523998062489
 20
38.42807990262231
 30
0
  0
VERTEX
  5
5F1
  8
0
  6
BYLAYER
 62
    7
 10
43.57652131846736
 20
38.46696247194504
 30
0
  0
VERTEX
  5
5F2
  8
0
  6
BYLAYER
 62
    7
 10
43.54799848630665
 20
38.50756610725526
 30
0
  0
VERTEX
  5
5F3
  8
0
  6
BYLAYER
 62
    7
 10
43.51975459066476
 20
38.54972317755097
 30
0
  0
VERTEX
  5
5F4
  8
0
  6
BYLAYER
 62
    7
 10
43.49187273806358
 20
38.59326605183016
 30
0
  0
VERTEX
  5
5F5
  8
0
  6
BYLAYER
 62
    7
 10
43.46443603502516
 20
38.63802709909088
 30
0
  0
VERTEX
  5
5F6
  8
0
  6
BYLAYER
 62
    7
 10
43.43752758807135
 20
38.68383868833099
 30
0
  0
VERTEX
  5
5F7
  8
0
  6
BYLAYER
 62
    7
 10
43.41123050372414
 20
38.73053318854859
 30
0
  0
VERTEX
  5
5F8
  8
0
  6
BYLAYER
 62
    7
 10
43.38562788850551
 20
38.77794296874168
 30
0
  0
VERTEX
  5
5F9
  8
0
  6
BYLAYER
 62
    7
 10
43.36080284893738
 20
38.82590039790821
 30
0
  0
VERTEX
  5
5FA
  8
0
  6
BYLAYER
 62
    7
 10
43.33683849154167
 20
38.87423784504617
 30
0
  0
VERTEX
  5
5FB
  8
0
  6
BYLAYER
 62
    7
 10
43.31381792284036
 20
38.92278767915365
 30
0
  0
VERTEX
  5
5FC
  8
0
  6
BYLAYER
 62
    7
 10
43.29182424935546
 20
38.97138226922856
 30
0
  0
VERTEX
  5
5FD
  8
0
  6
BYLAYER
 62
    7
 10
43.27094057760883
 20
39.01985398426887
 30
0
  0
VERTEX
  5
5FE
  8
0
  6
BYLAYER
 62
    7
 10
43.25125001412245
 20
39.06803519327266
 30
0
  0
VERTEX
  5
5FF
  8
0
  6
BYLAYER
 62
    7
 10
43.23283566541828
 20
39.11575826523789
 30
0
  0
VERTEX
  5
600
  8
0
  6
BYLAYER
 62
    7
 10
43.21578063801826
 20
39.16285556916257
 30
0
  0
VERTEX
  5
601
  8
0
  6
BYLAYER
 62
    7
 10
43.20016803844436
 20
39.20915947404463
 30
0
  0
VERTEX
  5
602
  8
0
  6
BYLAYER
 62
    7
 10
43.18608097321851
 20
39.25450234888218
 30
0
  0
VERTEX
  5
603
  8
0
  6
BYLAYER
 62
    7
 10
43.17360254886266
 20
39.29871656267309
 30
0
  0
VERTEX
  5
604
  8
0
  6
BYLAYER
 62
    7
 10
43.16281587189879
 20
39.34163448441548
 30
0
  0
VERTEX
  5
605
  8
0
  6
BYLAYER
 62
    7
 10
43.1538040488488
 20
39.38308848310724
 30
0
  0
VERTEX
  5
606
  8
0
  6
BYLAYER
 62
    7
 10
43.14665018623468
 20
39.42291092774644
 30
0
  0
VERTEX
  5
607
  8
0
  6
BYLAYER
 62
    7
 10
43.14143739057837
 20
39.46093418733104
 30
0
  0
VERTEX
  5
608
  8
0
  6
BYLAYER
 62
    7
 10
43.13824876840182
 20
39.49699063085905
 30
0
  0
VERTEX
  5
609
  8
0
  6
BYLAYER
 62
    7
 10
43.13716742622698
 20
39.53091262732846
 30
0
  0
SEQEND
  5
60A
  8
0
  6
BYLAYER
 62
    7
  0
POLYLINE
  5
60B
  8
0
  6
BYLAYER
 62
    7
 66
    1
 10
0
 20
0
 30
0
 70
    0
  0
VERTEX
  5
60C
  8
0
  6
BYLAYER
 62
    7
 10
43.13716742622698
 20
39.53091262732846
 30
0
  0
VERTEX
  5
60D
  8
0
  6
BYLAYER
 62
    7
 10
43.13708676463828
 20
39.55094651024334
 30
0
  0
VERTEX
  5
60E
  8
0
  6
BYLAYER
 62
    7
 10
43.13683767891328
 20
39.57000130503332
 30
0
  0
VERTEX
  5
60F
  8
0
  6
BYLAYER
 62
    7
 10
43.13640951761369
 20
39.58809886046814
 30
0
  0
VERTEX
  5
610
  8
0
  6
BYLAYER
 62
    7
 10
43.13579162930111
 20
39.6052610253174
 30
0
  0
VERTEX
  5
611
  8
0
  6
BYLAYER
 62
    7
 10
43.13497336253727
 20
39.62150964835083
 30
0
  0
VERTEX
  5
612
  8
0
  6
BYLAYER
 62
    7
 10
43.13394406588381
 20
39.63686657833813
 30
0
  0
VERTEX
  5
613
  8
0
  6
BYLAYER
 62
    7
 10
43.13269308790242
 20
39.65135366404892
 30
0
  0
VERTEX
  5
614
  8
0
  6
BYLAYER
 62
    7
 10
43.13120977715477
 20
39.66499275425296
 30
0
  0
VERTEX
  5
615
  8
0
  6
BYLAYER
 62
    7
 10
43.12948348220252
 20
39.67780569771982
 30
0
  0
VERTEX
  5
616
  8
0
  6
BYLAYER
 62
    7
 10
43.12750355160735
 20
39.68981434321928
 30
0
  0
VERTEX
  5
617
  8
0
  6
BYLAYER
 62
    7
 10
43.12525933393093
 20
39.70104053952094
 30
0
  0
VERTEX
  5
618
  8
0
  6
BYLAYER
 62
    7
 10
43.12274017773491
 20
39.71150613539454
 30
0
  0
VERTEX
  5
619
  8
0
  6
BYLAYER
 62
    7
 10
43.11993543158098
 20
39.72123297960972
 30
0
  0
VERTEX
  5
61A
  8
0
  6
BYLAYER
 62
    7
 10
43.11683444403086
 20
39.73024292093616
 30
0
  0
VERTEX
  5
61B
  8
0
  6
BYLAYER
 62
    7
 10
43.11342656364614
 20
39.73855780814359
 30
0
  0
VERTEX
  5
61C
  8
0
  6
BYLAYER
 62
    7
 10
43.1097011389885
 20
39.74619949000159
 30
0
  0
VERTEX
  5
61D
  8
0
  6
BYLAYER
 62
    7
 10
43.10564751861966
 20
39.7531898152799
 30
0
  0
VERTEX
  5
61E
  8
0
  6
BYLAYER
 62
    7
 10
43.10125505110128
 20
39.75955063274826
 30
0
  0
VERTEX
  5
61F
  8
0
  6
BYLAYER
 62
    7
 10
43.096513084995
 20
39.76530379117622
 30
0
  0
VERTEX
  5
620
  8
0
  6
BYLAYER
 62
    7
 10
43.09141096886252
 20
39.77047113933354
 30
0
  0
VERTEX
  5
621
  8
0
  6
BYLAYER
 62
    7
 10
43.08593805126547
 20
39.77507452598988
 30
0
  0
VERTEX
  5
622
  8
0
  6
BYLAYER
 62
    7
 10
43.08008368076558
 20
39.77913579991495
 30
0
  0
VERTEX
  5
623
  8
0
  6
BYLAYER
 62
    7
 10
43.07383720592449
 20
39.78267680987836
 30
0
  0
VERTEX
  5
624
  8
0
  6
BYLAYER
 62
    7
 10
43.06718797530384
 20
39.78571940464982
 30
0
  0
VERTEX
  5
625
  8
0
  6
BYLAYER
 62
    7
 10
43.06012533746537
 20
39.78828543299901
 30
0
  0
VERTEX
  5
626
  8
0
  6
BYLAYER
 62
    7
 10
43.05263864097071
 20
39.79039674369566
 30
0
  0
VERTEX
  5
627
  8
0
  6
BYLAYER
 62
    7
 10
43.04471723438152
 20
39.79207518550938
 30
0
  0
VERTEX
  5
628
  8
0
  6
BYLAYER
 62
    7
 10
43.03635046625951
 20
39.79334260720986
 30
0
  0
VERTEX
  5
629
  8
0
  6
BYLAYER
 62
    7
 10
43.02752768516629
 20
39.7942208575668
 30
0
  0
VERTEX
  5
62A
  8
0
  6
BYLAYER
 62
    7
 10
43.0182382396636
 20
39.79473178534985
 30
0
  0
VERTEX
  5
62B
  8
0
  6
BYLAYER
 62
    7
 10
43.00847147831307
 20
39.79489723932875
 30
0
  0
SEQEND
  5
62C
  8
0
  6
BYLAYER
 62
    7
  0
POLYLINE
  5
62D
  8
0
  6
BYLAYER
 62
    7
 66
    1
 10
0
 20
0
 30
0
 70
    0
  0
VERTEX
  5
62E
  8
0
  6
BYLAYER
 62
    7
 10
43.00847147831307
 20
39.79489723932875
 30
0
  0
VERTEX
  5
62F
  8
0
  6
BYLAYER
 62
    7
 10
42.99911926431093
 20
39.79468021436982
 30
0
  0
VERTEX
  5
630
  8
0
  6
BYLAYER
 62
    7
 10
42.99011656640961
 20
39.79401754217707
 30
0
  0
VERTEX
  5
631
  8
0
  6
BYLAYER
 62
    7
 10
42.98145302603393
 20
39.79289182677637
 30
0
  0
VERTEX
  5
632
  8
0
  6
BYLAYER
 62
    7
 10
42.97311828460874
 20
39.79128567219367
 30
0
  0
VERTEX
  5
633
  8
0
  6
BYLAYER
 62
    7
 10
42.96510198355887
 20
39.78918168245482
 30
0
  0
VERTEX
  5
634
  8
0
  6
BYLAYER
 62
    7
 10
42.95739376430917
 20
39.78656246158589
 30
0
  0
VERTEX
  5
635
  8
0
  6
BYLAYER
 62
    7
 10
42.94998326828446
 20
39.78341061361269
 30
0
  0
VERTEX
  5
636
  8
0
  6
BYLAYER
 62
    7
 10
42.9428601369096
 20
39.77970874256123
 30
0
  0
VERTEX
  5
637
  8
0
  6
BYLAYER
 62
    7
 10
42.93601401160942
 20
39.77543945245737
 30
0
  0
VERTEX
  5
638
  8
0
  6
BYLAYER
 62
    7
 10
42.92943453380873
 20
39.77058534732708
 30
0
  0
VERTEX
  5
639
  8
0
  6
BYLAYER
 62
    7
 10
42.92311134493245
 20
39.76512903119628
 30
0
  0
VERTEX
  5
63A
  8
0
  6
BYLAYER
 62
    7
 10
42.91703408640534
 20
39.75905310809089
 30
0
  0
VERTEX
  5
63B
  8
0
  6
BYLAYER
 62
    7
 10
42.91119239965226
 20
39.75234018203685
 30
0
  0
VERTEX
  5
63C
  8
0
  6
BYLAYER
 62
    7
 10
42.90557592609808
 20
39.74497285706003
 30
0
  0
VERTEX
  5
63D
  8
0
  6
BYLAYER
 62
    7
 10
42.90017430716759
 20
39.73693373718643
 30
0
  0
VERTEX
  5
63E
  8
0
  6
BYLAYER
 62
    7
 10
42.89497718428568
 20
39.72820542644192
 30
0
  0
VERTEX
  5
63F
  8
0
  6
BYLAYER
 62
    7
 10
42.88997419887716
 20
39.7187705288525
 30
0
  0
VERTEX
  5
640
  8
0
  6
BYLAYER
 62
    7
 10
42.88515499236686
 20
39.70861164844403
 30
0
  0
VERTEX
  5
641
  8
0
  6
BYLAYER
 62
    7
 10
42.88050920617965
 20
39.69771138924246
 30
0
  0
VERTEX
  5
642
  8
0
  6
BYLAYER
 62
    7
 10
42.87602648174033
 20
39.68605235527372
 30
0
  0
VERTEX
  5
643
  8
0
  6
BYLAYER
 62
    7
 10
42.87169646047376
 20
39.67361715056374
 30
0
  0
VERTEX
  5
644
  8
0
  6
BYLAYER
 62
    7
 10
42.86750878380479
 20
39.66038837913846
 30
0
  0
VERTEX
  5
645
  8
0
  6
BYLAYER
 62
    7
 10
42.86345309315824
 20
39.64634864502374
 30
0
  0
VERTEX
  5
646
  8
0
  6
BYLAYER
 62
    7
 10
42.859519029959
 20
39.63148055224561
 30
0
  0
VERTEX
  5
647
  8
0
  6
BYLAYER
 62
    7
 10
42.85569623563183
 20
39.61576670482992
 30
0
  0
VERTEX
  5
648
  8
0
  6
BYLAYER
 62
    7
 10
42.8519743516016
 20
39.59918970680263
 30
0
  0
VERTEX
  5
649
  8
0
  6
BYLAYER
 62
    7
 10
42.8483430192932
 20
39.58173216218966
 30
0
  0
VERTEX
  5
64A
  8
0
  6
BYLAYER
 62
    7
 10
42.84479188013137
 20
39.56337667501693
 30
0
  0
VERTEX
  5
64B
  8
0
  6
BYLAYER
 62
    7
 10
42.84131057554103
 20
39.54410584931036
 30
0
  0
VERTEX
  5
64C
  8
0
  6
BYLAYER
 62
    7
 10
42.83788874694702
 20
39.5239022890959
 30
0
  0
VERTEX
  5
64D
  8
0
  6
BYLAYER
 62
    7
 10
42.83451603577412
 20
39.5027485983995
 30
0
  0
SEQEND
  5
64E
  8
0
  6
BYLAYER
 62
    7
  0
POLYLINE
  5
64F
  8
0
  6
BYLAYER
 62
    7
 66
    1
 10
0
 20
0
 30
0
 70
    0
  0
VERTEX
  5
650
  8
0
  6
BYLAYER
 62
    7
 10
42.83451603577412
 20
39.5027485983995
 30
0
  0
VERTEX
  5
651
  8
0
  6
BYLAYER
 62
    7
 10
42.82223325615588
 20
39.43274136836654
 30
0
  0
VERTEX
  5
652
  8
0
  6
BYLAYER
 62
    7
 10
42.80713806797294
 20
39.36286007086937
 30
0
  0
VERTEX
  5
653
  8
0
  6
BYLAYER
 62
    7
 10
42.7893104972388
 20
39.29320478603361
 30
0
  0
VERTEX
  5
654
  8
0
  6
BYLAYER
 62
    7
 10
42.76883056996697
 20
39.22387559398474
 30
0
  0
VERTEX
  5
655
  8
0
  6
BYLAYER
 62
    7
 10
42.7457783121709
 20
39.15497257484827
 30
0
  0
VERTEX
  5
656
  8
0
  6
BYLAYER
 62
    7
 10
42.72023374986414
 20
39.08659580874975
 30
0
  0
VERTEX
  5
657
  8
0
  6
BYLAYER
 62
    7
 10
42.69227690906011
 20
39.01884537581466
 30
0
  0
VERTEX
  5
658
  8
0
  6
BYLAYER
 62
    7
 10
42.66198781577238
 20
38.95182135616859
 30
0
  0
VERTEX
  5
659
  8
0
  6
BYLAYER
 62
    7
 10
42.62944649601438
 20
38.88562382993698
 30
0
  0
VERTEX
  5
65A
  8
0
  6
BYLAYER
 62
    7
 10
42.5947329757996
 20
38.82035287724545
 30
0
  0
VERTEX
  5
65B
  8
0
  6
BYLAYER
 62
    7
 10
42.55792728114159
 20
38.75610857821948
 30
0
  0
VERTEX
  5
65C
  8
0
  6
BYLAYER
 62
    7
 10
42.51910943805377
 20
38.69299101298459
 30
0
  0
VERTEX
  5
65D
  8
0
  6
BYLAYER
 62
    7
 10
42.47835947254968
 20
38.6311002616663
 30
0
  0
VERTEX
  5
65E
  8
0
  6
BYLAYER
 62
    7
 10
42.43575741064278
 20
38.57053640439017
 30
0
  0
VERTEX
  5
65F
  8
0
  6
BYLAYER
 62
    7
 10
42.39138327834659
 20
38.51139952128165
 30
0
  0
VERTEX
  5
660
  8
0
  6
BYLAYER
 62
    7
 10
42.34531710167458
 20
38.45378969246636
 30
0
  0
VERTEX
  5
661
  8
0
  6
BYLAYER
 62
    7
 10
42.29763890664026
 20
38.39780699806973
 30
0
  0
VERTEX
  5
662
  8
0
  6
BYLAYER
 62
    7
 10
42.24842871925711
 20
38.34355151821735
 30
0
  0
VERTEX
  5
663
  8
0
  6
BYLAYER
 62
    7
 10
42.19776656553859
 20
38.29112333303473
 30
0
  0
VERTEX
  5
664
  8
0
  6
BYLAYER
 62
    7
 10
42.14573247149822
 20
38.24062252264741
 30
0
  0
VERTEX
  5
665
  8
0
  6
BYLAYER
 62
    7
 10
42.09240646314953
 20
38.1921491671809
 30
0
  0
VERTEX
  5
666
  8
0
  6
BYLAYER
 62
    7
 10
42.03786856650595
 20
38.14580334676069
 30
0
  0
VERTEX
  5
667
  8
0
  6
BYLAYER
 62
    7
 10
41.98219880758099
 20
38.10168514151235
 30
0
  0
VERTEX
  5
668
  8
0
  6
BYLAYER
 62
    7
 10
41.92547721238815
 20
38.05989463156138
 30
0
  0
VERTEX
  5
669
  8
0
  6
BYLAYER
 62
    7
 10
41.86778380694091
 20
38.02053189703328
 30
0
  0
VERTEX
  5
66A
  8
0
  6
BYLAYER
 62
    7
 10
41.80919861725279
 20
37.98369701805365
 30
0
  0
VERTEX
  5
66B
  8
0
  6
BYLAYER
 62
    7
 10
41.74980166933723
 20
37.94949007474798
 30
0
  0
VERTEX
  5
66C
  8
0
  6
BYLAYER
 62
    7
 10
41.68967298920774
 20
37.91801114724177
 30
0
  0
VERTEX
  5
66D
  8
0
  6
BYLAYER
 62
    7
 10
41.62889260287784
 20
37.88936031566053
 30
0
  0
VERTEX
  5
66E
  8
0
  6
BYLAYER
 62
    7
 10
41.56754053636101
 20
37.86363766012988
 30
0
  0
VERTEX
  5
66F
  8
0
  6
BYLAYER
 62
    7
 10
41.50569681567072
 20
37.84094326077523
 30
0
  0
SEQEND
  5
670
  8
0
  6
BYLAYER
 62
    7
  0
POLYLINE
  5
671
  8
0
  6
BYLAYER
 62
    7
 66
    1
 10
0
 20
0
 30
0
 70
    0
  0
VERTEX
  5
672
  8
0
  6
BYLAYER
 62
    7
 10
41.50569681567072
 20
37.84094326077523
 30
0
  0
VERTEX
  5
673
  8
0
  6
BYLAYER
 62
    7
 10
41.46684618485062
 20
37.82848264599116
 30
0
  0
VERTEX
  5
674
  8
0
  6
BYLAYER
 62
    7
 10
41.42599201406098
 20
37.81686157071915
 30
0
  0
VERTEX
  5
675
  8
0
  6
BYLAYER
 62
    7
 10
41.38327488012425
 20
37.80607976500505
 30
0
  0
VERTEX
  5
676
  8
0
  6
BYLAYER
 62
    7
 10
41.33883535986295
 20
37.79613695889484
 30
0
  0
VERTEX
  5
677
  8
0
  6
BYLAYER
 62
    7
 10
41.29281403009971
 20
37.78703288243436
 30
0
  0
VERTEX
  5
678
  8
0
  6
BYLAYER
 62
    7
 10
41.24535146765696
 20
37.77876726566951
 30
0
  0
VERTEX
  5
679
  8
0
  6
BYLAYER
 62
    7
 10
41.19658824935728
 20
37.7713398386462
 30
0
  0
VERTEX
  5
67A
  8
0
  6
BYLAYER
 62
    7
 10
41.14666495202313
 20
37.76475033141032
 30
0
  0
VERTEX
  5
67B
  8
0
  6
BYLAYER
 62
    7
 10
41.09572215247711
 20
37.75899847400774
 30
0
  0
VERTEX
  5
67C
  8
0
  6
BYLAYER
 62
    7
 10
41.04390042754171
 20
37.75408399648438
 30
0
  0
VERTEX
  5
67D
  8
0
  6
BYLAYER
 62
    7
 10
40.99134035403951
 20
37.75000662888613
 30
0
  0
VERTEX
  5
67E
  8
0
  6
BYLAYER
 62
    7
 10
40.93818250879295
 20
37.74676610125888
 30
0
  0
VERTEX
  5
67F
  8
0
  6
BYLAYER
 62
    7
 10
40.88456746862462
 20
37.74436214364854
 30
0
  0
VERTEX
  5
680
  8
0
  6
BYLAYER
 62
    7
 10
40.83063581035702
 20
37.74279448610095
 30
0
  0
VERTEX
  5
681
  8
0
  6
BYLAYER
 62
    7
 10
40.77652811081272
 20
37.74206285866205
 30
0
  0
VERTEX
  5
682
  8
0
  6
BYLAYER
 62
    7
 10
40.7223849468142
 20
37.74216699137773
 30
0
  0
VERTEX
  5
683
  8
0
  6
BYLAYER
 62
    7
 10
40.66834689518399
 20
37.74310661429389
 30
0
  0
VERTEX
  5
684
  8
0
  6
BYLAYER
 62
    7
 10
40.61455453274462
 20
37.74488145745637
 30
0
  0
VERTEX
  5
685
  8
0
  6
BYLAYER
 62
    7
 10
40.56114843631866
 20
37.74749125091115
 30
0
  0
VERTEX
  5
686
  8
0
  6
BYLAYER
 62
    7
 10
40.50826918272857
 20
37.75093572470409
 30
0
  0
VERTEX
  5
687
  8
0
  6
BYLAYER
 62
    7
 10
40.45605734879696
 20
37.75521460888104
 30
0
  0
VERTEX
  5
688
  8
0
  6
BYLAYER
 62
    7
 10
40.40465351134627
 20
37.76032763348792
 30
0
  0
VERTEX
  5
689
  8
0
  6
BYLAYER
 62
    7
 10
40.35419824719909
 20
37.76627452857065
 30
0
  0
VERTEX
  5
68A
  8
0
  6
BYLAYER
 62
    7
 10
40.30483213317792
 20
37.77305502417511
 30
0
  0
VERTEX
  5
68B
  8
0
  6
BYLAYER
 62
    7
 10
40.25669574610528
 20
37.78066885034718
 30
0
  0
VERTEX
  5
68C
  8
0
  6
BYLAYER
 62
    7
 10
40.20992966280372
 20
37.78911573713273
 30
0
  0
VERTEX
  5
68D
  8
0
  6
BYLAYER
 62
    7
 10
40.16467446009577
 20
37.79839541457774
 30
0
  0
VERTEX
  5
68E
  8
0
  6
BYLAYER
 62
    7
 10
40.12107071480395
 20
37.80850761272804
 30
0
  0
VERTEX
  5
68F
  8
0
  6
BYLAYER
 62
    7
 10
40.07925900375075
 20
37.81945206162951
 30
0
  0
VERTEX
  5
690
  8
0
  6
BYLAYER
 62
    7
 10
40.03937990375874
 20
37.83122849132808
 30
0
  0
VERTEX
  5
691
  8
0
  6
BYLAYER
 62
    7
 10
40.00157399165047
 20
37.84383663186964
 30
0
  0
SEQEND
  5
692
  8
0
  6
BYLAYER
 62
    7
  0
POLYLINE
  5
693
  8
0
  6
BYLAYER
 62
    7
 66
    1
 10
0
 20
0
 30
0
 70
    0
  0
VERTEX
  5
694
  8
0
  6
BYLAYER
 62
    7
 10
49.34572653636997
 20
40.82737110295811
 30
0
  0
VERTEX
  5
695
  8
0
  6
BYLAYER
 62
    7
 10
48.64582106726904
 20
40.82601125020787
 30
0
  0
VERTEX
  5
696
  8
0
  6
BYLAYER
 62
    7
 10
48.35249086701839
 20
40.31045436655344
 30
0
  0
VERTEX
  5
697
  8
0
  6
BYLAYER
 62
    7
 10
48.05916091033801
 20
39.79489723932875
 30
0
  0
VERTEX
  5
698
  8
0
  6
BYLAYER
 62
    7
 10
47.66039304253665
 20
39.79489723932875
 30
0
  0
SEQEND
  5
699
  8
0
  6
BYLAYER
 62
    7
  0
POLYLINE
  5
69A
  8
0
  6
BYLAYER
 62
    7
 66
    1
 10
0
 20
0
 30
0
 70
    1
  0
VERTEX
  5
69B
  8
0
  6
BYLAYER
 62
    7
 10
40.00157399165047
 20
37.84383663186964
 30
0
  0
SEQEND
  5
69C
  8
0
  6
BYLAYER
 62
    7
  0
ENDSEC
  0
EOF
